<mxfile host="Electron" modified="2023-12-10T15:41:15.574Z" agent="Mozilla/5.0 (Windows NT 10.0; Win64; x64) AppleWebKit/537.36 (KHTML, like Gecko) draw.io/22.1.2 Chrome/114.0.5735.289 Electron/25.9.4 Safari/537.36" etag="kqJZdyHRNZwwthyhA0XX" version="22.1.2" type="device" pages="7">
  <diagram id="JiSSRO_q8-Lz5THqgUoh" name="visualisation">
    <mxGraphModel dx="2478" dy="1102" grid="1" gridSize="10" guides="1" tooltips="1" connect="1" arrows="1" fold="1" page="0" pageScale="1" pageWidth="827" pageHeight="1169" math="0" shadow="0">
      <root>
        <mxCell id="0" />
        <mxCell id="1" parent="0" />
        <mxCell id="kKrUP3qh-PcEckTrJeX6-124" value="" style="ellipse;whiteSpace=wrap;html=1;aspect=fixed;fontSize=16;fillColor=none;strokeWidth=2;opacity=15;dashed=1;dashPattern=1 4;" parent="1" vertex="1">
          <mxGeometry x="-681" y="-121" width="361.5" height="361.5" as="geometry" />
        </mxCell>
        <mxCell id="kKrUP3qh-PcEckTrJeX6-13" value="" style="group;fontSize=16;" parent="1" vertex="1" connectable="0">
          <mxGeometry x="-517" y="-139" width="68.75" height="60" as="geometry" />
        </mxCell>
        <mxCell id="kKrUP3qh-PcEckTrJeX6-14" value="" style="group;fontSize=16;" parent="kKrUP3qh-PcEckTrJeX6-13" vertex="1" connectable="0">
          <mxGeometry y="10" width="52.5" height="50" as="geometry" />
        </mxCell>
        <mxCell id="kKrUP3qh-PcEckTrJeX6-15" value="" style="group;fontSize=16;" parent="kKrUP3qh-PcEckTrJeX6-14" vertex="1" connectable="0">
          <mxGeometry x="-3.75" width="56.25" height="48.75" as="geometry" />
        </mxCell>
        <object label="" markers="●" placeholders="1" id="kKrUP3qh-PcEckTrJeX6-16">
          <mxCell style="ellipse;whiteSpace=wrap;html=1;aspect=fixed;fontSize=16;direction=south;perimeterSpacing=0;strokeWidth=1;dashed=1;dashPattern=8 8;points=[[0,0.5,0,0,0],[0.5,0,0,0,0],[0.5,1,0,0,0],[1,0.5,0,0,0]];" parent="kKrUP3qh-PcEckTrJeX6-15" vertex="1">
            <mxGeometry y="6.25" width="42.5" height="42.5" as="geometry" />
          </mxCell>
        </object>
        <object label="" markers="●" placeholders="1" id="kKrUP3qh-PcEckTrJeX6-17">
          <mxCell style="ellipse;whiteSpace=wrap;html=1;aspect=fixed;fontSize=16;direction=south;perimeterSpacing=0;strokeWidth=1;points=[];" parent="kKrUP3qh-PcEckTrJeX6-15" vertex="1">
            <mxGeometry x="3.75" y="10" width="35" height="35" as="geometry" />
          </mxCell>
        </object>
        <mxCell id="kKrUP3qh-PcEckTrJeX6-18" value="&lt;b style=&quot;font-size: 9px;&quot;&gt;output_N&lt;/b&gt;" style="text;html=1;strokeColor=none;fillColor=none;align=center;verticalAlign=middle;whiteSpace=wrap;rounded=0;fontSize=16;" parent="kKrUP3qh-PcEckTrJeX6-13" vertex="1">
          <mxGeometry x="7" width="20" height="10" as="geometry" />
        </mxCell>
        <mxCell id="kKrUP3qh-PcEckTrJeX6-19" value="" style="group;fontSize=16;" parent="1" vertex="1" connectable="0">
          <mxGeometry x="-517" y="-59" width="68.75" height="60" as="geometry" />
        </mxCell>
        <mxCell id="kKrUP3qh-PcEckTrJeX6-20" value="" style="group;fontSize=16;" parent="kKrUP3qh-PcEckTrJeX6-19" vertex="1" connectable="0">
          <mxGeometry y="10" width="52.5" height="50" as="geometry" />
        </mxCell>
        <mxCell id="kKrUP3qh-PcEckTrJeX6-21" value="" style="group;fontSize=16;" parent="kKrUP3qh-PcEckTrJeX6-20" vertex="1" connectable="0">
          <mxGeometry x="-3.75" width="56.25" height="48.75" as="geometry" />
        </mxCell>
        <object label="" markers="●" placeholders="1" id="kKrUP3qh-PcEckTrJeX6-22">
          <mxCell style="ellipse;whiteSpace=wrap;html=1;aspect=fixed;fontSize=16;direction=south;perimeterSpacing=0;strokeWidth=1;dashed=1;dashPattern=8 8;points=[[0,0.5,0,0,0],[0.5,0,0,0,0],[0.5,1,0,0,0],[1,0.5,0,0,0]];" parent="kKrUP3qh-PcEckTrJeX6-21" vertex="1">
            <mxGeometry y="6.25" width="42.5" height="42.5" as="geometry" />
          </mxCell>
        </object>
        <object label="" markers="●" placeholders="1" id="kKrUP3qh-PcEckTrJeX6-23">
          <mxCell style="ellipse;whiteSpace=wrap;html=1;aspect=fixed;fontSize=16;direction=south;perimeterSpacing=0;strokeWidth=1;points=[];" parent="kKrUP3qh-PcEckTrJeX6-21" vertex="1">
            <mxGeometry x="3.75" y="10" width="35" height="35" as="geometry" />
          </mxCell>
        </object>
        <mxCell id="kKrUP3qh-PcEckTrJeX6-24" value="&lt;b style=&quot;font-size: 9px;&quot;&gt;core_N&lt;/b&gt;" style="text;html=1;strokeColor=none;fillColor=none;align=center;verticalAlign=middle;whiteSpace=wrap;rounded=0;fontSize=16;" parent="kKrUP3qh-PcEckTrJeX6-19" vertex="1">
          <mxGeometry x="7" width="20" height="10" as="geometry" />
        </mxCell>
        <mxCell id="kKrUP3qh-PcEckTrJeX6-25" value="" style="group;fontSize=16;" parent="1" vertex="1" connectable="0">
          <mxGeometry x="-437" y="21" width="68.75" height="60" as="geometry" />
        </mxCell>
        <mxCell id="kKrUP3qh-PcEckTrJeX6-26" value="" style="group;fontSize=16;" parent="kKrUP3qh-PcEckTrJeX6-25" vertex="1" connectable="0">
          <mxGeometry y="10" width="52.5" height="50" as="geometry" />
        </mxCell>
        <mxCell id="kKrUP3qh-PcEckTrJeX6-27" value="" style="group;fontSize=16;" parent="kKrUP3qh-PcEckTrJeX6-26" vertex="1" connectable="0">
          <mxGeometry x="-3.75" width="56.25" height="48.75" as="geometry" />
        </mxCell>
        <object label="" markers="●" placeholders="1" id="kKrUP3qh-PcEckTrJeX6-28">
          <mxCell style="ellipse;whiteSpace=wrap;html=1;aspect=fixed;fontSize=16;direction=south;perimeterSpacing=0;strokeWidth=1;dashed=1;dashPattern=8 8;points=[[0,0.5,0,0,0],[0.5,0,0,0,0],[0.5,1,0,0,0],[1,0.5,0,0,0]];" parent="kKrUP3qh-PcEckTrJeX6-27" vertex="1">
            <mxGeometry y="6.25" width="42.5" height="42.5" as="geometry" />
          </mxCell>
        </object>
        <object label="" markers="●" placeholders="1" id="kKrUP3qh-PcEckTrJeX6-29">
          <mxCell style="ellipse;whiteSpace=wrap;html=1;aspect=fixed;fontSize=16;direction=south;perimeterSpacing=0;strokeWidth=1;points=[];" parent="kKrUP3qh-PcEckTrJeX6-27" vertex="1">
            <mxGeometry x="3.75" y="10" width="35" height="35" as="geometry" />
          </mxCell>
        </object>
        <mxCell id="kKrUP3qh-PcEckTrJeX6-30" value="&lt;b style=&quot;font-size: 9px;&quot;&gt;core_E&lt;br&gt;&lt;/b&gt;" style="text;html=1;strokeColor=none;fillColor=none;align=center;verticalAlign=middle;whiteSpace=wrap;rounded=0;fontSize=16;" parent="kKrUP3qh-PcEckTrJeX6-25" vertex="1">
          <mxGeometry x="7" width="20" height="10" as="geometry" />
        </mxCell>
        <mxCell id="kKrUP3qh-PcEckTrJeX6-31" value="" style="group;fontSize=16;" parent="1" vertex="1" connectable="0">
          <mxGeometry x="-597" y="21" width="68.75" height="60" as="geometry" />
        </mxCell>
        <mxCell id="kKrUP3qh-PcEckTrJeX6-32" value="" style="group;fontSize=16;" parent="kKrUP3qh-PcEckTrJeX6-31" vertex="1" connectable="0">
          <mxGeometry y="10" width="52.5" height="50" as="geometry" />
        </mxCell>
        <mxCell id="kKrUP3qh-PcEckTrJeX6-33" value="" style="group;fontSize=16;" parent="kKrUP3qh-PcEckTrJeX6-32" vertex="1" connectable="0">
          <mxGeometry x="-3.75" width="56.25" height="48.75" as="geometry" />
        </mxCell>
        <object label="" markers="●" placeholders="1" id="kKrUP3qh-PcEckTrJeX6-34">
          <mxCell style="ellipse;whiteSpace=wrap;html=1;aspect=fixed;fontSize=16;direction=south;perimeterSpacing=0;strokeWidth=1;dashed=1;dashPattern=8 8;points=[[0,0.5,0,0,0],[0.5,0,0,0,0],[0.5,1,0,0,0],[1,0.5,0,0,0]];" parent="kKrUP3qh-PcEckTrJeX6-33" vertex="1">
            <mxGeometry y="6.25" width="42.5" height="42.5" as="geometry" />
          </mxCell>
        </object>
        <object label="" markers="●" placeholders="1" id="kKrUP3qh-PcEckTrJeX6-35">
          <mxCell style="ellipse;whiteSpace=wrap;html=1;aspect=fixed;fontSize=16;direction=south;perimeterSpacing=0;strokeWidth=1;points=[];" parent="kKrUP3qh-PcEckTrJeX6-33" vertex="1">
            <mxGeometry x="3.75" y="10" width="35" height="35" as="geometry" />
          </mxCell>
        </object>
        <mxCell id="kKrUP3qh-PcEckTrJeX6-36" value="&lt;b style=&quot;font-size: 9px;&quot;&gt;core_W&lt;/b&gt;" style="text;html=1;strokeColor=none;fillColor=none;align=center;verticalAlign=middle;whiteSpace=wrap;rounded=0;fontSize=16;" parent="kKrUP3qh-PcEckTrJeX6-31" vertex="1">
          <mxGeometry x="7" width="20" height="10" as="geometry" />
        </mxCell>
        <mxCell id="kKrUP3qh-PcEckTrJeX6-45" value="" style="group;fontSize=16;" parent="1" vertex="1" connectable="0">
          <mxGeometry x="-517" y="101" width="68.75" height="60" as="geometry" />
        </mxCell>
        <mxCell id="kKrUP3qh-PcEckTrJeX6-46" value="" style="group;fontSize=16;" parent="kKrUP3qh-PcEckTrJeX6-45" vertex="1" connectable="0">
          <mxGeometry y="10" width="52.5" height="50" as="geometry" />
        </mxCell>
        <mxCell id="kKrUP3qh-PcEckTrJeX6-47" value="" style="group;fontSize=16;" parent="kKrUP3qh-PcEckTrJeX6-46" vertex="1" connectable="0">
          <mxGeometry x="-3.75" width="56.25" height="48.75" as="geometry" />
        </mxCell>
        <object label="" markers="●" placeholders="1" id="kKrUP3qh-PcEckTrJeX6-48">
          <mxCell style="ellipse;whiteSpace=wrap;html=1;aspect=fixed;fontSize=16;direction=south;perimeterSpacing=0;strokeWidth=1;dashed=1;dashPattern=8 8;points=[[0,0.5,0,0,0],[0.5,0,0,0,0],[0.5,1,0,0,0],[1,0.5,0,0,0]];" parent="kKrUP3qh-PcEckTrJeX6-47" vertex="1">
            <mxGeometry y="6.25" width="42.5" height="42.5" as="geometry" />
          </mxCell>
        </object>
        <object label="" markers="●" placeholders="1" id="kKrUP3qh-PcEckTrJeX6-49">
          <mxCell style="ellipse;whiteSpace=wrap;html=1;aspect=fixed;fontSize=16;direction=south;perimeterSpacing=0;strokeWidth=1;points=[];" parent="kKrUP3qh-PcEckTrJeX6-47" vertex="1">
            <mxGeometry x="3.75" y="10" width="35" height="35" as="geometry" />
          </mxCell>
        </object>
        <mxCell id="kKrUP3qh-PcEckTrJeX6-50" value="&lt;b style=&quot;font-size: 9px;&quot;&gt;core_S&lt;/b&gt;" style="text;html=1;strokeColor=none;fillColor=none;align=center;verticalAlign=middle;whiteSpace=wrap;rounded=0;fontSize=16;" parent="kKrUP3qh-PcEckTrJeX6-45" vertex="1">
          <mxGeometry x="6.75" width="20" height="10" as="geometry" />
        </mxCell>
        <mxCell id="kKrUP3qh-PcEckTrJeX6-51" value="" style="group;fontSize=16;" parent="1" vertex="1" connectable="0">
          <mxGeometry x="-517" y="181" width="68.75" height="60" as="geometry" />
        </mxCell>
        <mxCell id="kKrUP3qh-PcEckTrJeX6-52" value="" style="group;fontSize=16;" parent="kKrUP3qh-PcEckTrJeX6-51" vertex="1" connectable="0">
          <mxGeometry y="10" width="52.5" height="50" as="geometry" />
        </mxCell>
        <mxCell id="kKrUP3qh-PcEckTrJeX6-53" value="" style="group;fontSize=16;" parent="kKrUP3qh-PcEckTrJeX6-52" vertex="1" connectable="0">
          <mxGeometry x="-3.75" width="56.25" height="48.75" as="geometry" />
        </mxCell>
        <object label="" markers="●" placeholders="1" id="kKrUP3qh-PcEckTrJeX6-54">
          <mxCell style="ellipse;whiteSpace=wrap;html=1;aspect=fixed;fontSize=16;direction=south;perimeterSpacing=0;strokeWidth=1;dashed=1;dashPattern=8 8;points=[[0,0.5,0,0,0],[0.5,0,0,0,0],[0.5,1,0,0,0],[1,0.5,0,0,0]];" parent="kKrUP3qh-PcEckTrJeX6-53" vertex="1">
            <mxGeometry y="6.25" width="42.5" height="42.5" as="geometry" />
          </mxCell>
        </object>
        <object label="" markers="●" placeholders="1" id="kKrUP3qh-PcEckTrJeX6-55">
          <mxCell style="ellipse;whiteSpace=wrap;html=1;aspect=fixed;fontSize=16;direction=south;perimeterSpacing=0;strokeWidth=1;points=[];" parent="kKrUP3qh-PcEckTrJeX6-53" vertex="1">
            <mxGeometry x="3.75" y="10" width="35" height="35" as="geometry" />
          </mxCell>
        </object>
        <mxCell id="kKrUP3qh-PcEckTrJeX6-57" value="" style="group;fontSize=16;" parent="1" vertex="1" connectable="0">
          <mxGeometry x="-357" y="21" width="68.75" height="60" as="geometry" />
        </mxCell>
        <mxCell id="kKrUP3qh-PcEckTrJeX6-58" value="" style="group;fontSize=16;" parent="kKrUP3qh-PcEckTrJeX6-57" vertex="1" connectable="0">
          <mxGeometry y="10" width="52.5" height="50" as="geometry" />
        </mxCell>
        <mxCell id="kKrUP3qh-PcEckTrJeX6-59" value="" style="group;fontSize=16;" parent="kKrUP3qh-PcEckTrJeX6-58" vertex="1" connectable="0">
          <mxGeometry x="-3.75" width="56.25" height="48.75" as="geometry" />
        </mxCell>
        <object label="" markers="●" placeholders="1" id="kKrUP3qh-PcEckTrJeX6-60">
          <mxCell style="ellipse;whiteSpace=wrap;html=1;aspect=fixed;fontSize=16;direction=south;perimeterSpacing=0;strokeWidth=1;dashed=1;dashPattern=8 8;points=[[0,0.5,0,0,0],[0.5,0,0,0,0],[0.5,1,0,0,0],[1,0.5,0,0,0]];" parent="kKrUP3qh-PcEckTrJeX6-59" vertex="1">
            <mxGeometry y="6.25" width="42.5" height="42.5" as="geometry" />
          </mxCell>
        </object>
        <object label="" markers="●" placeholders="1" id="kKrUP3qh-PcEckTrJeX6-61">
          <mxCell style="ellipse;whiteSpace=wrap;html=1;aspect=fixed;fontSize=16;direction=south;perimeterSpacing=0;strokeWidth=1;points=[];" parent="kKrUP3qh-PcEckTrJeX6-59" vertex="1">
            <mxGeometry x="3.75" y="10" width="35" height="35" as="geometry" />
          </mxCell>
        </object>
        <mxCell id="kKrUP3qh-PcEckTrJeX6-62" value="&lt;b style=&quot;font-size: 9px;&quot;&gt;input_E&lt;br&gt;&lt;/b&gt;" style="text;html=1;strokeColor=none;fillColor=none;align=center;verticalAlign=middle;whiteSpace=wrap;rounded=0;fontSize=16;" parent="kKrUP3qh-PcEckTrJeX6-57" vertex="1">
          <mxGeometry x="7" width="20" height="10" as="geometry" />
        </mxCell>
        <mxCell id="kKrUP3qh-PcEckTrJeX6-63" value="" style="group;fontSize=16;" parent="1" vertex="1" connectable="0">
          <mxGeometry x="-677" y="21" width="68.75" height="60" as="geometry" />
        </mxCell>
        <mxCell id="kKrUP3qh-PcEckTrJeX6-64" value="" style="group;fontSize=16;" parent="kKrUP3qh-PcEckTrJeX6-63" vertex="1" connectable="0">
          <mxGeometry y="10" width="52.5" height="50" as="geometry" />
        </mxCell>
        <mxCell id="kKrUP3qh-PcEckTrJeX6-65" value="" style="group;fontSize=16;" parent="kKrUP3qh-PcEckTrJeX6-64" vertex="1" connectable="0">
          <mxGeometry x="-3.75" width="56.25" height="48.75" as="geometry" />
        </mxCell>
        <object label="" markers="●" placeholders="1" id="kKrUP3qh-PcEckTrJeX6-66">
          <mxCell style="ellipse;whiteSpace=wrap;html=1;aspect=fixed;fontSize=16;direction=south;perimeterSpacing=0;strokeWidth=1;dashed=1;dashPattern=8 8;points=[[0,0.5,0,0,0],[0.5,0,0,0,0],[0.5,1,0,0,0],[1,0.5,0,0,0]];" parent="kKrUP3qh-PcEckTrJeX6-65" vertex="1">
            <mxGeometry y="6.25" width="42.5" height="42.5" as="geometry" />
          </mxCell>
        </object>
        <object label="" markers="●" placeholders="1" id="kKrUP3qh-PcEckTrJeX6-67">
          <mxCell style="ellipse;whiteSpace=wrap;html=1;aspect=fixed;fontSize=16;direction=south;perimeterSpacing=0;strokeWidth=1;points=[];" parent="kKrUP3qh-PcEckTrJeX6-65" vertex="1">
            <mxGeometry x="3.75" y="10" width="35" height="35" as="geometry" />
          </mxCell>
        </object>
        <mxCell id="kKrUP3qh-PcEckTrJeX6-68" value="&lt;b style=&quot;font-size: 9px;&quot;&gt;input_W&lt;br&gt;&lt;/b&gt;" style="text;html=1;strokeColor=none;fillColor=none;align=center;verticalAlign=middle;whiteSpace=wrap;rounded=0;fontSize=16;" parent="kKrUP3qh-PcEckTrJeX6-63" vertex="1">
          <mxGeometry x="7" width="20" height="10" as="geometry" />
        </mxCell>
        <mxCell id="kKrUP3qh-PcEckTrJeX6-69" value="" style="group;fontSize=16;" parent="1" vertex="1" connectable="0">
          <mxGeometry x="-757" y="21" width="68.75" height="60" as="geometry" />
        </mxCell>
        <mxCell id="kKrUP3qh-PcEckTrJeX6-70" value="" style="group;fontSize=16;" parent="kKrUP3qh-PcEckTrJeX6-69" vertex="1" connectable="0">
          <mxGeometry y="10" width="52.5" height="50" as="geometry" />
        </mxCell>
        <mxCell id="kKrUP3qh-PcEckTrJeX6-81" value="" style="group;fontSize=16;" parent="1" vertex="1" connectable="0">
          <mxGeometry x="-717" y="-119" width="68.75" height="60" as="geometry" />
        </mxCell>
        <mxCell id="kKrUP3qh-PcEckTrJeX6-82" value="" style="group;fontSize=16;" parent="kKrUP3qh-PcEckTrJeX6-81" vertex="1" connectable="0">
          <mxGeometry y="10" width="52.5" height="50" as="geometry" />
        </mxCell>
        <mxCell id="kKrUP3qh-PcEckTrJeX6-105" value="" style="group;fontSize=16;" parent="1" vertex="1" connectable="0">
          <mxGeometry x="-717" y="161" width="68.75" height="60" as="geometry" />
        </mxCell>
        <mxCell id="kKrUP3qh-PcEckTrJeX6-106" value="" style="group;fontSize=16;" parent="kKrUP3qh-PcEckTrJeX6-105" vertex="1" connectable="0">
          <mxGeometry y="10" width="52.5" height="50" as="geometry" />
        </mxCell>
        <mxCell id="kKrUP3qh-PcEckTrJeX6-56" value="&lt;b style=&quot;font-size: 9px;&quot;&gt;output_S&lt;/b&gt;" style="text;html=1;strokeColor=none;fillColor=none;align=center;verticalAlign=middle;whiteSpace=wrap;rounded=0;fontSize=16;" parent="1" vertex="1">
          <mxGeometry x="-508.5" y="181" width="20" height="10" as="geometry" />
        </mxCell>
      </root>
    </mxGraphModel>
  </diagram>
  <diagram name="inputs" id="RFGJTBIz5JLd-lF-9eUK">
    <mxGraphModel dx="2001" dy="491" grid="1" gridSize="10" guides="1" tooltips="1" connect="1" arrows="1" fold="1" page="1" pageScale="1" pageWidth="827" pageHeight="1169" math="0" shadow="0">
      <root>
        <mxCell id="eNtJud_d0ee5PfrYbiAu-0" />
        <mxCell id="eNtJud_d0ee5PfrYbiAu-1" parent="eNtJud_d0ee5PfrYbiAu-0" />
        <mxCell id="eNtJud_d0ee5PfrYbiAu-31" value="" style="group;fontSize=16;" parent="eNtJud_d0ee5PfrYbiAu-1" vertex="1" connectable="0">
          <mxGeometry x="-784.0600000000001" y="214.00000000000006" width="70.91" height="21.830000000000013" as="geometry" />
        </mxCell>
        <mxCell id="eNtJud_d0ee5PfrYbiAu-32" value="" style="group;points=[[0,0.5,0,0,0],[0.5,0,0,0,0],[0.5,1,0,0,0],[1,0.5,0,0,0]];fontSize=16;" parent="eNtJud_d0ee5PfrYbiAu-31" vertex="1" connectable="0">
          <mxGeometry y="5.460000000000008" width="60" height="16.37" as="geometry" />
        </mxCell>
        <mxCell id="eNtJud_d0ee5PfrYbiAu-33" value="" style="rounded=0;whiteSpace=wrap;html=1;fontSize=16;fillColor=#000000;points=[[0,0.5,0,0,0],[0.5,0,0,0,0],[0.5,1,0,0,0],[1,0.5,0,0,0]];" parent="eNtJud_d0ee5PfrYbiAu-32" vertex="1">
          <mxGeometry y="5.456666666666667" width="49.09090909090909" height="10.913333333333334" as="geometry" />
        </mxCell>
        <mxCell id="eNtJud_d0ee5PfrYbiAu-34" value="" style="group;fontSize=16;" parent="eNtJud_d0ee5PfrYbiAu-1" vertex="1" connectable="0">
          <mxGeometry x="-704.0600000000001" y="215.00000000000006" width="70.91" height="21.830000000000013" as="geometry" />
        </mxCell>
        <mxCell id="eNtJud_d0ee5PfrYbiAu-35" value="" style="group;points=[[0,0.5,0,0,0],[0.5,0,0,0,0],[0.5,1,0,0,0],[1,0.5,0,0,0]];fontSize=16;" parent="eNtJud_d0ee5PfrYbiAu-34" vertex="1" connectable="0">
          <mxGeometry y="5.460000000000008" width="60" height="16.37" as="geometry" />
        </mxCell>
        <mxCell id="eNtJud_d0ee5PfrYbiAu-36" value="" style="rounded=0;whiteSpace=wrap;html=1;fontSize=16;fillColor=#000000;points=[[0,0.5,0,0,0],[0.5,0,0,0,0],[0.5,1,0,0,0],[1,0.5,0,0,0]];" parent="eNtJud_d0ee5PfrYbiAu-35" vertex="1">
          <mxGeometry y="5.456666666666667" width="49.09090909090909" height="10.913333333333334" as="geometry" />
        </mxCell>
        <mxCell id="eNtJud_d0ee5PfrYbiAu-37" value="&lt;b style=&quot;font-size: 9px;&quot;&gt;skip_W&lt;/b&gt;" style="text;html=1;strokeColor=none;fillColor=none;align=center;verticalAlign=middle;whiteSpace=wrap;rounded=0;fontSize=16;" parent="eNtJud_d0ee5PfrYbiAu-34" vertex="1">
          <mxGeometry x="60.00090909090909" width="10.90909090909091" height="5.456666666666667" as="geometry" />
        </mxCell>
        <mxCell id="eNtJud_d0ee5PfrYbiAu-38" value="" style="group;fontSize=16;" parent="eNtJud_d0ee5PfrYbiAu-1" vertex="1" connectable="0">
          <mxGeometry x="-572.0600000000001" y="214.00000000000006" width="70.91" height="21.830000000000013" as="geometry" />
        </mxCell>
        <mxCell id="eNtJud_d0ee5PfrYbiAu-39" value="" style="group;points=[[0,0.5,0,0,0],[0.5,0,0,0,0],[0.5,1,0,0,0],[1,0.5,0,0,0]];fontSize=16;" parent="eNtJud_d0ee5PfrYbiAu-38" vertex="1" connectable="0">
          <mxGeometry y="5.460000000000008" width="60" height="16.37" as="geometry" />
        </mxCell>
        <mxCell id="eNtJud_d0ee5PfrYbiAu-40" value="" style="rounded=0;whiteSpace=wrap;html=1;fontSize=16;fillColor=#000000;points=[[0,0.5,0,0,0],[0.5,0,0,0,0],[0.5,1,0,0,0],[1,0.5,0,0,0]];" parent="eNtJud_d0ee5PfrYbiAu-39" vertex="1">
          <mxGeometry y="5.456666666666667" width="49.09090909090909" height="10.913333333333334" as="geometry" />
        </mxCell>
        <mxCell id="eNtJud_d0ee5PfrYbiAu-41" value="" style="group;fontSize=16;" parent="eNtJud_d0ee5PfrYbiAu-1" vertex="1" connectable="0">
          <mxGeometry x="-492.06000000000006" y="214.00000000000006" width="70.91" height="21.830000000000013" as="geometry" />
        </mxCell>
        <mxCell id="eNtJud_d0ee5PfrYbiAu-42" value="" style="group;points=[[0,0.5,0,0,0],[0.5,0,0,0,0],[0.5,1,0,0,0],[1,0.5,0,0,0]];fontSize=16;" parent="eNtJud_d0ee5PfrYbiAu-41" vertex="1" connectable="0">
          <mxGeometry y="5.460000000000008" width="60" height="16.37" as="geometry" />
        </mxCell>
        <mxCell id="eNtJud_d0ee5PfrYbiAu-43" value="" style="rounded=0;whiteSpace=wrap;html=1;fontSize=16;fillColor=#000000;points=[[0,0.5,0,0,0],[0.5,0,0,0,0],[0.5,1,0,0,0],[1,0.5,0,0,0]];" parent="eNtJud_d0ee5PfrYbiAu-42" vertex="1">
          <mxGeometry y="5.456666666666667" width="49.09090909090909" height="10.913333333333334" as="geometry" />
        </mxCell>
        <mxCell id="eNtJud_d0ee5PfrYbiAu-44" value="&lt;b style=&quot;font-size: 9px;&quot;&gt;generate_E&lt;/b&gt;" style="text;html=1;strokeColor=none;fillColor=none;align=center;verticalAlign=middle;whiteSpace=wrap;rounded=0;fontSize=16;" parent="eNtJud_d0ee5PfrYbiAu-41" vertex="1">
          <mxGeometry x="57.00090909090909" y="-1" width="10.90909090909091" height="5.456666666666667" as="geometry" />
        </mxCell>
        <mxCell id="eNtJud_d0ee5PfrYbiAu-68" value="&lt;b style=&quot;font-size: 9px;&quot;&gt;skip_E&lt;/b&gt;" style="text;html=1;strokeColor=none;fillColor=none;align=center;verticalAlign=middle;whiteSpace=wrap;rounded=0;fontSize=16;" parent="eNtJud_d0ee5PfrYbiAu-1" vertex="1">
          <mxGeometry x="-592.059090909091" y="215.00000000000006" width="10.90909090909091" height="5.456666666666667" as="geometry" />
        </mxCell>
        <mxCell id="eNtJud_d0ee5PfrYbiAu-69" value="&lt;b style=&quot;font-size: 9px;&quot;&gt;generate_W&lt;/b&gt;" style="text;html=1;strokeColor=none;fillColor=none;align=center;verticalAlign=middle;whiteSpace=wrap;rounded=0;fontSize=16;" parent="eNtJud_d0ee5PfrYbiAu-1" vertex="1">
          <mxGeometry x="-803.059090909091" y="212.00000000000006" width="10.90909090909091" height="5.456666666666667" as="geometry" />
        </mxCell>
        <mxCell id="eNtJud_d0ee5PfrYbiAu-78" value="" style="group" parent="eNtJud_d0ee5PfrYbiAu-1" vertex="1" connectable="0">
          <mxGeometry x="-779.06" y="248" width="68.75" height="70" as="geometry" />
        </mxCell>
        <mxCell id="eNtJud_d0ee5PfrYbiAu-79" value="" style="group;fontSize=16;" parent="eNtJud_d0ee5PfrYbiAu-78" vertex="1" connectable="0">
          <mxGeometry width="68.75" height="60" as="geometry" />
        </mxCell>
        <mxCell id="eNtJud_d0ee5PfrYbiAu-80" value="" style="group;fontSize=16;" parent="eNtJud_d0ee5PfrYbiAu-79" vertex="1" connectable="0">
          <mxGeometry y="13" width="52.5" height="50" as="geometry" />
        </mxCell>
        <mxCell id="eNtJud_d0ee5PfrYbiAu-81" value="" style="group;fontSize=16;" parent="eNtJud_d0ee5PfrYbiAu-80" vertex="1" connectable="0">
          <mxGeometry x="-3.75" width="56.25" height="48.75" as="geometry" />
        </mxCell>
        <object label="" markers="●" placeholders="1" id="eNtJud_d0ee5PfrYbiAu-82">
          <mxCell style="ellipse;whiteSpace=wrap;html=1;aspect=fixed;fontSize=16;direction=south;perimeterSpacing=0;strokeWidth=1;dashed=1;dashPattern=8 8;points=[[0,0.5,0,0,0],[0.5,0,0,0,0],[0.5,1,0,0,0],[1,0.5,0,0,0]];" parent="eNtJud_d0ee5PfrYbiAu-81" vertex="1">
            <mxGeometry y="6.25" width="42.5" height="42.5" as="geometry" />
          </mxCell>
        </object>
        <object label="" markers="●" placeholders="1" id="eNtJud_d0ee5PfrYbiAu-83">
          <mxCell style="ellipse;whiteSpace=wrap;html=1;aspect=fixed;fontSize=16;direction=south;perimeterSpacing=0;strokeWidth=1;points=[];" parent="eNtJud_d0ee5PfrYbiAu-81" vertex="1">
            <mxGeometry x="3.75" y="10" width="35" height="35" as="geometry" />
          </mxCell>
        </object>
        <mxCell id="eNtJud_d0ee5PfrYbiAu-84" value="&lt;b style=&quot;font-size: 9px;&quot;&gt;input_W&lt;/b&gt;" style="text;html=1;strokeColor=none;fillColor=none;align=center;verticalAlign=middle;whiteSpace=wrap;rounded=0;fontSize=16;" parent="eNtJud_d0ee5PfrYbiAu-78" vertex="1">
          <mxGeometry x="7.5" y="60" width="20" height="10" as="geometry" />
        </mxCell>
        <mxCell id="eNtJud_d0ee5PfrYbiAu-85" value="" style="group" parent="eNtJud_d0ee5PfrYbiAu-1" vertex="1" connectable="0">
          <mxGeometry x="-488.06" y="248" width="68.75" height="70" as="geometry" />
        </mxCell>
        <mxCell id="eNtJud_d0ee5PfrYbiAu-86" value="" style="group;fontSize=16;" parent="eNtJud_d0ee5PfrYbiAu-85" vertex="1" connectable="0">
          <mxGeometry width="68.75" height="60" as="geometry" />
        </mxCell>
        <mxCell id="eNtJud_d0ee5PfrYbiAu-87" value="" style="group;fontSize=16;" parent="eNtJud_d0ee5PfrYbiAu-86" vertex="1" connectable="0">
          <mxGeometry y="13" width="52.5" height="50" as="geometry" />
        </mxCell>
        <mxCell id="eNtJud_d0ee5PfrYbiAu-88" value="" style="group;fontSize=16;" parent="eNtJud_d0ee5PfrYbiAu-87" vertex="1" connectable="0">
          <mxGeometry x="-3.75" width="56.25" height="48.75" as="geometry" />
        </mxCell>
        <object label="" markers="●" placeholders="1" id="eNtJud_d0ee5PfrYbiAu-89">
          <mxCell style="ellipse;whiteSpace=wrap;html=1;aspect=fixed;fontSize=16;direction=south;perimeterSpacing=0;strokeWidth=1;dashed=1;dashPattern=8 8;points=[[0,0.5,0,0,0],[0.5,0,0,0,0],[0.5,1,0,0,0],[1,0.5,0,0,0]];" parent="eNtJud_d0ee5PfrYbiAu-88" vertex="1">
            <mxGeometry y="6.25" width="42.5" height="42.5" as="geometry" />
          </mxCell>
        </object>
        <object label="" markers="●" placeholders="1" id="eNtJud_d0ee5PfrYbiAu-90">
          <mxCell style="ellipse;whiteSpace=wrap;html=1;aspect=fixed;fontSize=16;direction=south;perimeterSpacing=0;strokeWidth=1;points=[];" parent="eNtJud_d0ee5PfrYbiAu-88" vertex="1">
            <mxGeometry x="3.75" y="10" width="35" height="35" as="geometry" />
          </mxCell>
        </object>
        <mxCell id="eNtJud_d0ee5PfrYbiAu-91" value="&lt;font size=&quot;1&quot;&gt;&lt;b style=&quot;font-size: 9px;&quot;&gt;input_E&lt;/b&gt;&lt;/font&gt;" style="text;html=1;strokeColor=none;fillColor=none;align=center;verticalAlign=middle;whiteSpace=wrap;rounded=0;fontSize=16;" parent="eNtJud_d0ee5PfrYbiAu-85" vertex="1">
          <mxGeometry x="7.5" y="60" width="20" height="10" as="geometry" />
        </mxCell>
        <mxCell id="eNtJud_d0ee5PfrYbiAu-92" style="edgeStyle=none;curved=1;rounded=0;orthogonalLoop=1;jettySize=auto;html=1;entryX=-0.011;entryY=0.425;entryDx=0;entryDy=0;entryPerimeter=0;fontSize=12;startSize=8;endSize=8;" parent="eNtJud_d0ee5PfrYbiAu-1" source="eNtJud_d0ee5PfrYbiAu-43" target="eNtJud_d0ee5PfrYbiAu-89" edge="1">
          <mxGeometry relative="1" as="geometry" />
        </mxCell>
        <mxCell id="eNtJud_d0ee5PfrYbiAu-93" style="edgeStyle=none;curved=1;rounded=0;orthogonalLoop=1;jettySize=auto;html=1;entryX=-0.011;entryY=0.464;entryDx=0;entryDy=0;entryPerimeter=0;fontSize=12;startSize=8;endSize=8;" parent="eNtJud_d0ee5PfrYbiAu-1" source="eNtJud_d0ee5PfrYbiAu-33" target="eNtJud_d0ee5PfrYbiAu-82" edge="1">
          <mxGeometry relative="1" as="geometry" />
        </mxCell>
      </root>
    </mxGraphModel>
  </diagram>
  <diagram name="inroads" id="mGslkG5DPnxcSYch1Hv4">
    <mxGraphModel dx="2001" dy="491" grid="1" gridSize="10" guides="1" tooltips="1" connect="1" arrows="1" fold="1" page="1" pageScale="1" pageWidth="827" pageHeight="1169" math="0" shadow="0">
      <root>
        <mxCell id="BLmH8TWVsbN_YLnvG7D1-0" />
        <mxCell id="BLmH8TWVsbN_YLnvG7D1-1" parent="BLmH8TWVsbN_YLnvG7D1-0" />
        <mxCell id="1Jp02DaxmbaqC7CHffP8-33" style="edgeStyle=none;rounded=0;orthogonalLoop=1;jettySize=auto;html=1;fontSize=12;startSize=8;endSize=3;fillColor=#fff2cc;strokeColor=#d6b656;endArrow=circle;endFill=0;" parent="BLmH8TWVsbN_YLnvG7D1-1" source="BLmH8TWVsbN_YLnvG7D1-28" edge="1">
          <mxGeometry relative="1" as="geometry">
            <mxPoint x="-477" y="229" as="targetPoint" />
            <Array as="points">
              <mxPoint x="-378" y="201" />
              <mxPoint x="-477" y="201" />
            </Array>
          </mxGeometry>
        </mxCell>
        <mxCell id="1Jp02DaxmbaqC7CHffP8-29" style="rounded=0;orthogonalLoop=1;jettySize=auto;html=1;entryX=0.256;entryY=-0.02;entryDx=0;entryDy=0;entryPerimeter=0;fontSize=12;startSize=8;endSize=3;fillColor=#fff2cc;strokeColor=#d6b656;endArrow=circle;endFill=0;" parent="BLmH8TWVsbN_YLnvG7D1-1" source="BLmH8TWVsbN_YLnvG7D1-22" target="BLmH8TWVsbN_YLnvG7D1-36" edge="1">
          <mxGeometry relative="1" as="geometry">
            <Array as="points">
              <mxPoint x="-720" y="191" />
              <mxPoint x="-627" y="191" />
            </Array>
          </mxGeometry>
        </mxCell>
        <mxCell id="BLmH8TWVsbN_YLnvG7D1-19" value="" style="group;fontSize=16;" parent="BLmH8TWVsbN_YLnvG7D1-1" vertex="1" connectable="0">
          <mxGeometry x="-777.06" y="122" width="68.75" height="60" as="geometry" />
        </mxCell>
        <mxCell id="BLmH8TWVsbN_YLnvG7D1-20" value="" style="group;fontSize=16;" parent="BLmH8TWVsbN_YLnvG7D1-19" vertex="1" connectable="0">
          <mxGeometry y="13" width="52.5" height="50" as="geometry" />
        </mxCell>
        <mxCell id="BLmH8TWVsbN_YLnvG7D1-21" value="" style="group;fontSize=16;" parent="BLmH8TWVsbN_YLnvG7D1-20" vertex="1" connectable="0">
          <mxGeometry x="-3.75" width="56.25" height="48.75" as="geometry" />
        </mxCell>
        <object label="" markers="●" placeholders="1" id="BLmH8TWVsbN_YLnvG7D1-22">
          <mxCell style="ellipse;whiteSpace=wrap;html=1;aspect=fixed;fontSize=16;direction=south;perimeterSpacing=0;strokeWidth=1;dashed=1;dashPattern=8 8;points=[[0,0.5,0,0,0],[0.5,0,0,0,0],[0.5,1,0,0,0],[1,0.5,0,0,0]];" parent="BLmH8TWVsbN_YLnvG7D1-21" vertex="1">
            <mxGeometry y="6.25" width="42.5" height="42.5" as="geometry" />
          </mxCell>
        </object>
        <object label="" markers="●" placeholders="1" id="BLmH8TWVsbN_YLnvG7D1-23">
          <mxCell style="ellipse;whiteSpace=wrap;html=1;aspect=fixed;fontSize=16;direction=south;perimeterSpacing=0;strokeWidth=1;points=[];" parent="BLmH8TWVsbN_YLnvG7D1-21" vertex="1">
            <mxGeometry x="3.75" y="10" width="35" height="35" as="geometry" />
          </mxCell>
        </object>
        <mxCell id="BLmH8TWVsbN_YLnvG7D1-24" value="&lt;b style=&quot;font-size: 9px;&quot;&gt;input_W&lt;/b&gt;" style="text;html=1;strokeColor=none;fillColor=none;align=center;verticalAlign=middle;whiteSpace=wrap;rounded=0;fontSize=16;" parent="BLmH8TWVsbN_YLnvG7D1-21" vertex="1">
          <mxGeometry x="11.25" y="-11" width="20" height="10" as="geometry" />
        </mxCell>
        <mxCell id="BLmH8TWVsbN_YLnvG7D1-25" value="" style="group;fontSize=16;" parent="BLmH8TWVsbN_YLnvG7D1-1" vertex="1" connectable="0">
          <mxGeometry x="-360" y="135.91" width="68.75" height="60" as="geometry" />
        </mxCell>
        <mxCell id="BLmH8TWVsbN_YLnvG7D1-26" value="" style="group;fontSize=16;" parent="BLmH8TWVsbN_YLnvG7D1-25" vertex="1" connectable="0">
          <mxGeometry y="-2" width="52.5" height="50" as="geometry" />
        </mxCell>
        <mxCell id="BLmH8TWVsbN_YLnvG7D1-27" value="" style="group;fontSize=16;" parent="BLmH8TWVsbN_YLnvG7D1-26" vertex="1" connectable="0">
          <mxGeometry x="-3.75" width="56.25" height="48.75" as="geometry" />
        </mxCell>
        <object label="" markers="●" placeholders="1" id="BLmH8TWVsbN_YLnvG7D1-28">
          <mxCell style="ellipse;whiteSpace=wrap;html=1;aspect=fixed;fontSize=16;direction=south;perimeterSpacing=0;strokeWidth=1;dashed=1;dashPattern=8 8;points=[[0,0.5,0,0,0],[0.5,0,0,0,0],[0.5,1,0,0,0],[1,0.5,0,0,0]];" parent="BLmH8TWVsbN_YLnvG7D1-27" vertex="1">
            <mxGeometry y="6.25" width="42.5" height="42.5" as="geometry" />
          </mxCell>
        </object>
        <object label="" markers="●" placeholders="1" id="BLmH8TWVsbN_YLnvG7D1-29">
          <mxCell style="ellipse;whiteSpace=wrap;html=1;aspect=fixed;fontSize=16;direction=south;perimeterSpacing=0;strokeWidth=1;points=[];" parent="BLmH8TWVsbN_YLnvG7D1-27" vertex="1">
            <mxGeometry x="3.75" y="10" width="35" height="35" as="geometry" />
          </mxCell>
        </object>
        <mxCell id="BLmH8TWVsbN_YLnvG7D1-30" value="&lt;font size=&quot;1&quot;&gt;&lt;b style=&quot;font-size: 9px;&quot;&gt;input_E&lt;/b&gt;&lt;/font&gt;" style="text;html=1;strokeColor=none;fillColor=none;align=center;verticalAlign=middle;whiteSpace=wrap;rounded=0;fontSize=16;" parent="BLmH8TWVsbN_YLnvG7D1-27" vertex="1">
          <mxGeometry x="11.25" y="-8.75" width="20" height="10" as="geometry" />
        </mxCell>
        <mxCell id="BLmH8TWVsbN_YLnvG7D1-31" value="" style="group;fontSize=16;" parent="BLmH8TWVsbN_YLnvG7D1-1" vertex="1" connectable="0">
          <mxGeometry x="-784.0600000000001" y="218.00000000000006" width="70.91" height="21.830000000000013" as="geometry" />
        </mxCell>
        <mxCell id="BLmH8TWVsbN_YLnvG7D1-32" value="" style="group;points=[[0,0.5,0,0,0],[0.5,0,0,0,0],[0.5,1,0,0,0],[1,0.5,0,0,0]];fontSize=16;" parent="BLmH8TWVsbN_YLnvG7D1-31" vertex="1" connectable="0">
          <mxGeometry y="5.460000000000008" width="60" height="16.37" as="geometry" />
        </mxCell>
        <mxCell id="BLmH8TWVsbN_YLnvG7D1-33" value="" style="rounded=0;whiteSpace=wrap;html=1;fontSize=16;fillColor=#000000;points=[[0,0.5,0,0,0],[0.5,0,0,0,0],[0.5,1,0,0,0],[1,0.5,0,0,0]];" parent="BLmH8TWVsbN_YLnvG7D1-32" vertex="1">
          <mxGeometry y="5.456666666666667" width="49.09090909090909" height="10.913333333333334" as="geometry" />
        </mxCell>
        <mxCell id="BLmH8TWVsbN_YLnvG7D1-34" value="" style="group;fontSize=16;" parent="BLmH8TWVsbN_YLnvG7D1-1" vertex="1" connectable="0">
          <mxGeometry x="-640" y="217.91000000000005" width="70.91" height="21.830000000000013" as="geometry" />
        </mxCell>
        <mxCell id="BLmH8TWVsbN_YLnvG7D1-35" value="" style="group;points=[[0,0.5,0,0,0],[0.5,0,0,0,0],[0.5,1,0,0,0],[1,0.5,0,0,0]];fontSize=16;" parent="BLmH8TWVsbN_YLnvG7D1-34" vertex="1" connectable="0">
          <mxGeometry y="5.460000000000008" width="60" height="16.37" as="geometry" />
        </mxCell>
        <mxCell id="BLmH8TWVsbN_YLnvG7D1-36" value="" style="rounded=0;whiteSpace=wrap;html=1;fontSize=16;fillColor=#000000;points=[[0,0.5,0,0,0],[0.5,0,0,0,0],[0.5,1,0,0,0],[1,0.5,0,0,0]];" parent="BLmH8TWVsbN_YLnvG7D1-35" vertex="1">
          <mxGeometry y="5.456666666666667" width="49.09090909090909" height="10.913333333333334" as="geometry" />
        </mxCell>
        <mxCell id="BLmH8TWVsbN_YLnvG7D1-37" value="&lt;b style=&quot;font-size: 9px;&quot;&gt;skip_W&lt;/b&gt;" style="text;html=1;strokeColor=none;fillColor=none;align=center;verticalAlign=middle;whiteSpace=wrap;rounded=0;fontSize=16;" parent="BLmH8TWVsbN_YLnvG7D1-34" vertex="1">
          <mxGeometry x="60.00090909090909" width="10.90909090909091" height="5.456666666666667" as="geometry" />
        </mxCell>
        <mxCell id="BLmH8TWVsbN_YLnvG7D1-41" value="" style="group;fontSize=16;" parent="BLmH8TWVsbN_YLnvG7D1-1" vertex="1" connectable="0">
          <mxGeometry x="-367.00000000000006" y="217.91000000000005" width="70.91" height="21.830000000000013" as="geometry" />
        </mxCell>
        <mxCell id="BLmH8TWVsbN_YLnvG7D1-42" value="" style="group;points=[[0,0.5,0,0,0],[0.5,0,0,0,0],[0.5,1,0,0,0],[1,0.5,0,0,0]];fontSize=16;" parent="BLmH8TWVsbN_YLnvG7D1-41" vertex="1" connectable="0">
          <mxGeometry y="5.460000000000008" width="60" height="16.37" as="geometry" />
        </mxCell>
        <mxCell id="BLmH8TWVsbN_YLnvG7D1-43" value="" style="rounded=0;whiteSpace=wrap;html=1;fontSize=16;fillColor=#000000;points=[[0,0.5,0,0,0],[0.5,0,0,0,0],[0.5,1,0,0,0],[1,0.5,0,0,0]];" parent="BLmH8TWVsbN_YLnvG7D1-42" vertex="1">
          <mxGeometry y="5.456666666666667" width="49.09090909090909" height="10.913333333333334" as="geometry" />
        </mxCell>
        <mxCell id="BLmH8TWVsbN_YLnvG7D1-44" value="&lt;b style=&quot;font-size: 9px;&quot;&gt;enter_E&lt;/b&gt;" style="text;html=1;strokeColor=none;fillColor=none;align=center;verticalAlign=middle;whiteSpace=wrap;rounded=0;fontSize=16;" parent="BLmH8TWVsbN_YLnvG7D1-41" vertex="1">
          <mxGeometry x="57.00090909090909" y="-1" width="10.90909090909091" height="5.456666666666667" as="geometry" />
        </mxCell>
        <mxCell id="BLmH8TWVsbN_YLnvG7D1-45" style="edgeStyle=none;curved=1;rounded=0;orthogonalLoop=1;jettySize=auto;html=1;exitX=1;exitY=0.5;exitDx=0;exitDy=0;exitPerimeter=0;entryX=0.5;entryY=0;entryDx=0;entryDy=0;entryPerimeter=0;fontSize=12;startSize=8;endSize=8;" parent="BLmH8TWVsbN_YLnvG7D1-1" source="BLmH8TWVsbN_YLnvG7D1-22" target="BLmH8TWVsbN_YLnvG7D1-33" edge="1">
          <mxGeometry relative="1" as="geometry" />
        </mxCell>
        <mxCell id="BLmH8TWVsbN_YLnvG7D1-48" style="edgeStyle=none;curved=1;rounded=0;orthogonalLoop=1;jettySize=auto;html=1;exitX=1;exitY=0.5;exitDx=0;exitDy=0;exitPerimeter=0;entryX=0.5;entryY=0;entryDx=0;entryDy=0;entryPerimeter=0;fontSize=12;startSize=8;endSize=8;" parent="BLmH8TWVsbN_YLnvG7D1-1" source="BLmH8TWVsbN_YLnvG7D1-28" target="BLmH8TWVsbN_YLnvG7D1-43" edge="1">
          <mxGeometry relative="1" as="geometry" />
        </mxCell>
        <mxCell id="BLmH8TWVsbN_YLnvG7D1-69" value="&lt;b style=&quot;font-size: 9px;&quot;&gt;enter_W&lt;/b&gt;" style="text;html=1;strokeColor=none;fillColor=none;align=center;verticalAlign=middle;whiteSpace=wrap;rounded=0;fontSize=16;" parent="BLmH8TWVsbN_YLnvG7D1-1" vertex="1">
          <mxGeometry x="-803.059090909091" y="216.00000000000006" width="10.90909090909091" height="5.456666666666667" as="geometry" />
        </mxCell>
        <mxCell id="BLmH8TWVsbN_YLnvG7D1-78" value="" style="group" parent="BLmH8TWVsbN_YLnvG7D1-1" vertex="1" connectable="0">
          <mxGeometry x="-779.06" y="297" width="68.75" height="70" as="geometry" />
        </mxCell>
        <mxCell id="BLmH8TWVsbN_YLnvG7D1-79" value="" style="group;fontSize=16;" parent="BLmH8TWVsbN_YLnvG7D1-78" vertex="1" connectable="0">
          <mxGeometry width="68.75" height="60" as="geometry" />
        </mxCell>
        <mxCell id="BLmH8TWVsbN_YLnvG7D1-80" value="" style="group;fontSize=16;" parent="BLmH8TWVsbN_YLnvG7D1-79" vertex="1" connectable="0">
          <mxGeometry y="13" width="52.5" height="50" as="geometry" />
        </mxCell>
        <mxCell id="BLmH8TWVsbN_YLnvG7D1-81" value="" style="group;fontSize=16;" parent="BLmH8TWVsbN_YLnvG7D1-80" vertex="1" connectable="0">
          <mxGeometry x="-3.75" width="56.25" height="48.75" as="geometry" />
        </mxCell>
        <object label="" markers="●" placeholders="1" id="BLmH8TWVsbN_YLnvG7D1-82">
          <mxCell style="ellipse;whiteSpace=wrap;html=1;aspect=fixed;fontSize=16;direction=south;perimeterSpacing=0;strokeWidth=1;dashed=1;dashPattern=8 8;points=[[0,0.5,0,0,0],[0.5,0,0,0,0],[0.5,1,0,0,0],[1,0.5,0,0,0]];" parent="BLmH8TWVsbN_YLnvG7D1-81" vertex="1">
            <mxGeometry y="6.25" width="42.5" height="42.5" as="geometry" />
          </mxCell>
        </object>
        <object label="" markers="●" placeholders="1" id="BLmH8TWVsbN_YLnvG7D1-83">
          <mxCell style="ellipse;whiteSpace=wrap;html=1;aspect=fixed;fontSize=16;direction=south;perimeterSpacing=0;strokeWidth=1;points=[];" parent="BLmH8TWVsbN_YLnvG7D1-81" vertex="1">
            <mxGeometry x="3.75" y="10" width="35" height="35" as="geometry" />
          </mxCell>
        </object>
        <mxCell id="BLmH8TWVsbN_YLnvG7D1-84" value="&lt;b style=&quot;font-size: 9px;&quot;&gt;core_W&lt;/b&gt;" style="text;html=1;strokeColor=none;fillColor=none;align=center;verticalAlign=middle;whiteSpace=wrap;rounded=0;fontSize=16;" parent="BLmH8TWVsbN_YLnvG7D1-78" vertex="1">
          <mxGeometry x="7.5" y="60" width="20" height="10" as="geometry" />
        </mxCell>
        <mxCell id="BLmH8TWVsbN_YLnvG7D1-85" value="" style="group" parent="BLmH8TWVsbN_YLnvG7D1-1" vertex="1" connectable="0">
          <mxGeometry x="-363" y="297.90999999999997" width="68.75" height="70" as="geometry" />
        </mxCell>
        <mxCell id="BLmH8TWVsbN_YLnvG7D1-86" value="" style="group;fontSize=16;" parent="BLmH8TWVsbN_YLnvG7D1-85" vertex="1" connectable="0">
          <mxGeometry width="68.75" height="60" as="geometry" />
        </mxCell>
        <mxCell id="BLmH8TWVsbN_YLnvG7D1-87" value="" style="group;fontSize=16;" parent="BLmH8TWVsbN_YLnvG7D1-86" vertex="1" connectable="0">
          <mxGeometry y="13" width="52.5" height="50" as="geometry" />
        </mxCell>
        <mxCell id="BLmH8TWVsbN_YLnvG7D1-88" value="" style="group;fontSize=16;" parent="BLmH8TWVsbN_YLnvG7D1-87" vertex="1" connectable="0">
          <mxGeometry x="-3.75" width="56.25" height="48.75" as="geometry" />
        </mxCell>
        <object label="" markers="●" placeholders="1" id="BLmH8TWVsbN_YLnvG7D1-89">
          <mxCell style="ellipse;whiteSpace=wrap;html=1;aspect=fixed;fontSize=16;direction=south;perimeterSpacing=0;strokeWidth=1;dashed=1;dashPattern=8 8;points=[[0,0.5,0,0,0],[0.5,0,0,0,0],[0.5,1,0,0,0],[1,0.5,0,0,0]];" parent="BLmH8TWVsbN_YLnvG7D1-88" vertex="1">
            <mxGeometry y="6.25" width="42.5" height="42.5" as="geometry" />
          </mxCell>
        </object>
        <object label="" markers="●" placeholders="1" id="BLmH8TWVsbN_YLnvG7D1-90">
          <mxCell style="ellipse;whiteSpace=wrap;html=1;aspect=fixed;fontSize=16;direction=south;perimeterSpacing=0;strokeWidth=1;points=[];" parent="BLmH8TWVsbN_YLnvG7D1-88" vertex="1">
            <mxGeometry x="3.75" y="10" width="35" height="35" as="geometry" />
          </mxCell>
        </object>
        <mxCell id="BLmH8TWVsbN_YLnvG7D1-91" value="&lt;font size=&quot;1&quot;&gt;&lt;b style=&quot;font-size: 9px;&quot;&gt;core_E&lt;/b&gt;&lt;/font&gt;" style="text;html=1;strokeColor=none;fillColor=none;align=center;verticalAlign=middle;whiteSpace=wrap;rounded=0;fontSize=16;" parent="BLmH8TWVsbN_YLnvG7D1-85" vertex="1">
          <mxGeometry x="7.5" y="60" width="20" height="10" as="geometry" />
        </mxCell>
        <mxCell id="BLmH8TWVsbN_YLnvG7D1-92" style="edgeStyle=none;curved=1;rounded=0;orthogonalLoop=1;jettySize=auto;html=1;entryX=-0.011;entryY=0.425;entryDx=0;entryDy=0;entryPerimeter=0;fontSize=12;startSize=8;endSize=8;" parent="BLmH8TWVsbN_YLnvG7D1-1" source="BLmH8TWVsbN_YLnvG7D1-43" target="BLmH8TWVsbN_YLnvG7D1-89" edge="1">
          <mxGeometry relative="1" as="geometry" />
        </mxCell>
        <mxCell id="BLmH8TWVsbN_YLnvG7D1-93" style="edgeStyle=none;curved=1;rounded=0;orthogonalLoop=1;jettySize=auto;html=1;entryX=-0.011;entryY=0.464;entryDx=0;entryDy=0;entryPerimeter=0;fontSize=12;startSize=8;endSize=8;" parent="BLmH8TWVsbN_YLnvG7D1-1" source="BLmH8TWVsbN_YLnvG7D1-33" target="BLmH8TWVsbN_YLnvG7D1-82" edge="1">
          <mxGeometry relative="1" as="geometry" />
        </mxCell>
        <mxCell id="BLmH8TWVsbN_YLnvG7D1-94" style="edgeStyle=orthogonalEdgeStyle;rounded=0;orthogonalLoop=1;jettySize=auto;html=1;entryX=0;entryY=0.5;entryDx=0;entryDy=0;entryPerimeter=0;fontSize=12;startSize=3;endSize=3;exitX=0.5;exitY=1;exitDx=0;exitDy=0;exitPerimeter=0;endArrow=circle;endFill=0;fillColor=#fff2cc;strokeColor=#d6b656;" parent="BLmH8TWVsbN_YLnvG7D1-1" source="BLmH8TWVsbN_YLnvG7D1-82" target="BLmH8TWVsbN_YLnvG7D1-33" edge="1">
          <mxGeometry relative="1" as="geometry">
            <Array as="points">
              <mxPoint x="-810" y="338" />
              <mxPoint x="-810" y="234" />
            </Array>
          </mxGeometry>
        </mxCell>
        <mxCell id="BLmH8TWVsbN_YLnvG7D1-95" style="edgeStyle=orthogonalEdgeStyle;rounded=0;orthogonalLoop=1;jettySize=auto;html=1;exitX=0.5;exitY=0;exitDx=0;exitDy=0;exitPerimeter=0;entryX=1;entryY=0.5;entryDx=0;entryDy=0;entryPerimeter=0;fontSize=12;startSize=3;endSize=3;endArrow=circle;endFill=0;fillColor=#fff2cc;strokeColor=#d6b656;" parent="BLmH8TWVsbN_YLnvG7D1-1" source="BLmH8TWVsbN_YLnvG7D1-89" target="BLmH8TWVsbN_YLnvG7D1-43" edge="1">
          <mxGeometry relative="1" as="geometry">
            <Array as="points">
              <mxPoint x="-294" y="338" />
              <mxPoint x="-294" y="234" />
            </Array>
          </mxGeometry>
        </mxCell>
        <mxCell id="1Jp02DaxmbaqC7CHffP8-4" value="" style="group;fontSize=16;" parent="BLmH8TWVsbN_YLnvG7D1-1" vertex="1" connectable="0">
          <mxGeometry x="-714" y="218.00000000000006" width="70.91" height="21.830000000000013" as="geometry" />
        </mxCell>
        <mxCell id="1Jp02DaxmbaqC7CHffP8-5" value="" style="group;points=[[0,0.5,0,0,0],[0.5,0,0,0,0],[0.5,1,0,0,0],[1,0.5,0,0,0]];fontSize=16;" parent="1Jp02DaxmbaqC7CHffP8-4" vertex="1" connectable="0">
          <mxGeometry y="5.460000000000008" width="60" height="16.37" as="geometry" />
        </mxCell>
        <mxCell id="1Jp02DaxmbaqC7CHffP8-6" value="" style="rounded=0;whiteSpace=wrap;html=1;fontSize=16;fillColor=#000000;points=[[0,0.5,0,0,0],[0.5,0,0,0,0],[0.5,1,0,0,0],[1,0.5,0,0,0]];" parent="1Jp02DaxmbaqC7CHffP8-5" vertex="1">
          <mxGeometry y="5.456666666666667" width="49.09090909090909" height="10.913333333333334" as="geometry" />
        </mxCell>
        <mxCell id="1Jp02DaxmbaqC7CHffP8-7" value="&lt;b style=&quot;font-size: 9px;&quot;&gt;stall_W&lt;/b&gt;" style="text;html=1;strokeColor=none;fillColor=none;align=center;verticalAlign=middle;whiteSpace=wrap;rounded=0;fontSize=16;" parent="1Jp02DaxmbaqC7CHffP8-4" vertex="1">
          <mxGeometry x="42.00090909090909" y="-2.0000000000000036" width="10.90909090909091" height="5.456666666666667" as="geometry" />
        </mxCell>
        <mxCell id="1Jp02DaxmbaqC7CHffP8-10" style="edgeStyle=none;rounded=0;orthogonalLoop=1;jettySize=auto;html=1;fontSize=12;startSize=8;endSize=8;jumpStyle=line;startArrow=classic;startFill=1;dashed=1;entryX=0.5;entryY=1;entryDx=0;entryDy=0;entryPerimeter=0;" parent="BLmH8TWVsbN_YLnvG7D1-1" source="BLmH8TWVsbN_YLnvG7D1-82" edge="1" target="1Jp02DaxmbaqC7CHffP8-6">
          <mxGeometry relative="1" as="geometry">
            <mxPoint x="-700" y="240" as="targetPoint" />
            <Array as="points">
              <mxPoint x="-690" y="338" />
            </Array>
          </mxGeometry>
        </mxCell>
        <mxCell id="1Jp02DaxmbaqC7CHffP8-20" value="" style="group" parent="BLmH8TWVsbN_YLnvG7D1-1" vertex="1" connectable="0">
          <mxGeometry x="-537.9990909090909" y="218.91000000000005" width="69.08999999999997" height="20.830000000000013" as="geometry" />
        </mxCell>
        <mxCell id="BLmH8TWVsbN_YLnvG7D1-68" value="&lt;b style=&quot;font-size: 9px;&quot;&gt;skip_E&lt;/b&gt;" style="text;html=1;strokeColor=none;fillColor=none;align=center;verticalAlign=middle;whiteSpace=wrap;rounded=0;fontSize=16;" parent="1Jp02DaxmbaqC7CHffP8-20" vertex="1">
          <mxGeometry y="-1" width="10.90909090909091" height="5.456666666666667" as="geometry" />
        </mxCell>
        <mxCell id="BLmH8TWVsbN_YLnvG7D1-40" value="" style="rounded=0;whiteSpace=wrap;html=1;fontSize=16;fillColor=#000000;points=[[0,0.5,0,0,0],[0.5,0,0,0,0],[0.5,1,0,0,0],[1,0.5,0,0,0]];" parent="1Jp02DaxmbaqC7CHffP8-20" vertex="1">
          <mxGeometry x="19.99909090909091" y="9.916666666666686" width="49.09090909090909" height="10.913333333333334" as="geometry" />
        </mxCell>
        <mxCell id="1Jp02DaxmbaqC7CHffP8-24" value="" style="group" parent="BLmH8TWVsbN_YLnvG7D1-1" vertex="1" connectable="0">
          <mxGeometry x="-463.99909090909097" y="219.00000000000006" width="69.08999999999997" height="20.830000000000013" as="geometry" />
        </mxCell>
        <mxCell id="1Jp02DaxmbaqC7CHffP8-25" value="&lt;b style=&quot;font-size: 9px;&quot;&gt;stall_E&lt;/b&gt;" style="text;html=1;strokeColor=none;fillColor=none;align=center;verticalAlign=middle;whiteSpace=wrap;rounded=0;fontSize=16;" parent="1Jp02DaxmbaqC7CHffP8-24" vertex="1">
          <mxGeometry x="16" y="-2" width="10.90909090909091" height="5.456666666666667" as="geometry" />
        </mxCell>
        <mxCell id="1Jp02DaxmbaqC7CHffP8-26" value="" style="rounded=0;whiteSpace=wrap;html=1;fontSize=16;fillColor=#000000;points=[[0,0.5,0,0,0],[0.5,0,0,0,0],[0.5,1,0,0,0],[1,0.5,0,0,0]];" parent="1Jp02DaxmbaqC7CHffP8-24" vertex="1">
          <mxGeometry x="19.99909090909091" y="9.916666666666686" width="49.09090909090909" height="10.913333333333334" as="geometry" />
        </mxCell>
        <mxCell id="1Jp02DaxmbaqC7CHffP8-31" style="edgeStyle=none;rounded=0;orthogonalLoop=1;jettySize=auto;html=1;exitX=0.5;exitY=1;exitDx=0;exitDy=0;exitPerimeter=0;fontSize=12;startSize=8;endSize=8;startArrow=classic;startFill=1;dashed=1;jumpStyle=line;entryX=0.5;entryY=1;entryDx=0;entryDy=0;entryPerimeter=0;" parent="BLmH8TWVsbN_YLnvG7D1-1" source="BLmH8TWVsbN_YLnvG7D1-89" edge="1" target="1Jp02DaxmbaqC7CHffP8-26">
          <mxGeometry relative="1" as="geometry">
            <mxPoint x="-408" y="240" as="targetPoint" />
            <Array as="points">
              <mxPoint x="-420" y="338" />
            </Array>
          </mxGeometry>
        </mxCell>
        <mxCell id="1Jp02DaxmbaqC7CHffP8-14" style="edgeStyle=none;rounded=0;orthogonalLoop=1;jettySize=auto;html=1;entryX=0.5;entryY=0;entryDx=0;entryDy=0;entryPerimeter=0;fontSize=12;startSize=8;endSize=8;startArrow=classic;startFill=1;exitX=0.5;exitY=0;exitDx=0;exitDy=0;exitPerimeter=0;jumpStyle=line;dashed=1;" parent="BLmH8TWVsbN_YLnvG7D1-1" source="BLmH8TWVsbN_YLnvG7D1-22" target="1Jp02DaxmbaqC7CHffP8-6" edge="1">
          <mxGeometry relative="1" as="geometry">
            <Array as="points">
              <mxPoint x="-690" y="163" />
            </Array>
          </mxGeometry>
        </mxCell>
        <mxCell id="1Jp02DaxmbaqC7CHffP8-32" style="rounded=0;orthogonalLoop=1;jettySize=auto;html=1;exitX=0.5;exitY=1;exitDx=0;exitDy=0;exitPerimeter=0;entryX=0.5;entryY=0;entryDx=0;entryDy=0;entryPerimeter=0;fontSize=12;startSize=8;endSize=8;edgeStyle=orthogonalEdgeStyle;jumpStyle=line;dashed=1;startArrow=classic;startFill=1;" parent="BLmH8TWVsbN_YLnvG7D1-1" source="BLmH8TWVsbN_YLnvG7D1-28" target="1Jp02DaxmbaqC7CHffP8-26" edge="1">
          <mxGeometry relative="1" as="geometry" />
        </mxCell>
      </root>
    </mxGraphModel>
  </diagram>
  <diagram id="t9hz9UERbOrSIitpHnG3" name="core">
    <mxGraphModel dx="2828" dy="491" grid="1" gridSize="10" guides="1" tooltips="1" connect="1" arrows="1" fold="1" page="1" pageScale="1" pageWidth="827" pageHeight="1169" math="0" shadow="0">
      <root>
        <mxCell id="0" />
        <mxCell id="1" parent="0" />
        <mxCell id="8Joogp2kNSr6ya6-F_BD-6" value="" style="group;fontSize=16;" vertex="1" connectable="0" parent="1">
          <mxGeometry x="-1280" y="150" width="58.75" height="52.5" as="geometry" />
        </mxCell>
        <object label="" markers="●" placeholders="1" id="8Joogp2kNSr6ya6-F_BD-7">
          <mxCell style="ellipse;whiteSpace=wrap;html=1;aspect=fixed;fontSize=16;direction=south;perimeterSpacing=0;strokeWidth=1;points=[];container=0;" vertex="1" parent="8Joogp2kNSr6ya6-F_BD-6">
            <mxGeometry x="3.75" y="13.75" width="35" height="35" as="geometry" />
          </mxCell>
        </object>
        <object label="" markers="●" placeholders="1" id="8Joogp2kNSr6ya6-F_BD-8">
          <mxCell style="ellipse;whiteSpace=wrap;html=1;aspect=fixed;fontSize=16;direction=south;perimeterSpacing=0;strokeWidth=1;dashed=1;dashPattern=8 8;points=[[0,0.5,0,0,0],[0.5,0,0,0,0],[0.5,1,0,0,0],[1,0.5,0,0,0]];container=0;fillColor=none;" vertex="1" parent="8Joogp2kNSr6ya6-F_BD-6">
            <mxGeometry y="10" width="42.5" height="42.5" as="geometry" />
          </mxCell>
        </object>
        <mxCell id="8Joogp2kNSr6ya6-F_BD-10" value="" style="group;fontSize=16;" vertex="1" connectable="0" parent="1">
          <mxGeometry x="-1280" y="465" width="58.75" height="52.5" as="geometry" />
        </mxCell>
        <object label="" markers="●" placeholders="1" id="8Joogp2kNSr6ya6-F_BD-11">
          <mxCell style="ellipse;whiteSpace=wrap;html=1;aspect=fixed;fontSize=16;direction=south;perimeterSpacing=0;strokeWidth=1;points=[];container=0;" vertex="1" parent="8Joogp2kNSr6ya6-F_BD-10">
            <mxGeometry x="3.75" y="13.75" width="35" height="35" as="geometry" />
          </mxCell>
        </object>
        <object label="" markers="●" placeholders="1" id="8Joogp2kNSr6ya6-F_BD-12">
          <mxCell style="ellipse;whiteSpace=wrap;html=1;aspect=fixed;fontSize=16;direction=south;perimeterSpacing=0;strokeWidth=1;dashed=1;dashPattern=8 8;points=[[0,0.5,0,0,0],[0.5,0,0,0,0],[0.5,1,0,0,0],[1,0.5,0,0,0]];container=0;fillColor=none;" vertex="1" parent="8Joogp2kNSr6ya6-F_BD-10">
            <mxGeometry y="10" width="42.5" height="42.5" as="geometry" />
          </mxCell>
        </object>
        <mxCell id="8Joogp2kNSr6ya6-F_BD-14" value="" style="group;fontSize=16;" vertex="1" connectable="0" parent="1">
          <mxGeometry x="-1120" y="310" width="58.75" height="52.5" as="geometry" />
        </mxCell>
        <object label="" markers="●" placeholders="1" id="8Joogp2kNSr6ya6-F_BD-15">
          <mxCell style="ellipse;whiteSpace=wrap;html=1;aspect=fixed;fontSize=16;direction=south;perimeterSpacing=0;strokeWidth=1;points=[];container=0;" vertex="1" parent="8Joogp2kNSr6ya6-F_BD-14">
            <mxGeometry x="3.75" y="13.75" width="35" height="35" as="geometry" />
          </mxCell>
        </object>
        <object label="" markers="●" placeholders="1" id="8Joogp2kNSr6ya6-F_BD-16">
          <mxCell style="ellipse;whiteSpace=wrap;html=1;aspect=fixed;fontSize=16;direction=south;perimeterSpacing=0;strokeWidth=1;dashed=1;dashPattern=8 8;points=[[0,0.5,0,0,0],[0.5,0,0,0,0],[0.5,1,0,0,0],[1,0.5,0,0,0]];container=0;fillColor=none;" vertex="1" parent="8Joogp2kNSr6ya6-F_BD-14">
            <mxGeometry y="10" width="42.5" height="42.5" as="geometry" />
          </mxCell>
        </object>
        <mxCell id="8Joogp2kNSr6ya6-F_BD-18" value="" style="group;fontSize=16;" vertex="1" connectable="0" parent="1">
          <mxGeometry x="-1440" y="310" width="58.75" height="52.5" as="geometry" />
        </mxCell>
        <object label="" markers="●" placeholders="1" id="8Joogp2kNSr6ya6-F_BD-19">
          <mxCell style="ellipse;whiteSpace=wrap;html=1;aspect=fixed;fontSize=16;direction=south;perimeterSpacing=0;strokeWidth=1;points=[];container=0;" vertex="1" parent="8Joogp2kNSr6ya6-F_BD-18">
            <mxGeometry x="3.75" y="13.75" width="35" height="35" as="geometry" />
          </mxCell>
        </object>
        <object label="" markers="●" placeholders="1" id="8Joogp2kNSr6ya6-F_BD-20">
          <mxCell style="ellipse;whiteSpace=wrap;html=1;aspect=fixed;fontSize=16;direction=south;perimeterSpacing=0;strokeWidth=1;dashed=1;dashPattern=8 8;points=[[0,0.5,0,0,0],[0.5,0,0,0,0],[0.5,1,0,0,0],[1,0.5,0,0,0]];container=0;fillColor=none;" vertex="1" parent="8Joogp2kNSr6ya6-F_BD-18">
            <mxGeometry y="10" width="42.5" height="42.5" as="geometry" />
          </mxCell>
        </object>
        <mxCell id="8Joogp2kNSr6ya6-F_BD-35" style="edgeStyle=none;curved=1;rounded=0;orthogonalLoop=1;jettySize=auto;html=1;exitX=0.179;exitY=0.087;exitDx=0;exitDy=0;exitPerimeter=0;entryX=0.5;entryY=1;entryDx=0;entryDy=0;entryPerimeter=0;fontSize=12;startSize=8;endSize=8;" edge="1" parent="1" source="8Joogp2kNSr6ya6-F_BD-12" target="8Joogp2kNSr6ya6-F_BD-24">
          <mxGeometry relative="1" as="geometry" />
        </mxCell>
        <mxCell id="8Joogp2kNSr6ya6-F_BD-36" style="edgeStyle=none;curved=1;rounded=0;orthogonalLoop=1;jettySize=auto;html=1;exitX=0.5;exitY=0;exitDx=0;exitDy=0;exitPerimeter=0;entryX=0.822;entryY=0.897;entryDx=0;entryDy=0;entryPerimeter=0;fontSize=12;startSize=8;endSize=8;" edge="1" parent="1" source="8Joogp2kNSr6ya6-F_BD-24" target="8Joogp2kNSr6ya6-F_BD-16">
          <mxGeometry relative="1" as="geometry" />
        </mxCell>
        <mxCell id="8Joogp2kNSr6ya6-F_BD-13" value="&lt;b style=&quot;font-size: 9px;&quot;&gt;core_S&lt;/b&gt;" style="text;html=1;strokeColor=none;fillColor=none;align=center;verticalAlign=middle;whiteSpace=wrap;rounded=0;fontSize=16;points=[];container=0;" vertex="1" parent="1">
          <mxGeometry x="-1268.75" y="517.5" width="20" height="10" as="geometry" />
        </mxCell>
        <mxCell id="8Joogp2kNSr6ya6-F_BD-17" value="&lt;b style=&quot;font-size: 9px;&quot;&gt;core_E&lt;/b&gt;" style="text;html=1;strokeColor=none;fillColor=none;align=center;verticalAlign=middle;whiteSpace=wrap;rounded=0;fontSize=16;points=[];container=0;" vertex="1" parent="1">
          <mxGeometry x="-1070" y="331.25" width="20" height="10" as="geometry" />
        </mxCell>
        <mxCell id="8Joogp2kNSr6ya6-F_BD-21" value="&lt;b style=&quot;font-size: 9px;&quot;&gt;core_W&lt;/b&gt;" style="text;html=1;strokeColor=none;fillColor=none;align=center;verticalAlign=middle;whiteSpace=wrap;rounded=0;fontSize=16;points=[];container=0;" vertex="1" parent="1">
          <mxGeometry x="-1470" y="336.25" width="20" height="10" as="geometry" />
        </mxCell>
        <mxCell id="8Joogp2kNSr6ya6-F_BD-9" value="&lt;b style=&quot;font-size: 9px;&quot;&gt;core_N&lt;/b&gt;" style="text;html=1;strokeColor=none;fillColor=none;align=center;verticalAlign=middle;whiteSpace=wrap;rounded=0;fontSize=16;points=[];container=0;" vertex="1" parent="1">
          <mxGeometry x="-1268.75" y="140" width="20" height="10" as="geometry" />
        </mxCell>
        <mxCell id="8Joogp2kNSr6ya6-F_BD-39" value="" style="group" vertex="1" connectable="0" parent="1">
          <mxGeometry x="-1200.999248813617" y="398.9986299742617" width="51.489248813616996" height="45.38803669240491" as="geometry" />
        </mxCell>
        <mxCell id="8Joogp2kNSr6ya6-F_BD-24" value="" style="rounded=0;whiteSpace=wrap;html=1;fontSize=16;fillColor=#000000;points=[[0,0.5,0,0,0],[0.5,0,0,0,0],[0.5,1,0,0,0],[1,0.5,0,0,0]];rotation=45;container=0;" vertex="1" parent="8Joogp2kNSr6ya6-F_BD-39">
          <mxGeometry x="-3.3307511863829404" y="15.758036692404971" width="49.09090909090909" height="10.913333333333334" as="geometry" />
        </mxCell>
        <mxCell id="8Joogp2kNSr6ya6-F_BD-40" value="" style="group" vertex="1" connectable="0" parent="1">
          <mxGeometry x="-1361.999248813617" y="238.9986299742617" width="51.489248813616996" height="45.38803669240491" as="geometry" />
        </mxCell>
        <mxCell id="8Joogp2kNSr6ya6-F_BD-42" value="" style="rounded=0;whiteSpace=wrap;html=1;fontSize=16;fillColor=#000000;points=[[0,0.5,0,0,0],[0.5,0,0,0,0],[0.5,1,0,0,0],[1,0.5,0,0,0]];rotation=45;container=0;" vertex="1" parent="8Joogp2kNSr6ya6-F_BD-40">
          <mxGeometry x="-3.3307511863829404" y="15.758036692404971" width="49.09090909090909" height="10.913333333333334" as="geometry" />
        </mxCell>
        <mxCell id="8Joogp2kNSr6ya6-F_BD-43" style="edgeStyle=none;curved=1;rounded=0;orthogonalLoop=1;jettySize=auto;html=1;entryX=0.5;entryY=0;entryDx=0;entryDy=0;entryPerimeter=0;fontSize=12;startSize=8;endSize=8;" edge="1" parent="1" source="8Joogp2kNSr6ya6-F_BD-8" target="8Joogp2kNSr6ya6-F_BD-42">
          <mxGeometry relative="1" as="geometry" />
        </mxCell>
        <mxCell id="8Joogp2kNSr6ya6-F_BD-44" style="edgeStyle=none;curved=1;rounded=0;orthogonalLoop=1;jettySize=auto;html=1;exitX=0.5;exitY=1;exitDx=0;exitDy=0;exitPerimeter=0;entryX=0.133;entryY=0.137;entryDx=0;entryDy=0;entryPerimeter=0;fontSize=12;startSize=8;endSize=8;" edge="1" parent="1" source="8Joogp2kNSr6ya6-F_BD-42" target="8Joogp2kNSr6ya6-F_BD-20">
          <mxGeometry relative="1" as="geometry" />
        </mxCell>
        <mxCell id="8Joogp2kNSr6ya6-F_BD-41" value="&lt;b style=&quot;font-size: 9px;&quot;&gt;move_N&lt;/b&gt;" style="text;html=1;strokeColor=none;fillColor=none;align=center;verticalAlign=middle;whiteSpace=wrap;rounded=0;fontSize=16;points=[];container=0;" vertex="1" parent="1">
          <mxGeometry x="-1333.999090909091" y="285.99999999999994" width="10.90909090909091" height="5.456666666666667" as="geometry" />
        </mxCell>
        <mxCell id="8Joogp2kNSr6ya6-F_BD-45" style="edgeStyle=none;rounded=0;orthogonalLoop=1;jettySize=auto;html=1;entryX=0.963;entryY=0.092;entryDx=0;entryDy=0;entryPerimeter=0;fontSize=12;startSize=8;endSize=3;fillColor=#fff2cc;strokeColor=#d6b656;endArrow=circle;endFill=0;" edge="1" parent="1" source="8Joogp2kNSr6ya6-F_BD-16" target="8Joogp2kNSr6ya6-F_BD-24">
          <mxGeometry relative="1" as="geometry">
            <Array as="points">
              <mxPoint x="-1080" y="370" />
            </Array>
          </mxGeometry>
        </mxCell>
        <mxCell id="8Joogp2kNSr6ya6-F_BD-46" style="edgeStyle=none;rounded=0;orthogonalLoop=1;jettySize=auto;html=1;entryX=-0.001;entryY=1.04;entryDx=0;entryDy=0;entryPerimeter=0;fontSize=12;startSize=8;endSize=3;fillColor=#fff2cc;strokeColor=#d6b656;endArrow=circle;endFill=0;" edge="1" parent="1" source="8Joogp2kNSr6ya6-F_BD-20" target="8Joogp2kNSr6ya6-F_BD-42">
          <mxGeometry relative="1" as="geometry">
            <Array as="points">
              <mxPoint x="-1440" y="310" />
            </Array>
          </mxGeometry>
        </mxCell>
        <mxCell id="8Joogp2kNSr6ya6-F_BD-53" style="edgeStyle=none;curved=1;rounded=0;orthogonalLoop=1;jettySize=auto;html=1;entryX=0.5;entryY=0;entryDx=0;entryDy=0;entryPerimeter=0;fontSize=12;startSize=8;endSize=8;" edge="1" parent="1" source="8Joogp2kNSr6ya6-F_BD-20" target="8Joogp2kNSr6ya6-F_BD-51">
          <mxGeometry relative="1" as="geometry" />
        </mxCell>
        <mxCell id="8Joogp2kNSr6ya6-F_BD-54" style="edgeStyle=none;curved=1;rounded=0;orthogonalLoop=1;jettySize=auto;html=1;exitX=0.5;exitY=1;exitDx=0;exitDy=0;exitPerimeter=0;entryX=0.231;entryY=0.917;entryDx=0;entryDy=0;entryPerimeter=0;fontSize=12;startSize=8;endSize=8;" edge="1" parent="1" source="8Joogp2kNSr6ya6-F_BD-51" target="8Joogp2kNSr6ya6-F_BD-12">
          <mxGeometry relative="1" as="geometry" />
        </mxCell>
        <mxCell id="8Joogp2kNSr6ya6-F_BD-55" style="edgeStyle=none;rounded=0;orthogonalLoop=1;jettySize=auto;html=1;entryX=0.005;entryY=0.995;entryDx=0;entryDy=0;entryPerimeter=0;fontSize=12;startSize=8;endSize=3;fillColor=#fff2cc;strokeColor=#d6b656;endArrow=circle;endFill=0;" edge="1" parent="1" source="8Joogp2kNSr6ya6-F_BD-12" target="8Joogp2kNSr6ya6-F_BD-51">
          <mxGeometry relative="1" as="geometry">
            <Array as="points">
              <mxPoint x="-1290" y="520" />
            </Array>
          </mxGeometry>
        </mxCell>
        <mxCell id="8Joogp2kNSr6ya6-F_BD-58" value="" style="group" vertex="1" connectable="0" parent="1">
          <mxGeometry x="-1389" y="398.4486299742617" width="70.58015790452623" height="43.381370025738306" as="geometry" />
        </mxCell>
        <mxCell id="8Joogp2kNSr6ya6-F_BD-52" value="" style="group" vertex="1" connectable="0" parent="8Joogp2kNSr6ya6-F_BD-58">
          <mxGeometry x="6" width="64.58015790452623" height="43.381370025738306" as="geometry" />
        </mxCell>
        <mxCell id="8Joogp2kNSr6ya6-F_BD-51" value="" style="rounded=0;whiteSpace=wrap;html=1;fontSize=16;fillColor=#000000;points=[[0,0.5,0,0,0],[0.5,0,0,0,0],[0.5,1,0,0,0],[1,0.5,0,0,0]];rotation=315;container=0;" vertex="1" parent="8Joogp2kNSr6ya6-F_BD-52">
          <mxGeometry x="18.820000000000164" y="15.758036692404971" width="49.09090909090909" height="10.913333333333334" as="geometry" />
        </mxCell>
        <mxCell id="8Joogp2kNSr6ya6-F_BD-59" value="" style="group" vertex="1" connectable="0" parent="1">
          <mxGeometry x="-1228" y="236.9986299742617" width="70.58015790452623" height="43.381370025738306" as="geometry" />
        </mxCell>
        <mxCell id="8Joogp2kNSr6ya6-F_BD-60" value="" style="group" vertex="1" connectable="0" parent="8Joogp2kNSr6ya6-F_BD-59">
          <mxGeometry x="6" width="64.58015790452623" height="43.381370025738306" as="geometry" />
        </mxCell>
        <mxCell id="8Joogp2kNSr6ya6-F_BD-61" value="" style="rounded=0;whiteSpace=wrap;html=1;fontSize=16;fillColor=#000000;points=[[0,0.5,0,0,0],[0.5,0,0,0,0],[0.5,1,0,0,0],[1,0.5,0,0,0]];rotation=315;container=0;" vertex="1" parent="8Joogp2kNSr6ya6-F_BD-60">
          <mxGeometry x="18.820000000000164" y="15.758036692404971" width="49.09090909090909" height="10.913333333333334" as="geometry" />
        </mxCell>
        <mxCell id="8Joogp2kNSr6ya6-F_BD-62" value="&lt;b style=&quot;font-size: 9px;&quot;&gt;move_E&lt;/b&gt;" style="text;html=1;strokeColor=none;fillColor=none;align=center;verticalAlign=middle;whiteSpace=wrap;rounded=0;fontSize=16;points=[];container=0;" vertex="1" parent="1">
          <mxGeometry x="-1198" y="284.99999999999994" width="10.91" height="4.54" as="geometry" />
        </mxCell>
        <mxCell id="8Joogp2kNSr6ya6-F_BD-65" style="edgeStyle=none;curved=1;rounded=0;orthogonalLoop=1;jettySize=auto;html=1;entryX=0.5;entryY=1;entryDx=0;entryDy=0;entryPerimeter=0;fontSize=12;startSize=8;endSize=8;" edge="1" parent="1" source="8Joogp2kNSr6ya6-F_BD-16" target="8Joogp2kNSr6ya6-F_BD-61">
          <mxGeometry relative="1" as="geometry" />
        </mxCell>
        <mxCell id="8Joogp2kNSr6ya6-F_BD-66" style="edgeStyle=none;curved=1;rounded=0;orthogonalLoop=1;jettySize=auto;html=1;exitX=0.5;exitY=0;exitDx=0;exitDy=0;exitPerimeter=0;entryX=0.824;entryY=0.098;entryDx=0;entryDy=0;entryPerimeter=0;fontSize=12;startSize=8;endSize=8;" edge="1" parent="1" source="8Joogp2kNSr6ya6-F_BD-61" target="8Joogp2kNSr6ya6-F_BD-8">
          <mxGeometry relative="1" as="geometry" />
        </mxCell>
        <mxCell id="8Joogp2kNSr6ya6-F_BD-67" style="edgeStyle=none;rounded=0;orthogonalLoop=1;jettySize=auto;html=1;entryX=0.968;entryY=-0.056;entryDx=0;entryDy=0;entryPerimeter=0;fontSize=12;startSize=8;endSize=3;fillColor=#fff2cc;strokeColor=#d6b656;endArrow=circle;endFill=0;" edge="1" parent="1" source="8Joogp2kNSr6ya6-F_BD-8" target="8Joogp2kNSr6ya6-F_BD-61">
          <mxGeometry relative="1" as="geometry">
            <Array as="points">
              <mxPoint x="-1230" y="160" />
            </Array>
          </mxGeometry>
        </mxCell>
        <mxCell id="8Joogp2kNSr6ya6-F_BD-68" value="" style="group" vertex="1" connectable="0" parent="1">
          <mxGeometry x="-1283" y="274.99666666666667" width="49.09090909090901" height="15.539999999999992" as="geometry" />
        </mxCell>
        <mxCell id="8Joogp2kNSr6ya6-F_BD-32" value="&lt;b style=&quot;font-size: 9px;&quot;&gt;skip_N&lt;/b&gt;" style="text;html=1;strokeColor=none;fillColor=none;align=center;verticalAlign=middle;whiteSpace=wrap;rounded=0;fontSize=16;points=[];" vertex="1" parent="8Joogp2kNSr6ya6-F_BD-68">
          <mxGeometry x="18.00090909090909" y="10.083333333333314" width="10.90909090909091" height="5.456666666666667" as="geometry" />
        </mxCell>
        <mxCell id="8Joogp2kNSr6ya6-F_BD-31" value="" style="rounded=0;whiteSpace=wrap;html=1;fontSize=16;fillColor=#000000;points=[[0,0.5,0,0,0],[0.5,0,0,0,0],[0.5,1,0,0,0],[1,0.5,0,0,0]];" vertex="1" parent="8Joogp2kNSr6ya6-F_BD-68">
          <mxGeometry width="49.09090909090909" height="10.913333333333334" as="geometry" />
        </mxCell>
        <mxCell id="8Joogp2kNSr6ya6-F_BD-69" value="" style="group" vertex="1" connectable="0" parent="1">
          <mxGeometry x="-1283" y="380" width="49.09090909090901" height="25.83000000000004" as="geometry" />
        </mxCell>
        <mxCell id="8Joogp2kNSr6ya6-F_BD-28" value="&lt;font size=&quot;1&quot;&gt;&lt;b style=&quot;font-size: 9px;&quot;&gt;skip_S&lt;/b&gt;&lt;/font&gt;" style="text;html=1;strokeColor=none;fillColor=none;align=center;verticalAlign=middle;whiteSpace=wrap;rounded=0;fontSize=16;points=[];" vertex="1" parent="8Joogp2kNSr6ya6-F_BD-69">
          <mxGeometry x="20.00090909090909" width="10.90909090909091" height="5.456666666666667" as="geometry" />
        </mxCell>
        <mxCell id="8Joogp2kNSr6ya6-F_BD-27" value="" style="rounded=0;whiteSpace=wrap;html=1;fontSize=16;fillColor=#000000;points=[[0,0.5,0,0,0],[0.5,0,0,0,0],[0.5,1,0,0,0],[1,0.5,0,0,0]];" vertex="1" parent="8Joogp2kNSr6ya6-F_BD-69">
          <mxGeometry y="14.916666666666686" width="49.09090909090909" height="10.913333333333334" as="geometry" />
        </mxCell>
        <mxCell id="8Joogp2kNSr6ya6-F_BD-50" value="&lt;b style=&quot;font-size: 9px;&quot;&gt;move_W&lt;/b&gt;" style="text;html=1;strokeColor=none;fillColor=none;align=center;verticalAlign=middle;whiteSpace=wrap;rounded=0;fontSize=16;points=[];container=0;" vertex="1" parent="1">
          <mxGeometry x="-1331" y="380.99999999999994" width="10.91" height="4.54" as="geometry" />
        </mxCell>
        <mxCell id="8Joogp2kNSr6ya6-F_BD-23" value="&lt;b style=&quot;font-size: 9px;&quot;&gt;move_S&lt;/b&gt;" style="text;html=1;strokeColor=none;fillColor=none;align=center;verticalAlign=middle;whiteSpace=wrap;rounded=0;fontSize=16;points=[];container=0;" vertex="1" parent="1">
          <mxGeometry x="-1195.999090909091" y="377.99999999999994" width="10.90909090909091" height="5.456666666666667" as="geometry" />
        </mxCell>
        <mxCell id="zovPisd81LJqoq4hTalb-9" value="" style="group;fontSize=16;" vertex="1" connectable="0" parent="1">
          <mxGeometry x="-1444.1599999999999" y="420" width="70.91" height="21.830000000000013" as="geometry" />
        </mxCell>
        <mxCell id="zovPisd81LJqoq4hTalb-10" value="" style="group;points=[[0,0.5,0,0,0],[0.5,0,0,0,0],[0.5,1,0,0,0],[1,0.5,0,0,0]];fontSize=16;" vertex="1" connectable="0" parent="zovPisd81LJqoq4hTalb-9">
          <mxGeometry y="5.460000000000008" width="60" height="16.37" as="geometry" />
        </mxCell>
        <mxCell id="zovPisd81LJqoq4hTalb-11" value="" style="rounded=0;whiteSpace=wrap;html=1;fontSize=16;fillColor=#000000;points=[[0,0.5,0,0,0],[0.5,0,0,0,0],[0.5,1,0,0,0],[1,0.5,0,0,0]];" vertex="1" parent="zovPisd81LJqoq4hTalb-10">
          <mxGeometry y="5.456666666666667" width="49.09090909090909" height="10.913333333333334" as="geometry" />
        </mxCell>
        <mxCell id="zovPisd81LJqoq4hTalb-12" value="&lt;b style=&quot;font-size: 9px;&quot;&gt;stall_W&lt;/b&gt;" style="text;html=1;strokeColor=none;fillColor=none;align=center;verticalAlign=middle;whiteSpace=wrap;rounded=0;fontSize=16;points=[];" vertex="1" parent="zovPisd81LJqoq4hTalb-9">
          <mxGeometry x="60.00090909090909" width="10.90909090909091" height="5.456666666666667" as="geometry" />
        </mxCell>
        <mxCell id="zovPisd81LJqoq4hTalb-13" style="edgeStyle=none;curved=1;rounded=0;orthogonalLoop=1;jettySize=auto;html=1;entryX=0.5;entryY=0;entryDx=0;entryDy=0;entryPerimeter=0;fontSize=12;startSize=8;endSize=8;startArrow=classic;startFill=1;dashed=1;" edge="1" parent="1" source="8Joogp2kNSr6ya6-F_BD-20" target="zovPisd81LJqoq4hTalb-11">
          <mxGeometry relative="1" as="geometry" />
        </mxCell>
        <mxCell id="zovPisd81LJqoq4hTalb-14" style="edgeStyle=none;rounded=0;orthogonalLoop=1;jettySize=auto;html=1;fontSize=12;startSize=8;endSize=8;startArrow=classic;startFill=1;dashed=1;entryX=0.5;entryY=1;entryDx=0;entryDy=0;entryPerimeter=0;" edge="1" parent="1" source="8Joogp2kNSr6ya6-F_BD-12" target="zovPisd81LJqoq4hTalb-11">
          <mxGeometry relative="1" as="geometry">
            <mxPoint x="-1420" y="496.25" as="targetPoint" />
            <Array as="points">
              <mxPoint x="-1420" y="495" />
            </Array>
          </mxGeometry>
        </mxCell>
        <mxCell id="zovPisd81LJqoq4hTalb-15" value="" style="group;fontSize=16;" vertex="1" connectable="0" parent="1">
          <mxGeometry x="-1122.9999999999998" y="222" width="70.91" height="21.830000000000013" as="geometry" />
        </mxCell>
        <mxCell id="zovPisd81LJqoq4hTalb-16" value="" style="group;points=[[0,0.5,0,0,0],[0.5,0,0,0,0],[0.5,1,0,0,0],[1,0.5,0,0,0]];fontSize=16;" vertex="1" connectable="0" parent="zovPisd81LJqoq4hTalb-15">
          <mxGeometry y="5.460000000000008" width="60" height="16.37" as="geometry" />
        </mxCell>
        <mxCell id="zovPisd81LJqoq4hTalb-17" value="" style="rounded=0;whiteSpace=wrap;html=1;fontSize=16;fillColor=#000000;points=[[0,0.5,0,0,0],[0.5,0,0,0,0],[0.5,1,0,0,0],[1,0.5,0,0,0]];" vertex="1" parent="zovPisd81LJqoq4hTalb-16">
          <mxGeometry y="5.456666666666667" width="49.09090909090909" height="10.913333333333334" as="geometry" />
        </mxCell>
        <mxCell id="zovPisd81LJqoq4hTalb-18" value="&lt;b style=&quot;font-size: 9px;&quot;&gt;stall_E&lt;/b&gt;" style="text;html=1;strokeColor=none;fillColor=none;align=center;verticalAlign=middle;whiteSpace=wrap;rounded=0;fontSize=16;points=[];" vertex="1" parent="zovPisd81LJqoq4hTalb-15">
          <mxGeometry x="60.00090909090909" width="10.90909090909091" height="5.456666666666667" as="geometry" />
        </mxCell>
        <mxCell id="zovPisd81LJqoq4hTalb-19" style="edgeStyle=none;curved=1;rounded=0;orthogonalLoop=1;jettySize=auto;html=1;exitX=0;exitY=0.5;exitDx=0;exitDy=0;exitPerimeter=0;entryX=0.5;entryY=1;entryDx=0;entryDy=0;entryPerimeter=0;fontSize=12;startSize=8;endSize=8;startArrow=classic;startFill=1;dashed=1;" edge="1" parent="1" source="8Joogp2kNSr6ya6-F_BD-16" target="zovPisd81LJqoq4hTalb-17">
          <mxGeometry relative="1" as="geometry" />
        </mxCell>
        <mxCell id="zovPisd81LJqoq4hTalb-20" style="edgeStyle=none;rounded=0;orthogonalLoop=1;jettySize=auto;html=1;exitX=0.5;exitY=0;exitDx=0;exitDy=0;exitPerimeter=0;entryX=0.5;entryY=0;entryDx=0;entryDy=0;entryPerimeter=0;fontSize=12;startSize=8;endSize=8;dashed=1;startArrow=classic;startFill=1;" edge="1" parent="1" source="8Joogp2kNSr6ya6-F_BD-8" target="zovPisd81LJqoq4hTalb-17">
          <mxGeometry relative="1" as="geometry">
            <Array as="points">
              <mxPoint x="-1099" y="183" />
            </Array>
          </mxGeometry>
        </mxCell>
        <mxCell id="zovPisd81LJqoq4hTalb-21" value="" style="group;fontSize=16;" vertex="1" connectable="0" parent="1">
          <mxGeometry x="-1330.0012121212121" y="305" width="25.82121212121217" height="60.918787878787896" as="geometry" />
        </mxCell>
        <mxCell id="zovPisd81LJqoq4hTalb-23" value="" style="rounded=0;whiteSpace=wrap;html=1;fontSize=16;fillColor=#000000;points=[[0,0.5,0,0,0],[0.5,0,0,0,0],[0.5,1,0,0,0],[1,0.5,0,0,0]];rotation=90;container=0;" vertex="1" parent="zovPisd81LJqoq4hTalb-21">
          <mxGeometry x="-19.088787878787855" y="30.916666666666686" width="49.09090909090909" height="10.913333333333334" as="geometry" />
        </mxCell>
        <mxCell id="zovPisd81LJqoq4hTalb-24" style="edgeStyle=none;curved=1;rounded=0;orthogonalLoop=1;jettySize=auto;html=1;exitX=0.5;exitY=0;exitDx=0;exitDy=0;exitPerimeter=0;entryX=0.5;entryY=1;entryDx=0;entryDy=0;entryPerimeter=0;fontSize=12;startSize=8;endSize=3;endArrow=circle;endFill=0;fillColor=#fff2cc;strokeColor=#d6b656;" edge="1" parent="1" source="8Joogp2kNSr6ya6-F_BD-20" target="zovPisd81LJqoq4hTalb-23">
          <mxGeometry relative="1" as="geometry" />
        </mxCell>
        <mxCell id="zovPisd81LJqoq4hTalb-22" value="&lt;b style=&quot;font-size: 9px;&quot;&gt;skip_W&lt;/b&gt;" style="text;html=1;strokeColor=none;fillColor=none;align=center;verticalAlign=middle;whiteSpace=wrap;rounded=0;fontSize=16;points=[];container=0;" vertex="1" parent="1">
          <mxGeometry x="-1304.179090909091" y="335" width="10.90909090909091" height="5.456666666666667" as="geometry" />
        </mxCell>
        <mxCell id="zovPisd81LJqoq4hTalb-25" value="" style="group;fontSize=16;" vertex="1" connectable="0" parent="1">
          <mxGeometry x="-1211.0012121212121" y="305" width="25.82121212121217" height="60.918787878787896" as="geometry" />
        </mxCell>
        <mxCell id="zovPisd81LJqoq4hTalb-27" value="" style="rounded=0;whiteSpace=wrap;html=1;fontSize=16;fillColor=#000000;points=[[0,0.5,0,0,0],[0.5,0,0,0,0],[0.5,1,0,0,0],[1,0.5,0,0,0]];rotation=90;container=0;" vertex="1" parent="zovPisd81LJqoq4hTalb-25">
          <mxGeometry x="-19.088787878787855" y="30.916666666666686" width="49.09090909090909" height="10.913333333333334" as="geometry" />
        </mxCell>
        <mxCell id="zovPisd81LJqoq4hTalb-26" value="&lt;b style=&quot;font-size: 9px;&quot;&gt;skip_E&lt;/b&gt;" style="text;html=1;strokeColor=none;fillColor=none;align=center;verticalAlign=middle;whiteSpace=wrap;rounded=0;fontSize=16;points=[];container=0;" vertex="1" parent="1">
          <mxGeometry x="-1233.999090909091" y="334" width="10.90909090909091" height="5.456666666666667" as="geometry" />
        </mxCell>
        <mxCell id="zovPisd81LJqoq4hTalb-28" style="edgeStyle=none;curved=1;rounded=0;orthogonalLoop=1;jettySize=auto;html=1;exitX=0.5;exitY=1;exitDx=0;exitDy=0;exitPerimeter=0;entryX=0.5;entryY=0;entryDx=0;entryDy=0;entryPerimeter=0;fontSize=12;startSize=8;endSize=3;fillColor=#fff2cc;strokeColor=#d6b656;endArrow=circle;endFill=0;" edge="1" parent="1" source="8Joogp2kNSr6ya6-F_BD-16" target="zovPisd81LJqoq4hTalb-27">
          <mxGeometry relative="1" as="geometry" />
        </mxCell>
      </root>
    </mxGraphModel>
  </diagram>
  <diagram name="outroads" id="PqRBGe3SUlGsaYvd4jA0">
    <mxGraphModel dx="2001" dy="491" grid="1" gridSize="10" guides="1" tooltips="1" connect="1" arrows="1" fold="1" page="1" pageScale="1" pageWidth="827" pageHeight="1169" math="0" shadow="0">
      <root>
        <mxCell id="EbmPIoyvLXl5pACf4xWa-0" />
        <mxCell id="EbmPIoyvLXl5pACf4xWa-1" parent="EbmPIoyvLXl5pACf4xWa-0" />
        <mxCell id="EbmPIoyvLXl5pACf4xWa-19" value="" style="group;fontSize=16;" parent="EbmPIoyvLXl5pACf4xWa-1" vertex="1" connectable="0">
          <mxGeometry x="-777.06" y="130" width="68.75" height="60" as="geometry" />
        </mxCell>
        <mxCell id="EbmPIoyvLXl5pACf4xWa-20" value="" style="group;fontSize=16;" parent="EbmPIoyvLXl5pACf4xWa-19" vertex="1" connectable="0">
          <mxGeometry y="13" width="52.5" height="50" as="geometry" />
        </mxCell>
        <mxCell id="EbmPIoyvLXl5pACf4xWa-21" value="" style="group;fontSize=16;" parent="EbmPIoyvLXl5pACf4xWa-20" vertex="1" connectable="0">
          <mxGeometry x="-3.75" width="56.25" height="48.75" as="geometry" />
        </mxCell>
        <object label="" markers="●" placeholders="1" id="EbmPIoyvLXl5pACf4xWa-22">
          <mxCell style="ellipse;whiteSpace=wrap;html=1;aspect=fixed;fontSize=16;direction=south;perimeterSpacing=0;strokeWidth=1;dashed=1;dashPattern=8 8;points=[[0,0.5,0,0,0],[0.5,0,0,0,0],[0.5,1,0,0,0],[1,0.5,0,0,0]];" parent="EbmPIoyvLXl5pACf4xWa-21" vertex="1">
            <mxGeometry y="6.25" width="42.5" height="42.5" as="geometry" />
          </mxCell>
        </object>
        <object label="" markers="●" placeholders="1" id="EbmPIoyvLXl5pACf4xWa-23">
          <mxCell style="ellipse;whiteSpace=wrap;html=1;aspect=fixed;fontSize=16;direction=south;perimeterSpacing=0;strokeWidth=1;points=[];" parent="EbmPIoyvLXl5pACf4xWa-21" vertex="1">
            <mxGeometry x="3.75" y="10" width="35" height="35" as="geometry" />
          </mxCell>
        </object>
        <mxCell id="EbmPIoyvLXl5pACf4xWa-24" value="&lt;b style=&quot;font-size: 9px;&quot;&gt;core_N&lt;/b&gt;" style="text;html=1;strokeColor=none;fillColor=none;align=center;verticalAlign=middle;whiteSpace=wrap;rounded=0;fontSize=16;" parent="EbmPIoyvLXl5pACf4xWa-21" vertex="1">
          <mxGeometry x="11.25" y="-11" width="20" height="10" as="geometry" />
        </mxCell>
        <mxCell id="EbmPIoyvLXl5pACf4xWa-25" value="" style="group;fontSize=16;" parent="EbmPIoyvLXl5pACf4xWa-1" vertex="1" connectable="0">
          <mxGeometry x="-492.06" y="132" width="68.75" height="60" as="geometry" />
        </mxCell>
        <mxCell id="EbmPIoyvLXl5pACf4xWa-26" value="" style="group;fontSize=16;" parent="EbmPIoyvLXl5pACf4xWa-25" vertex="1" connectable="0">
          <mxGeometry y="10" width="52.5" height="50" as="geometry" />
        </mxCell>
        <mxCell id="EbmPIoyvLXl5pACf4xWa-27" value="" style="group;fontSize=16;" parent="EbmPIoyvLXl5pACf4xWa-26" vertex="1" connectable="0">
          <mxGeometry x="-3.75" width="56.25" height="48.75" as="geometry" />
        </mxCell>
        <object label="" markers="●" placeholders="1" id="EbmPIoyvLXl5pACf4xWa-28">
          <mxCell style="ellipse;whiteSpace=wrap;html=1;aspect=fixed;fontSize=16;direction=south;perimeterSpacing=0;strokeWidth=1;dashed=1;dashPattern=8 8;points=[[0,0.5,0,0,0],[0.5,0,0,0,0],[0.5,1,0,0,0],[1,0.5,0,0,0]];" parent="EbmPIoyvLXl5pACf4xWa-27" vertex="1">
            <mxGeometry y="6.25" width="42.5" height="42.5" as="geometry" />
          </mxCell>
        </object>
        <object label="" markers="●" placeholders="1" id="EbmPIoyvLXl5pACf4xWa-29">
          <mxCell style="ellipse;whiteSpace=wrap;html=1;aspect=fixed;fontSize=16;direction=south;perimeterSpacing=0;strokeWidth=1;points=[];" parent="EbmPIoyvLXl5pACf4xWa-27" vertex="1">
            <mxGeometry x="3.75" y="10" width="35" height="35" as="geometry" />
          </mxCell>
        </object>
        <mxCell id="EbmPIoyvLXl5pACf4xWa-30" value="&lt;font size=&quot;1&quot;&gt;&lt;b&gt;core_S&lt;/b&gt;&lt;/font&gt;" style="text;html=1;strokeColor=none;fillColor=none;align=center;verticalAlign=middle;whiteSpace=wrap;rounded=0;fontSize=16;" parent="EbmPIoyvLXl5pACf4xWa-27" vertex="1">
          <mxGeometry x="11.25" y="-8.75" width="20" height="10" as="geometry" />
        </mxCell>
        <mxCell id="EbmPIoyvLXl5pACf4xWa-31" value="" style="group;fontSize=16;" parent="EbmPIoyvLXl5pACf4xWa-1" vertex="1" connectable="0">
          <mxGeometry x="-784.0600000000001" y="214.00000000000006" width="70.91" height="21.830000000000013" as="geometry" />
        </mxCell>
        <mxCell id="EbmPIoyvLXl5pACf4xWa-32" value="" style="group;points=[[0,0.5,0,0,0],[0.5,0,0,0,0],[0.5,1,0,0,0],[1,0.5,0,0,0]];fontSize=16;" parent="EbmPIoyvLXl5pACf4xWa-31" vertex="1" connectable="0">
          <mxGeometry y="5.460000000000008" width="60" height="16.37" as="geometry" />
        </mxCell>
        <mxCell id="EbmPIoyvLXl5pACf4xWa-33" value="" style="rounded=0;whiteSpace=wrap;html=1;fontSize=16;fillColor=#000000;points=[[0,0.5,0,0,0],[0.5,0,0,0,0],[0.5,1,0,0,0],[1,0.5,0,0,0]];" parent="EbmPIoyvLXl5pACf4xWa-32" vertex="1">
          <mxGeometry y="5.456666666666667" width="49.09090909090909" height="10.913333333333334" as="geometry" />
        </mxCell>
        <mxCell id="EbmPIoyvLXl5pACf4xWa-34" value="" style="group;fontSize=16;" parent="EbmPIoyvLXl5pACf4xWa-1" vertex="1" connectable="0">
          <mxGeometry x="-704.0600000000001" y="215.00000000000006" width="70.91" height="21.830000000000013" as="geometry" />
        </mxCell>
        <mxCell id="EbmPIoyvLXl5pACf4xWa-35" value="" style="group;points=[[0,0.5,0,0,0],[0.5,0,0,0,0],[0.5,1,0,0,0],[1,0.5,0,0,0]];fontSize=16;" parent="EbmPIoyvLXl5pACf4xWa-34" vertex="1" connectable="0">
          <mxGeometry y="5.460000000000008" width="60" height="16.37" as="geometry" />
        </mxCell>
        <mxCell id="EbmPIoyvLXl5pACf4xWa-36" value="" style="rounded=0;whiteSpace=wrap;html=1;fontSize=16;fillColor=#000000;points=[[0,0.5,0,0,0],[0.5,0,0,0,0],[0.5,1,0,0,0],[1,0.5,0,0,0]];" parent="EbmPIoyvLXl5pACf4xWa-35" vertex="1">
          <mxGeometry y="5.456666666666667" width="49.09090909090909" height="10.913333333333334" as="geometry" />
        </mxCell>
        <mxCell id="EbmPIoyvLXl5pACf4xWa-37" value="&lt;b style=&quot;font-size: 9px;&quot;&gt;skip_N&lt;/b&gt;" style="text;html=1;strokeColor=none;fillColor=none;align=center;verticalAlign=middle;whiteSpace=wrap;rounded=0;fontSize=16;" parent="EbmPIoyvLXl5pACf4xWa-34" vertex="1">
          <mxGeometry x="60.00090909090909" width="10.90909090909091" height="5.456666666666667" as="geometry" />
        </mxCell>
        <mxCell id="EbmPIoyvLXl5pACf4xWa-38" value="" style="group;fontSize=16;" parent="EbmPIoyvLXl5pACf4xWa-1" vertex="1" connectable="0">
          <mxGeometry x="-579.0600000000001" y="214.00000000000006" width="70.91" height="21.830000000000013" as="geometry" />
        </mxCell>
        <mxCell id="EbmPIoyvLXl5pACf4xWa-39" value="" style="group;points=[[0,0.5,0,0,0],[0.5,0,0,0,0],[0.5,1,0,0,0],[1,0.5,0,0,0]];fontSize=16;" parent="EbmPIoyvLXl5pACf4xWa-38" vertex="1" connectable="0">
          <mxGeometry y="5.460000000000008" width="60" height="16.37" as="geometry" />
        </mxCell>
        <mxCell id="EbmPIoyvLXl5pACf4xWa-40" value="" style="rounded=0;whiteSpace=wrap;html=1;fontSize=16;fillColor=#000000;points=[[0,0.5,0,0,0],[0.5,0,0,0,0],[0.5,1,0,0,0],[1,0.5,0,0,0]];" parent="EbmPIoyvLXl5pACf4xWa-39" vertex="1">
          <mxGeometry y="5.456666666666667" width="49.09090909090909" height="10.913333333333334" as="geometry" />
        </mxCell>
        <mxCell id="EbmPIoyvLXl5pACf4xWa-41" value="" style="group;fontSize=16;" parent="EbmPIoyvLXl5pACf4xWa-1" vertex="1" connectable="0">
          <mxGeometry x="-499.06000000000006" y="214.00000000000006" width="70.91" height="21.830000000000013" as="geometry" />
        </mxCell>
        <mxCell id="EbmPIoyvLXl5pACf4xWa-42" value="" style="group;points=[[0,0.5,0,0,0],[0.5,0,0,0,0],[0.5,1,0,0,0],[1,0.5,0,0,0]];fontSize=16;" parent="EbmPIoyvLXl5pACf4xWa-41" vertex="1" connectable="0">
          <mxGeometry y="5.460000000000008" width="60" height="16.37" as="geometry" />
        </mxCell>
        <mxCell id="EbmPIoyvLXl5pACf4xWa-43" value="" style="rounded=0;whiteSpace=wrap;html=1;fontSize=16;fillColor=#000000;points=[[0,0.5,0,0,0],[0.5,0,0,0,0],[0.5,1,0,0,0],[1,0.5,0,0,0]];" parent="EbmPIoyvLXl5pACf4xWa-42" vertex="1">
          <mxGeometry y="5.456666666666667" width="49.09090909090909" height="10.913333333333334" as="geometry" />
        </mxCell>
        <mxCell id="EbmPIoyvLXl5pACf4xWa-44" value="&lt;b style=&quot;font-size: 9px;&quot;&gt;exit_S&lt;/b&gt;" style="text;html=1;strokeColor=none;fillColor=none;align=center;verticalAlign=middle;whiteSpace=wrap;rounded=0;fontSize=16;" parent="EbmPIoyvLXl5pACf4xWa-41" vertex="1">
          <mxGeometry x="57.00090909090909" y="-1" width="10.90909090909091" height="5.456666666666667" as="geometry" />
        </mxCell>
        <mxCell id="EbmPIoyvLXl5pACf4xWa-45" style="edgeStyle=none;curved=1;rounded=0;orthogonalLoop=1;jettySize=auto;html=1;exitX=1;exitY=0.5;exitDx=0;exitDy=0;exitPerimeter=0;entryX=0.5;entryY=0;entryDx=0;entryDy=0;entryPerimeter=0;fontSize=12;startSize=8;endSize=8;" parent="EbmPIoyvLXl5pACf4xWa-1" source="EbmPIoyvLXl5pACf4xWa-22" target="EbmPIoyvLXl5pACf4xWa-33" edge="1">
          <mxGeometry relative="1" as="geometry" />
        </mxCell>
        <mxCell id="EbmPIoyvLXl5pACf4xWa-48" style="edgeStyle=none;curved=1;rounded=0;orthogonalLoop=1;jettySize=auto;html=1;exitX=1;exitY=0.5;exitDx=0;exitDy=0;exitPerimeter=0;entryX=0.5;entryY=0;entryDx=0;entryDy=0;entryPerimeter=0;fontSize=12;startSize=8;endSize=8;" parent="EbmPIoyvLXl5pACf4xWa-1" source="EbmPIoyvLXl5pACf4xWa-28" target="EbmPIoyvLXl5pACf4xWa-43" edge="1">
          <mxGeometry relative="1" as="geometry" />
        </mxCell>
        <mxCell id="EbmPIoyvLXl5pACf4xWa-68" value="&lt;b style=&quot;font-size: 9px;&quot;&gt;skip_S&lt;/b&gt;" style="text;html=1;strokeColor=none;fillColor=none;align=center;verticalAlign=middle;whiteSpace=wrap;rounded=0;fontSize=16;" parent="EbmPIoyvLXl5pACf4xWa-1" vertex="1">
          <mxGeometry x="-599.059090909091" y="215.00000000000006" width="10.90909090909091" height="5.456666666666667" as="geometry" />
        </mxCell>
        <mxCell id="EbmPIoyvLXl5pACf4xWa-69" value="&lt;b style=&quot;font-size: 9px;&quot;&gt;exit_N&lt;/b&gt;" style="text;html=1;strokeColor=none;fillColor=none;align=center;verticalAlign=middle;whiteSpace=wrap;rounded=0;fontSize=16;" parent="EbmPIoyvLXl5pACf4xWa-1" vertex="1">
          <mxGeometry x="-803.059090909091" y="212.00000000000006" width="10.90909090909091" height="5.456666666666667" as="geometry" />
        </mxCell>
        <mxCell id="agMplDie6IslOT2xBsOy-6" value="" style="group" parent="EbmPIoyvLXl5pACf4xWa-1" vertex="1" connectable="0">
          <mxGeometry x="-779.06" y="248" width="68.75" height="70" as="geometry" />
        </mxCell>
        <mxCell id="agMplDie6IslOT2xBsOy-0" value="" style="group;fontSize=16;" parent="agMplDie6IslOT2xBsOy-6" vertex="1" connectable="0">
          <mxGeometry width="68.75" height="60" as="geometry" />
        </mxCell>
        <mxCell id="agMplDie6IslOT2xBsOy-1" value="" style="group;fontSize=16;" parent="agMplDie6IslOT2xBsOy-0" vertex="1" connectable="0">
          <mxGeometry y="13" width="52.5" height="50" as="geometry" />
        </mxCell>
        <mxCell id="agMplDie6IslOT2xBsOy-2" value="" style="group;fontSize=16;" parent="agMplDie6IslOT2xBsOy-1" vertex="1" connectable="0">
          <mxGeometry x="-3.75" width="56.25" height="48.75" as="geometry" />
        </mxCell>
        <object label="" markers="●" placeholders="1" id="agMplDie6IslOT2xBsOy-3">
          <mxCell style="ellipse;whiteSpace=wrap;html=1;aspect=fixed;fontSize=16;direction=south;perimeterSpacing=0;strokeWidth=1;dashed=1;dashPattern=8 8;points=[[0,0.5,0,0,0],[0.5,0,0,0,0],[0.5,1,0,0,0],[1,0.5,0,0,0]];" parent="agMplDie6IslOT2xBsOy-2" vertex="1">
            <mxGeometry y="6.25" width="42.5" height="42.5" as="geometry" />
          </mxCell>
        </object>
        <object label="" markers="●" placeholders="1" id="agMplDie6IslOT2xBsOy-4">
          <mxCell style="ellipse;whiteSpace=wrap;html=1;aspect=fixed;fontSize=16;direction=south;perimeterSpacing=0;strokeWidth=1;points=[];" parent="agMplDie6IslOT2xBsOy-2" vertex="1">
            <mxGeometry x="3.75" y="10" width="35" height="35" as="geometry" />
          </mxCell>
        </object>
        <mxCell id="agMplDie6IslOT2xBsOy-5" value="&lt;b style=&quot;font-size: 9px;&quot;&gt;output_N&lt;/b&gt;" style="text;html=1;strokeColor=none;fillColor=none;align=center;verticalAlign=middle;whiteSpace=wrap;rounded=0;fontSize=16;" parent="agMplDie6IslOT2xBsOy-6" vertex="1">
          <mxGeometry x="7.5" y="60" width="20" height="10" as="geometry" />
        </mxCell>
        <mxCell id="agMplDie6IslOT2xBsOy-7" value="" style="group" parent="EbmPIoyvLXl5pACf4xWa-1" vertex="1" connectable="0">
          <mxGeometry x="-495.06" y="248" width="68.75" height="70" as="geometry" />
        </mxCell>
        <mxCell id="agMplDie6IslOT2xBsOy-8" value="" style="group;fontSize=16;" parent="agMplDie6IslOT2xBsOy-7" vertex="1" connectable="0">
          <mxGeometry width="68.75" height="60" as="geometry" />
        </mxCell>
        <mxCell id="agMplDie6IslOT2xBsOy-9" value="" style="group;fontSize=16;" parent="agMplDie6IslOT2xBsOy-8" vertex="1" connectable="0">
          <mxGeometry y="13" width="52.5" height="50" as="geometry" />
        </mxCell>
        <mxCell id="agMplDie6IslOT2xBsOy-10" value="" style="group;fontSize=16;" parent="agMplDie6IslOT2xBsOy-9" vertex="1" connectable="0">
          <mxGeometry x="-3.75" width="56.25" height="48.75" as="geometry" />
        </mxCell>
        <object label="" markers="●" placeholders="1" id="agMplDie6IslOT2xBsOy-11">
          <mxCell style="ellipse;whiteSpace=wrap;html=1;aspect=fixed;fontSize=16;direction=south;perimeterSpacing=0;strokeWidth=1;dashed=1;dashPattern=8 8;points=[[0,0.5,0,0,0],[0.5,0,0,0,0],[0.5,1,0,0,0],[1,0.5,0,0,0]];" parent="agMplDie6IslOT2xBsOy-10" vertex="1">
            <mxGeometry y="6.25" width="42.5" height="42.5" as="geometry" />
          </mxCell>
        </object>
        <object label="" markers="●" placeholders="1" id="agMplDie6IslOT2xBsOy-12">
          <mxCell style="ellipse;whiteSpace=wrap;html=1;aspect=fixed;fontSize=16;direction=south;perimeterSpacing=0;strokeWidth=1;points=[];" parent="agMplDie6IslOT2xBsOy-10" vertex="1">
            <mxGeometry x="3.75" y="10" width="35" height="35" as="geometry" />
          </mxCell>
        </object>
        <mxCell id="agMplDie6IslOT2xBsOy-13" value="&lt;b style=&quot;font-size: 9px;&quot;&gt;output_S&lt;/b&gt;" style="text;html=1;strokeColor=none;fillColor=none;align=center;verticalAlign=middle;whiteSpace=wrap;rounded=0;fontSize=16;" parent="agMplDie6IslOT2xBsOy-7" vertex="1">
          <mxGeometry x="7.5" y="60" width="20" height="10" as="geometry" />
        </mxCell>
        <mxCell id="agMplDie6IslOT2xBsOy-14" style="edgeStyle=none;curved=1;rounded=0;orthogonalLoop=1;jettySize=auto;html=1;entryX=-0.011;entryY=0.425;entryDx=0;entryDy=0;entryPerimeter=0;fontSize=12;startSize=8;endSize=8;" parent="EbmPIoyvLXl5pACf4xWa-1" source="EbmPIoyvLXl5pACf4xWa-43" target="agMplDie6IslOT2xBsOy-11" edge="1">
          <mxGeometry relative="1" as="geometry" />
        </mxCell>
        <mxCell id="agMplDie6IslOT2xBsOy-15" style="edgeStyle=none;curved=1;rounded=0;orthogonalLoop=1;jettySize=auto;html=1;entryX=-0.011;entryY=0.464;entryDx=0;entryDy=0;entryPerimeter=0;fontSize=12;startSize=8;endSize=8;" parent="EbmPIoyvLXl5pACf4xWa-1" source="EbmPIoyvLXl5pACf4xWa-33" target="agMplDie6IslOT2xBsOy-3" edge="1">
          <mxGeometry relative="1" as="geometry" />
        </mxCell>
        <mxCell id="agMplDie6IslOT2xBsOy-17" style="edgeStyle=orthogonalEdgeStyle;rounded=0;orthogonalLoop=1;jettySize=auto;html=1;entryX=0;entryY=0.5;entryDx=0;entryDy=0;entryPerimeter=0;fontSize=12;startSize=3;endSize=3;exitX=0.5;exitY=1;exitDx=0;exitDy=0;exitPerimeter=0;endArrow=circle;endFill=0;fillColor=#fff2cc;strokeColor=#d6b656;" parent="EbmPIoyvLXl5pACf4xWa-1" source="agMplDie6IslOT2xBsOy-3" target="EbmPIoyvLXl5pACf4xWa-33" edge="1">
          <mxGeometry relative="1" as="geometry">
            <Array as="points">
              <mxPoint x="-811.06" y="288" />
              <mxPoint x="-811.06" y="230" />
            </Array>
          </mxGeometry>
        </mxCell>
        <mxCell id="agMplDie6IslOT2xBsOy-18" style="edgeStyle=orthogonalEdgeStyle;rounded=0;orthogonalLoop=1;jettySize=auto;html=1;exitX=0.5;exitY=0;exitDx=0;exitDy=0;exitPerimeter=0;entryX=1;entryY=0.5;entryDx=0;entryDy=0;entryPerimeter=0;fontSize=12;startSize=3;endSize=3;endArrow=circle;endFill=0;fillColor=#fff2cc;strokeColor=#d6b656;" parent="EbmPIoyvLXl5pACf4xWa-1" source="agMplDie6IslOT2xBsOy-11" target="EbmPIoyvLXl5pACf4xWa-43" edge="1">
          <mxGeometry relative="1" as="geometry">
            <Array as="points">
              <mxPoint x="-426.06" y="288" />
              <mxPoint x="-426.06" y="230" />
            </Array>
          </mxGeometry>
        </mxCell>
      </root>
    </mxGraphModel>
  </diagram>
  <diagram id="tTxY7AdbnjMqPqRqKhTw" name="outputs">
    <mxGraphModel dx="2001" dy="491" grid="1" gridSize="10" guides="1" tooltips="1" connect="1" arrows="1" fold="1" page="1" pageScale="1" pageWidth="827" pageHeight="1169" math="0" shadow="0">
      <root>
        <mxCell id="0" />
        <mxCell id="1" parent="0" />
        <mxCell id="x_W74j9Griuf9NP2CxeH-18" value="" style="group;fontSize=16;" parent="1" vertex="1" connectable="0">
          <mxGeometry x="-777" y="140" width="68.75" height="60" as="geometry" />
        </mxCell>
        <mxCell id="x_W74j9Griuf9NP2CxeH-19" value="" style="group;fontSize=16;" parent="x_W74j9Griuf9NP2CxeH-18" vertex="1" connectable="0">
          <mxGeometry y="13" width="52.5" height="50" as="geometry" />
        </mxCell>
        <mxCell id="x_W74j9Griuf9NP2CxeH-20" value="" style="group;fontSize=16;" parent="x_W74j9Griuf9NP2CxeH-19" vertex="1" connectable="0">
          <mxGeometry x="-3.75" width="56.25" height="48.75" as="geometry" />
        </mxCell>
        <object label="" markers="●" placeholders="1" id="x_W74j9Griuf9NP2CxeH-21">
          <mxCell style="ellipse;whiteSpace=wrap;html=1;aspect=fixed;fontSize=16;direction=south;perimeterSpacing=0;strokeWidth=1;dashed=1;dashPattern=8 8;points=[[0,0.5,0,0,0],[0.5,0,0,0,0],[0.5,1,0,0,0],[1,0.5,0,0,0]];" parent="x_W74j9Griuf9NP2CxeH-20" vertex="1">
            <mxGeometry y="6.25" width="42.5" height="42.5" as="geometry" />
          </mxCell>
        </object>
        <object label="" markers="●" placeholders="1" id="x_W74j9Griuf9NP2CxeH-22">
          <mxCell style="ellipse;whiteSpace=wrap;html=1;aspect=fixed;fontSize=16;direction=south;perimeterSpacing=0;strokeWidth=1;points=[];" parent="x_W74j9Griuf9NP2CxeH-20" vertex="1">
            <mxGeometry x="3.75" y="10" width="35" height="35" as="geometry" />
          </mxCell>
        </object>
        <mxCell id="x_W74j9Griuf9NP2CxeH-23" value="&lt;b style=&quot;font-size: 9px;&quot;&gt;output_N&lt;/b&gt;" style="text;html=1;strokeColor=none;fillColor=none;align=center;verticalAlign=middle;whiteSpace=wrap;rounded=0;fontSize=16;" parent="x_W74j9Griuf9NP2CxeH-20" vertex="1">
          <mxGeometry x="11.25" y="-8" width="20" height="10" as="geometry" />
        </mxCell>
        <mxCell id="x_W74j9Griuf9NP2CxeH-24" value="" style="group;fontSize=16;" parent="1" vertex="1" connectable="0">
          <mxGeometry x="-487" y="142" width="68.75" height="60" as="geometry" />
        </mxCell>
        <mxCell id="x_W74j9Griuf9NP2CxeH-25" value="" style="group;fontSize=16;" parent="x_W74j9Griuf9NP2CxeH-24" vertex="1" connectable="0">
          <mxGeometry y="10" width="52.5" height="50" as="geometry" />
        </mxCell>
        <mxCell id="x_W74j9Griuf9NP2CxeH-26" value="" style="group;fontSize=16;" parent="x_W74j9Griuf9NP2CxeH-25" vertex="1" connectable="0">
          <mxGeometry x="-3.75" width="56.25" height="48.75" as="geometry" />
        </mxCell>
        <object label="" markers="●" placeholders="1" id="x_W74j9Griuf9NP2CxeH-27">
          <mxCell style="ellipse;whiteSpace=wrap;html=1;aspect=fixed;fontSize=16;direction=south;perimeterSpacing=0;strokeWidth=1;dashed=1;dashPattern=8 8;points=[[0,0.5,0,0,0],[0.5,0,0,0,0],[0.5,1,0,0,0],[1,0.5,0,0,0]];" parent="x_W74j9Griuf9NP2CxeH-26" vertex="1">
            <mxGeometry y="6.25" width="42.5" height="42.5" as="geometry" />
          </mxCell>
        </object>
        <object label="" markers="●" placeholders="1" id="x_W74j9Griuf9NP2CxeH-28">
          <mxCell style="ellipse;whiteSpace=wrap;html=1;aspect=fixed;fontSize=16;direction=south;perimeterSpacing=0;strokeWidth=1;points=[];" parent="x_W74j9Griuf9NP2CxeH-26" vertex="1">
            <mxGeometry x="3.75" y="10" width="35" height="35" as="geometry" />
          </mxCell>
        </object>
        <mxCell id="x_W74j9Griuf9NP2CxeH-29" value="&lt;b style=&quot;font-size: 9px;&quot;&gt;output_S&lt;/b&gt;" style="text;html=1;strokeColor=none;fillColor=none;align=center;verticalAlign=middle;whiteSpace=wrap;rounded=0;fontSize=16;" parent="x_W74j9Griuf9NP2CxeH-26" vertex="1">
          <mxGeometry x="11.25" y="-6.75" width="20" height="10" as="geometry" />
        </mxCell>
        <mxCell id="x_W74j9Griuf9NP2CxeH-30" value="" style="group;fontSize=16;" parent="1" vertex="1" connectable="0">
          <mxGeometry x="-784" y="224.00000000000006" width="70.91" height="21.830000000000013" as="geometry" />
        </mxCell>
        <mxCell id="x_W74j9Griuf9NP2CxeH-31" value="" style="group;points=[[0,0.5,0,0,0],[0.5,0,0,0,0],[0.5,1,0,0,0],[1,0.5,0,0,0]];fontSize=16;" parent="x_W74j9Griuf9NP2CxeH-30" vertex="1" connectable="0">
          <mxGeometry y="5.460000000000008" width="60" height="16.37" as="geometry" />
        </mxCell>
        <mxCell id="x_W74j9Griuf9NP2CxeH-32" value="" style="rounded=0;whiteSpace=wrap;html=1;fontSize=16;fillColor=#000000;points=[[0,0.5,0,0,0],[0.5,0,0,0,0],[0.5,1,0,0,0],[1,0.5,0,0,0]];" parent="x_W74j9Griuf9NP2CxeH-31" vertex="1">
          <mxGeometry y="5.456666666666667" width="49.09090909090909" height="10.913333333333334" as="geometry" />
        </mxCell>
        <mxCell id="x_W74j9Griuf9NP2CxeH-34" value="" style="group;fontSize=16;" parent="1" vertex="1" connectable="0">
          <mxGeometry x="-704" y="225.00000000000006" width="70.91" height="21.830000000000013" as="geometry" />
        </mxCell>
        <mxCell id="x_W74j9Griuf9NP2CxeH-35" value="" style="group;points=[[0,0.5,0,0,0],[0.5,0,0,0,0],[0.5,1,0,0,0],[1,0.5,0,0,0]];fontSize=16;" parent="x_W74j9Griuf9NP2CxeH-34" vertex="1" connectable="0">
          <mxGeometry y="5.460000000000008" width="60" height="16.37" as="geometry" />
        </mxCell>
        <mxCell id="x_W74j9Griuf9NP2CxeH-36" value="" style="rounded=0;whiteSpace=wrap;html=1;fontSize=16;fillColor=#000000;points=[[0,0.5,0,0,0],[0.5,0,0,0,0],[0.5,1,0,0,0],[1,0.5,0,0,0]];" parent="x_W74j9Griuf9NP2CxeH-35" vertex="1">
          <mxGeometry y="5.456666666666667" width="49.09090909090909" height="10.913333333333334" as="geometry" />
        </mxCell>
        <mxCell id="x_W74j9Griuf9NP2CxeH-37" value="&lt;b style=&quot;font-size: 9px;&quot;&gt;skip_N&lt;/b&gt;" style="text;html=1;strokeColor=none;fillColor=none;align=center;verticalAlign=middle;whiteSpace=wrap;rounded=0;fontSize=16;" parent="x_W74j9Griuf9NP2CxeH-34" vertex="1">
          <mxGeometry x="60.00090909090909" width="10.90909090909091" height="5.456666666666667" as="geometry" />
        </mxCell>
        <mxCell id="x_W74j9Griuf9NP2CxeH-38" value="" style="group;fontSize=16;" parent="1" vertex="1" connectable="0">
          <mxGeometry x="-574" y="224.00000000000006" width="70.91" height="21.830000000000013" as="geometry" />
        </mxCell>
        <mxCell id="x_W74j9Griuf9NP2CxeH-39" value="" style="group;points=[[0,0.5,0,0,0],[0.5,0,0,0,0],[0.5,1,0,0,0],[1,0.5,0,0,0]];fontSize=16;" parent="x_W74j9Griuf9NP2CxeH-38" vertex="1" connectable="0">
          <mxGeometry y="5.460000000000008" width="60" height="16.37" as="geometry" />
        </mxCell>
        <mxCell id="x_W74j9Griuf9NP2CxeH-40" value="" style="rounded=0;whiteSpace=wrap;html=1;fontSize=16;fillColor=#000000;points=[[0,0.5,0,0,0],[0.5,0,0,0,0],[0.5,1,0,0,0],[1,0.5,0,0,0]];" parent="x_W74j9Griuf9NP2CxeH-39" vertex="1">
          <mxGeometry y="5.456666666666667" width="49.09090909090909" height="10.913333333333334" as="geometry" />
        </mxCell>
        <mxCell id="x_W74j9Griuf9NP2CxeH-42" value="" style="group;fontSize=16;" parent="1" vertex="1" connectable="0">
          <mxGeometry x="-494.00000000000006" y="224.00000000000006" width="70.91" height="21.830000000000013" as="geometry" />
        </mxCell>
        <mxCell id="x_W74j9Griuf9NP2CxeH-43" value="" style="group;points=[[0,0.5,0,0,0],[0.5,0,0,0,0],[0.5,1,0,0,0],[1,0.5,0,0,0]];fontSize=16;" parent="x_W74j9Griuf9NP2CxeH-42" vertex="1" connectable="0">
          <mxGeometry y="5.460000000000008" width="60" height="16.37" as="geometry" />
        </mxCell>
        <mxCell id="x_W74j9Griuf9NP2CxeH-44" value="" style="rounded=0;whiteSpace=wrap;html=1;fontSize=16;fillColor=#000000;points=[[0,0.5,0,0,0],[0.5,0,0,0,0],[0.5,1,0,0,0],[1,0.5,0,0,0]];" parent="x_W74j9Griuf9NP2CxeH-43" vertex="1">
          <mxGeometry y="5.456666666666667" width="49.09090909090909" height="10.913333333333334" as="geometry" />
        </mxCell>
        <mxCell id="x_W74j9Griuf9NP2CxeH-45" value="&lt;b style=&quot;font-size: 9px;&quot;&gt;consume_S&lt;/b&gt;" style="text;html=1;strokeColor=none;fillColor=none;align=center;verticalAlign=middle;whiteSpace=wrap;rounded=0;fontSize=16;" parent="x_W74j9Griuf9NP2CxeH-42" vertex="1">
          <mxGeometry x="57.00090909090909" y="-1" width="10.90909090909091" height="5.456666666666667" as="geometry" />
        </mxCell>
        <mxCell id="x_W74j9Griuf9NP2CxeH-46" style="edgeStyle=none;curved=1;rounded=0;orthogonalLoop=1;jettySize=auto;html=1;exitX=1;exitY=0.5;exitDx=0;exitDy=0;exitPerimeter=0;entryX=0.5;entryY=0;entryDx=0;entryDy=0;entryPerimeter=0;fontSize=12;startSize=8;endSize=8;" parent="1" source="x_W74j9Griuf9NP2CxeH-21" target="x_W74j9Griuf9NP2CxeH-32" edge="1">
          <mxGeometry relative="1" as="geometry" />
        </mxCell>
        <mxCell id="x_W74j9Griuf9NP2CxeH-49" style="edgeStyle=none;curved=1;rounded=0;orthogonalLoop=1;jettySize=auto;html=1;exitX=1;exitY=0.5;exitDx=0;exitDy=0;exitPerimeter=0;entryX=0.5;entryY=0;entryDx=0;entryDy=0;entryPerimeter=0;fontSize=12;startSize=8;endSize=8;" parent="1" source="x_W74j9Griuf9NP2CxeH-27" target="x_W74j9Griuf9NP2CxeH-44" edge="1">
          <mxGeometry relative="1" as="geometry" />
        </mxCell>
        <mxCell id="x_W74j9Griuf9NP2CxeH-41" value="&lt;b style=&quot;font-size: 9px;&quot;&gt;skip_S&lt;/b&gt;" style="text;html=1;strokeColor=none;fillColor=none;align=center;verticalAlign=middle;whiteSpace=wrap;rounded=0;fontSize=16;" parent="1" vertex="1">
          <mxGeometry x="-593.9990909090909" y="225.00000000000006" width="10.90909090909091" height="5.456666666666667" as="geometry" />
        </mxCell>
        <mxCell id="x_W74j9Griuf9NP2CxeH-33" value="&lt;b style=&quot;font-size: 9px;&quot;&gt;consume_N&lt;/b&gt;" style="text;html=1;strokeColor=none;fillColor=none;align=center;verticalAlign=middle;whiteSpace=wrap;rounded=0;fontSize=16;" parent="1" vertex="1">
          <mxGeometry x="-802.9990909090909" y="222.00000000000006" width="10.90909090909091" height="5.456666666666667" as="geometry" />
        </mxCell>
      </root>
    </mxGraphModel>
  </diagram>
  <diagram name="full_roundabout" id="cZ5Yu7u7q_Z-AqZyqa0k">
    <mxGraphModel dx="4506" dy="847" grid="1" gridSize="10" guides="1" tooltips="1" connect="1" arrows="1" fold="1" page="1" pageScale="1" pageWidth="827" pageHeight="1169" math="0" shadow="0">
      <root>
        <mxCell id="lydrGFN5QWvYqXAOOCpk-0" />
        <mxCell id="lydrGFN5QWvYqXAOOCpk-1" parent="lydrGFN5QWvYqXAOOCpk-0" />
        <mxCell id="lydrGFN5QWvYqXAOOCpk-2" value="" style="group;fontSize=16;" vertex="1" connectable="0" parent="lydrGFN5QWvYqXAOOCpk-1">
          <mxGeometry x="-1680" y="324.83000000000004" width="58.75" height="52.5" as="geometry" />
        </mxCell>
        <object label="" markers="●" placeholders="1" id="lydrGFN5QWvYqXAOOCpk-3">
          <mxCell style="ellipse;whiteSpace=wrap;html=1;aspect=fixed;fontSize=16;direction=south;perimeterSpacing=0;strokeWidth=1;points=[];container=0;" vertex="1" parent="lydrGFN5QWvYqXAOOCpk-2">
            <mxGeometry x="3.75" y="13.75" width="35" height="35" as="geometry" />
          </mxCell>
        </object>
        <object label="" markers="●" placeholders="1" id="lydrGFN5QWvYqXAOOCpk-4">
          <mxCell style="ellipse;whiteSpace=wrap;html=1;aspect=fixed;fontSize=16;direction=south;perimeterSpacing=0;strokeWidth=1;dashed=1;dashPattern=8 8;points=[[0,0.5,0,0,0],[0.5,0,0,0,0],[0.5,1,0,0,0],[1,0.5,0,0,0]];container=0;fillColor=none;" vertex="1" parent="lydrGFN5QWvYqXAOOCpk-2">
            <mxGeometry y="10" width="42.5" height="42.5" as="geometry" />
          </mxCell>
        </object>
        <mxCell id="lydrGFN5QWvYqXAOOCpk-5" value="" style="group;fontSize=16;" vertex="1" connectable="0" parent="lydrGFN5QWvYqXAOOCpk-1">
          <mxGeometry x="-1680" y="639.83" width="58.75" height="52.5" as="geometry" />
        </mxCell>
        <object label="" markers="●" placeholders="1" id="lydrGFN5QWvYqXAOOCpk-6">
          <mxCell style="ellipse;whiteSpace=wrap;html=1;aspect=fixed;fontSize=16;direction=south;perimeterSpacing=0;strokeWidth=1;points=[];container=0;" vertex="1" parent="lydrGFN5QWvYqXAOOCpk-5">
            <mxGeometry x="3.75" y="13.75" width="35" height="35" as="geometry" />
          </mxCell>
        </object>
        <object label="" markers="●" placeholders="1" id="lydrGFN5QWvYqXAOOCpk-7">
          <mxCell style="ellipse;whiteSpace=wrap;html=1;aspect=fixed;fontSize=16;direction=south;perimeterSpacing=0;strokeWidth=1;dashed=1;dashPattern=8 8;points=[[0,0.5,0,0,0],[0.5,0,0,0,0],[0.5,1,0,0,0],[1,0.5,0,0,0]];container=0;fillColor=none;" vertex="1" parent="lydrGFN5QWvYqXAOOCpk-5">
            <mxGeometry y="10" width="42.5" height="42.5" as="geometry" />
          </mxCell>
        </object>
        <mxCell id="lydrGFN5QWvYqXAOOCpk-8" value="" style="group;fontSize=16;" vertex="1" connectable="0" parent="lydrGFN5QWvYqXAOOCpk-1">
          <mxGeometry x="-1520" y="484.83000000000004" width="58.75" height="52.5" as="geometry" />
        </mxCell>
        <object label="" markers="●" placeholders="1" id="lydrGFN5QWvYqXAOOCpk-9">
          <mxCell style="ellipse;whiteSpace=wrap;html=1;aspect=fixed;fontSize=16;direction=south;perimeterSpacing=0;strokeWidth=1;points=[];container=0;" vertex="1" parent="lydrGFN5QWvYqXAOOCpk-8">
            <mxGeometry x="3.75" y="13.75" width="35" height="35" as="geometry" />
          </mxCell>
        </object>
        <object label="" markers="●" placeholders="1" id="lydrGFN5QWvYqXAOOCpk-10">
          <mxCell style="ellipse;whiteSpace=wrap;html=1;aspect=fixed;fontSize=16;direction=south;perimeterSpacing=0;strokeWidth=1;dashed=1;dashPattern=8 8;points=[[0,0.5,0,0,0],[0.5,0,0,0,0],[0.5,1,0,0,0],[1,0.5,0,0,0]];container=0;fillColor=none;" vertex="1" parent="lydrGFN5QWvYqXAOOCpk-8">
            <mxGeometry y="10" width="42.5" height="42.5" as="geometry" />
          </mxCell>
        </object>
        <mxCell id="lydrGFN5QWvYqXAOOCpk-11" value="" style="group;fontSize=16;" vertex="1" connectable="0" parent="lydrGFN5QWvYqXAOOCpk-1">
          <mxGeometry x="-1840" y="484.83000000000004" width="58.75" height="52.5" as="geometry" />
        </mxCell>
        <object label="" markers="●" placeholders="1" id="lydrGFN5QWvYqXAOOCpk-12">
          <mxCell style="ellipse;whiteSpace=wrap;html=1;aspect=fixed;fontSize=16;direction=south;perimeterSpacing=0;strokeWidth=1;points=[];container=0;" vertex="1" parent="lydrGFN5QWvYqXAOOCpk-11">
            <mxGeometry x="3.75" y="13.75" width="35" height="35" as="geometry" />
          </mxCell>
        </object>
        <object label="" markers="●" placeholders="1" id="lydrGFN5QWvYqXAOOCpk-13">
          <mxCell style="ellipse;whiteSpace=wrap;html=1;aspect=fixed;fontSize=16;direction=south;perimeterSpacing=0;strokeWidth=1;dashed=1;dashPattern=8 8;points=[[0,0.5,0,0,0],[0.5,0,0,0,0],[0.5,1,0,0,0],[1,0.5,0,0,0]];container=0;fillColor=none;" vertex="1" parent="lydrGFN5QWvYqXAOOCpk-11">
            <mxGeometry y="10" width="42.5" height="42.5" as="geometry" />
          </mxCell>
        </object>
        <mxCell id="lydrGFN5QWvYqXAOOCpk-14" style="edgeStyle=none;curved=1;rounded=0;orthogonalLoop=1;jettySize=auto;html=1;exitX=0.179;exitY=0.087;exitDx=0;exitDy=0;exitPerimeter=0;entryX=0.5;entryY=1;entryDx=0;entryDy=0;entryPerimeter=0;fontSize=12;startSize=8;endSize=8;" edge="1" parent="lydrGFN5QWvYqXAOOCpk-1" source="lydrGFN5QWvYqXAOOCpk-7" target="lydrGFN5QWvYqXAOOCpk-21">
          <mxGeometry relative="1" as="geometry" />
        </mxCell>
        <mxCell id="lydrGFN5QWvYqXAOOCpk-15" style="edgeStyle=none;curved=1;rounded=0;orthogonalLoop=1;jettySize=auto;html=1;exitX=0.5;exitY=0;exitDx=0;exitDy=0;exitPerimeter=0;entryX=0.822;entryY=0.897;entryDx=0;entryDy=0;entryPerimeter=0;fontSize=12;startSize=8;endSize=8;" edge="1" parent="lydrGFN5QWvYqXAOOCpk-1" source="lydrGFN5QWvYqXAOOCpk-21" target="lydrGFN5QWvYqXAOOCpk-10">
          <mxGeometry relative="1" as="geometry" />
        </mxCell>
        <mxCell id="lydrGFN5QWvYqXAOOCpk-16" value="&lt;b style=&quot;font-size: 9px;&quot;&gt;core_S&lt;/b&gt;" style="text;html=1;strokeColor=none;fillColor=none;align=center;verticalAlign=middle;whiteSpace=wrap;rounded=0;fontSize=16;points=[];container=0;" vertex="1" parent="lydrGFN5QWvYqXAOOCpk-1">
          <mxGeometry x="-1629.09" y="660" width="20" height="10" as="geometry" />
        </mxCell>
        <mxCell id="lydrGFN5QWvYqXAOOCpk-17" value="&lt;b style=&quot;font-size: 9px;&quot;&gt;core_E&lt;/b&gt;" style="text;html=1;strokeColor=none;fillColor=none;align=center;verticalAlign=middle;whiteSpace=wrap;rounded=0;fontSize=16;points=[];container=0;" vertex="1" parent="lydrGFN5QWvYqXAOOCpk-1">
          <mxGeometry x="-1469" y="497.83000000000004" width="20" height="10" as="geometry" />
        </mxCell>
        <mxCell id="lydrGFN5QWvYqXAOOCpk-18" value="&lt;b style=&quot;font-size: 9px;&quot;&gt;core_W&lt;/b&gt;" style="text;html=1;strokeColor=none;fillColor=none;align=center;verticalAlign=middle;whiteSpace=wrap;rounded=0;fontSize=16;points=[];container=0;" vertex="1" parent="lydrGFN5QWvYqXAOOCpk-1">
          <mxGeometry x="-1870" y="511.08000000000004" width="20" height="10" as="geometry" />
        </mxCell>
        <mxCell id="lydrGFN5QWvYqXAOOCpk-19" value="&lt;b style=&quot;font-size: 9px;&quot;&gt;core_N&lt;/b&gt;" style="text;html=1;strokeColor=none;fillColor=none;align=center;verticalAlign=middle;whiteSpace=wrap;rounded=0;fontSize=16;points=[];container=0;" vertex="1" parent="lydrGFN5QWvYqXAOOCpk-1">
          <mxGeometry x="-1713.27" y="347.21000000000004" width="20" height="10" as="geometry" />
        </mxCell>
        <mxCell id="lydrGFN5QWvYqXAOOCpk-20" value="" style="group" vertex="1" connectable="0" parent="lydrGFN5QWvYqXAOOCpk-1">
          <mxGeometry x="-1600.999248813617" y="573.8286299742617" width="51.489248813616996" height="45.38803669240491" as="geometry" />
        </mxCell>
        <mxCell id="lydrGFN5QWvYqXAOOCpk-21" value="" style="rounded=0;whiteSpace=wrap;html=1;fontSize=16;fillColor=#000000;points=[[0,0.5,0,0,0],[0.5,0,0,0,0],[0.5,1,0,0,0],[1,0.5,0,0,0]];rotation=45;container=0;" vertex="1" parent="lydrGFN5QWvYqXAOOCpk-20">
          <mxGeometry x="-3.3307511863829404" y="15.758036692404971" width="49.09090909090909" height="10.913333333333334" as="geometry" />
        </mxCell>
        <mxCell id="lydrGFN5QWvYqXAOOCpk-22" value="" style="group" vertex="1" connectable="0" parent="lydrGFN5QWvYqXAOOCpk-1">
          <mxGeometry x="-1761.999248813617" y="413.82862997426173" width="51.489248813616996" height="45.38803669240491" as="geometry" />
        </mxCell>
        <mxCell id="lydrGFN5QWvYqXAOOCpk-23" value="" style="rounded=0;whiteSpace=wrap;html=1;fontSize=16;fillColor=#000000;points=[[0,0.5,0,0,0],[0.5,0,0,0,0],[0.5,1,0,0,0],[1,0.5,0,0,0]];rotation=45;container=0;" vertex="1" parent="lydrGFN5QWvYqXAOOCpk-22">
          <mxGeometry x="-3.3307511863829404" y="15.758036692404971" width="49.09090909090909" height="10.913333333333334" as="geometry" />
        </mxCell>
        <mxCell id="lydrGFN5QWvYqXAOOCpk-24" style="edgeStyle=none;curved=1;rounded=0;orthogonalLoop=1;jettySize=auto;html=1;entryX=0.5;entryY=0;entryDx=0;entryDy=0;entryPerimeter=0;fontSize=12;startSize=8;endSize=8;" edge="1" parent="lydrGFN5QWvYqXAOOCpk-1" source="lydrGFN5QWvYqXAOOCpk-4" target="lydrGFN5QWvYqXAOOCpk-23">
          <mxGeometry relative="1" as="geometry" />
        </mxCell>
        <mxCell id="lydrGFN5QWvYqXAOOCpk-25" style="edgeStyle=none;curved=1;rounded=0;orthogonalLoop=1;jettySize=auto;html=1;exitX=0.5;exitY=1;exitDx=0;exitDy=0;exitPerimeter=0;entryX=0.133;entryY=0.137;entryDx=0;entryDy=0;entryPerimeter=0;fontSize=12;startSize=8;endSize=8;" edge="1" parent="lydrGFN5QWvYqXAOOCpk-1" source="lydrGFN5QWvYqXAOOCpk-23" target="lydrGFN5QWvYqXAOOCpk-13">
          <mxGeometry relative="1" as="geometry" />
        </mxCell>
        <mxCell id="lydrGFN5QWvYqXAOOCpk-26" value="&lt;b style=&quot;font-size: 9px;&quot;&gt;move_N&lt;/b&gt;" style="text;html=1;strokeColor=none;fillColor=none;align=center;verticalAlign=middle;whiteSpace=wrap;rounded=0;fontSize=16;points=[];container=0;" vertex="1" parent="lydrGFN5QWvYqXAOOCpk-1">
          <mxGeometry x="-1733.999090909091" y="460.8299999999999" width="10.90909090909091" height="5.456666666666667" as="geometry" />
        </mxCell>
        <mxCell id="lydrGFN5QWvYqXAOOCpk-27" style="edgeStyle=none;rounded=0;orthogonalLoop=1;jettySize=auto;html=1;entryX=0.963;entryY=0.092;entryDx=0;entryDy=0;entryPerimeter=0;fontSize=12;startSize=8;endSize=3;fillColor=#fff2cc;strokeColor=#d6b656;endArrow=circle;endFill=0;" edge="1" parent="lydrGFN5QWvYqXAOOCpk-1" source="lydrGFN5QWvYqXAOOCpk-10" target="lydrGFN5QWvYqXAOOCpk-21">
          <mxGeometry relative="1" as="geometry">
            <Array as="points">
              <mxPoint x="-1480" y="544.83" />
            </Array>
          </mxGeometry>
        </mxCell>
        <mxCell id="lydrGFN5QWvYqXAOOCpk-28" style="edgeStyle=none;rounded=0;orthogonalLoop=1;jettySize=auto;html=1;entryX=-0.001;entryY=1.04;entryDx=0;entryDy=0;entryPerimeter=0;fontSize=12;startSize=8;endSize=3;fillColor=#fff2cc;strokeColor=#d6b656;endArrow=circle;endFill=0;" edge="1" parent="lydrGFN5QWvYqXAOOCpk-1" source="lydrGFN5QWvYqXAOOCpk-13" target="lydrGFN5QWvYqXAOOCpk-23">
          <mxGeometry relative="1" as="geometry">
            <Array as="points">
              <mxPoint x="-1840" y="484.83000000000004" />
            </Array>
          </mxGeometry>
        </mxCell>
        <mxCell id="lydrGFN5QWvYqXAOOCpk-29" style="edgeStyle=none;curved=1;rounded=0;orthogonalLoop=1;jettySize=auto;html=1;entryX=0.5;entryY=0;entryDx=0;entryDy=0;entryPerimeter=0;fontSize=12;startSize=8;endSize=8;" edge="1" parent="lydrGFN5QWvYqXAOOCpk-1" source="lydrGFN5QWvYqXAOOCpk-13" target="lydrGFN5QWvYqXAOOCpk-34">
          <mxGeometry relative="1" as="geometry" />
        </mxCell>
        <mxCell id="lydrGFN5QWvYqXAOOCpk-30" style="edgeStyle=none;curved=1;rounded=0;orthogonalLoop=1;jettySize=auto;html=1;exitX=0.5;exitY=1;exitDx=0;exitDy=0;exitPerimeter=0;entryX=0.231;entryY=0.917;entryDx=0;entryDy=0;entryPerimeter=0;fontSize=12;startSize=8;endSize=8;" edge="1" parent="lydrGFN5QWvYqXAOOCpk-1" source="lydrGFN5QWvYqXAOOCpk-34" target="lydrGFN5QWvYqXAOOCpk-7">
          <mxGeometry relative="1" as="geometry" />
        </mxCell>
        <mxCell id="lydrGFN5QWvYqXAOOCpk-31" style="edgeStyle=none;rounded=0;orthogonalLoop=1;jettySize=auto;html=1;entryX=0.005;entryY=0.995;entryDx=0;entryDy=0;entryPerimeter=0;fontSize=12;startSize=8;endSize=3;fillColor=#fff2cc;strokeColor=#d6b656;endArrow=circle;endFill=0;" edge="1" parent="lydrGFN5QWvYqXAOOCpk-1" source="lydrGFN5QWvYqXAOOCpk-7" target="lydrGFN5QWvYqXAOOCpk-34">
          <mxGeometry relative="1" as="geometry">
            <Array as="points">
              <mxPoint x="-1690" y="694.83" />
            </Array>
          </mxGeometry>
        </mxCell>
        <mxCell id="lydrGFN5QWvYqXAOOCpk-32" value="" style="group" vertex="1" connectable="0" parent="lydrGFN5QWvYqXAOOCpk-1">
          <mxGeometry x="-1789" y="573.2786299742617" width="70.58015790452623" height="43.381370025738306" as="geometry" />
        </mxCell>
        <mxCell id="lydrGFN5QWvYqXAOOCpk-33" value="" style="group" vertex="1" connectable="0" parent="lydrGFN5QWvYqXAOOCpk-32">
          <mxGeometry x="6" width="64.58015790452623" height="43.381370025738306" as="geometry" />
        </mxCell>
        <mxCell id="lydrGFN5QWvYqXAOOCpk-34" value="" style="rounded=0;whiteSpace=wrap;html=1;fontSize=16;fillColor=#000000;points=[[0,0.5,0,0,0],[0.5,0,0,0,0],[0.5,1,0,0,0],[1,0.5,0,0,0]];rotation=315;container=0;" vertex="1" parent="lydrGFN5QWvYqXAOOCpk-33">
          <mxGeometry x="18.820000000000164" y="15.758036692404971" width="49.09090909090909" height="10.913333333333334" as="geometry" />
        </mxCell>
        <mxCell id="lydrGFN5QWvYqXAOOCpk-35" value="" style="group" vertex="1" connectable="0" parent="lydrGFN5QWvYqXAOOCpk-1">
          <mxGeometry x="-1628" y="411.82862997426173" width="70.58015790452623" height="43.381370025738306" as="geometry" />
        </mxCell>
        <mxCell id="lydrGFN5QWvYqXAOOCpk-36" value="" style="group" vertex="1" connectable="0" parent="lydrGFN5QWvYqXAOOCpk-35">
          <mxGeometry x="6" width="64.58015790452623" height="43.381370025738306" as="geometry" />
        </mxCell>
        <mxCell id="lydrGFN5QWvYqXAOOCpk-37" value="" style="rounded=0;whiteSpace=wrap;html=1;fontSize=16;fillColor=#000000;points=[[0,0.5,0,0,0],[0.5,0,0,0,0],[0.5,1,0,0,0],[1,0.5,0,0,0]];rotation=315;container=0;" vertex="1" parent="lydrGFN5QWvYqXAOOCpk-36">
          <mxGeometry x="18.820000000000164" y="15.758036692404971" width="49.09090909090909" height="10.913333333333334" as="geometry" />
        </mxCell>
        <mxCell id="lydrGFN5QWvYqXAOOCpk-38" value="&lt;b style=&quot;font-size: 9px;&quot;&gt;move_E&lt;/b&gt;" style="text;html=1;strokeColor=none;fillColor=none;align=center;verticalAlign=middle;whiteSpace=wrap;rounded=0;fontSize=16;points=[];container=0;" vertex="1" parent="lydrGFN5QWvYqXAOOCpk-1">
          <mxGeometry x="-1598" y="459.8299999999999" width="10.91" height="4.54" as="geometry" />
        </mxCell>
        <mxCell id="lydrGFN5QWvYqXAOOCpk-39" style="edgeStyle=none;curved=1;rounded=0;orthogonalLoop=1;jettySize=auto;html=1;entryX=0.5;entryY=1;entryDx=0;entryDy=0;entryPerimeter=0;fontSize=12;startSize=8;endSize=8;" edge="1" parent="lydrGFN5QWvYqXAOOCpk-1" source="lydrGFN5QWvYqXAOOCpk-10" target="lydrGFN5QWvYqXAOOCpk-37">
          <mxGeometry relative="1" as="geometry" />
        </mxCell>
        <mxCell id="lydrGFN5QWvYqXAOOCpk-40" style="edgeStyle=none;curved=1;rounded=0;orthogonalLoop=1;jettySize=auto;html=1;exitX=0.5;exitY=0;exitDx=0;exitDy=0;exitPerimeter=0;entryX=0.824;entryY=0.098;entryDx=0;entryDy=0;entryPerimeter=0;fontSize=12;startSize=8;endSize=8;" edge="1" parent="lydrGFN5QWvYqXAOOCpk-1" source="lydrGFN5QWvYqXAOOCpk-37" target="lydrGFN5QWvYqXAOOCpk-4">
          <mxGeometry relative="1" as="geometry" />
        </mxCell>
        <mxCell id="lydrGFN5QWvYqXAOOCpk-41" style="edgeStyle=none;rounded=0;orthogonalLoop=1;jettySize=auto;html=1;entryX=0.968;entryY=-0.056;entryDx=0;entryDy=0;entryPerimeter=0;fontSize=12;startSize=8;endSize=3;fillColor=#fff2cc;strokeColor=#d6b656;endArrow=circle;endFill=0;" edge="1" parent="lydrGFN5QWvYqXAOOCpk-1" source="lydrGFN5QWvYqXAOOCpk-4" target="lydrGFN5QWvYqXAOOCpk-37">
          <mxGeometry relative="1" as="geometry">
            <Array as="points">
              <mxPoint x="-1630" y="334.83000000000004" />
            </Array>
          </mxGeometry>
        </mxCell>
        <mxCell id="lydrGFN5QWvYqXAOOCpk-42" value="" style="group" vertex="1" connectable="0" parent="lydrGFN5QWvYqXAOOCpk-1">
          <mxGeometry x="-1683" y="449.8266666666667" width="49.09090909090901" height="15.539999999999992" as="geometry" />
        </mxCell>
        <mxCell id="lydrGFN5QWvYqXAOOCpk-43" value="&lt;b style=&quot;font-size: 9px;&quot;&gt;skip_N&lt;/b&gt;" style="text;html=1;strokeColor=none;fillColor=none;align=center;verticalAlign=middle;whiteSpace=wrap;rounded=0;fontSize=16;points=[];" vertex="1" parent="lydrGFN5QWvYqXAOOCpk-42">
          <mxGeometry x="18.00090909090909" y="10.083333333333314" width="10.90909090909091" height="5.456666666666667" as="geometry" />
        </mxCell>
        <mxCell id="lydrGFN5QWvYqXAOOCpk-44" value="" style="rounded=0;whiteSpace=wrap;html=1;fontSize=16;fillColor=#000000;points=[[0,0.5,0,0,0],[0.5,0,0,0,0],[0.5,1,0,0,0],[1,0.5,0,0,0]];" vertex="1" parent="lydrGFN5QWvYqXAOOCpk-42">
          <mxGeometry width="49.09090909090909" height="10.913333333333334" as="geometry" />
        </mxCell>
        <mxCell id="lydrGFN5QWvYqXAOOCpk-45" value="" style="group" vertex="1" connectable="0" parent="lydrGFN5QWvYqXAOOCpk-1">
          <mxGeometry x="-1683" y="554.83" width="49.09090909090901" height="25.83000000000004" as="geometry" />
        </mxCell>
        <mxCell id="lydrGFN5QWvYqXAOOCpk-46" value="&lt;font size=&quot;1&quot;&gt;&lt;b style=&quot;font-size: 9px;&quot;&gt;skip_S&lt;/b&gt;&lt;/font&gt;" style="text;html=1;strokeColor=none;fillColor=none;align=center;verticalAlign=middle;whiteSpace=wrap;rounded=0;fontSize=16;points=[];" vertex="1" parent="lydrGFN5QWvYqXAOOCpk-45">
          <mxGeometry x="20.00090909090909" width="10.90909090909091" height="5.456666666666667" as="geometry" />
        </mxCell>
        <mxCell id="lydrGFN5QWvYqXAOOCpk-47" value="" style="rounded=0;whiteSpace=wrap;html=1;fontSize=16;fillColor=#000000;points=[[0,0.5,0,0,0],[0.5,0,0,0,0],[0.5,1,0,0,0],[1,0.5,0,0,0]];" vertex="1" parent="lydrGFN5QWvYqXAOOCpk-45">
          <mxGeometry y="14.916666666666686" width="49.09090909090909" height="10.913333333333334" as="geometry" />
        </mxCell>
        <mxCell id="lydrGFN5QWvYqXAOOCpk-48" value="&lt;b style=&quot;font-size: 9px;&quot;&gt;move_W&lt;/b&gt;" style="text;html=1;strokeColor=none;fillColor=none;align=center;verticalAlign=middle;whiteSpace=wrap;rounded=0;fontSize=16;points=[];container=0;" vertex="1" parent="lydrGFN5QWvYqXAOOCpk-1">
          <mxGeometry x="-1731" y="555.8299999999999" width="10.91" height="4.54" as="geometry" />
        </mxCell>
        <mxCell id="lydrGFN5QWvYqXAOOCpk-49" value="&lt;b style=&quot;font-size: 9px;&quot;&gt;move_S&lt;/b&gt;" style="text;html=1;strokeColor=none;fillColor=none;align=center;verticalAlign=middle;whiteSpace=wrap;rounded=0;fontSize=16;points=[];container=0;" vertex="1" parent="lydrGFN5QWvYqXAOOCpk-1">
          <mxGeometry x="-1595.999090909091" y="552.8299999999999" width="10.90909090909091" height="5.456666666666667" as="geometry" />
        </mxCell>
        <mxCell id="lydrGFN5QWvYqXAOOCpk-50" value="" style="group;fontSize=16;" vertex="1" connectable="0" parent="lydrGFN5QWvYqXAOOCpk-1">
          <mxGeometry x="-1844.1599999999999" y="594.83" width="70.91" height="21.830000000000013" as="geometry" />
        </mxCell>
        <mxCell id="lydrGFN5QWvYqXAOOCpk-51" value="" style="group;points=[[0,0.5,0,0,0],[0.5,0,0,0,0],[0.5,1,0,0,0],[1,0.5,0,0,0]];fontSize=16;" vertex="1" connectable="0" parent="lydrGFN5QWvYqXAOOCpk-50">
          <mxGeometry y="5.460000000000008" width="60" height="16.37" as="geometry" />
        </mxCell>
        <mxCell id="lydrGFN5QWvYqXAOOCpk-52" value="" style="rounded=0;whiteSpace=wrap;html=1;fontSize=16;fillColor=#000000;points=[[0,0.5,0,0,0],[0.5,0,0,0,0],[0.5,1,0,0,0],[1,0.5,0,0,0]];" vertex="1" parent="lydrGFN5QWvYqXAOOCpk-51">
          <mxGeometry y="5.456666666666667" width="49.09090909090909" height="10.913333333333334" as="geometry" />
        </mxCell>
        <mxCell id="lydrGFN5QWvYqXAOOCpk-53" value="&lt;b style=&quot;font-size: 9px;&quot;&gt;stall_W&lt;/b&gt;" style="text;html=1;strokeColor=none;fillColor=none;align=center;verticalAlign=middle;whiteSpace=wrap;rounded=0;fontSize=16;points=[];" vertex="1" parent="lydrGFN5QWvYqXAOOCpk-50">
          <mxGeometry x="60.00090909090909" width="10.90909090909091" height="5.456666666666667" as="geometry" />
        </mxCell>
        <mxCell id="lydrGFN5QWvYqXAOOCpk-54" style="edgeStyle=none;curved=1;rounded=0;orthogonalLoop=1;jettySize=auto;html=1;entryX=0.5;entryY=0;entryDx=0;entryDy=0;entryPerimeter=0;fontSize=12;startSize=8;endSize=8;startArrow=classic;startFill=1;dashed=1;" edge="1" parent="lydrGFN5QWvYqXAOOCpk-1" source="lydrGFN5QWvYqXAOOCpk-13" target="lydrGFN5QWvYqXAOOCpk-52">
          <mxGeometry relative="1" as="geometry" />
        </mxCell>
        <mxCell id="lydrGFN5QWvYqXAOOCpk-55" style="edgeStyle=none;rounded=0;orthogonalLoop=1;jettySize=auto;html=1;fontSize=12;startSize=8;endSize=8;startArrow=classic;startFill=1;dashed=1;entryX=0.5;entryY=1;entryDx=0;entryDy=0;entryPerimeter=0;" edge="1" parent="lydrGFN5QWvYqXAOOCpk-1" source="lydrGFN5QWvYqXAOOCpk-7" target="lydrGFN5QWvYqXAOOCpk-52">
          <mxGeometry relative="1" as="geometry">
            <mxPoint x="-1820" y="671.08" as="targetPoint" />
            <Array as="points">
              <mxPoint x="-1820" y="669.83" />
            </Array>
          </mxGeometry>
        </mxCell>
        <mxCell id="lydrGFN5QWvYqXAOOCpk-56" value="" style="group;fontSize=16;" vertex="1" connectable="0" parent="lydrGFN5QWvYqXAOOCpk-1">
          <mxGeometry x="-1522.9999999999998" y="396.83000000000004" width="70.91" height="21.830000000000013" as="geometry" />
        </mxCell>
        <mxCell id="lydrGFN5QWvYqXAOOCpk-57" value="" style="group;points=[[0,0.5,0,0,0],[0.5,0,0,0,0],[0.5,1,0,0,0],[1,0.5,0,0,0]];fontSize=16;" vertex="1" connectable="0" parent="lydrGFN5QWvYqXAOOCpk-56">
          <mxGeometry y="5.460000000000008" width="60" height="16.37" as="geometry" />
        </mxCell>
        <mxCell id="lydrGFN5QWvYqXAOOCpk-58" value="" style="rounded=0;whiteSpace=wrap;html=1;fontSize=16;fillColor=#000000;points=[[0,0.5,0,0,0],[0.5,0,0,0,0],[0.5,1,0,0,0],[1,0.5,0,0,0]];" vertex="1" parent="lydrGFN5QWvYqXAOOCpk-57">
          <mxGeometry y="5.456666666666667" width="49.09090909090909" height="10.913333333333334" as="geometry" />
        </mxCell>
        <mxCell id="lydrGFN5QWvYqXAOOCpk-59" value="&lt;b style=&quot;font-size: 9px;&quot;&gt;stall_E&lt;/b&gt;" style="text;html=1;strokeColor=none;fillColor=none;align=center;verticalAlign=middle;whiteSpace=wrap;rounded=0;fontSize=16;points=[];" vertex="1" parent="lydrGFN5QWvYqXAOOCpk-56">
          <mxGeometry x="60.00090909090909" width="10.90909090909091" height="5.456666666666667" as="geometry" />
        </mxCell>
        <mxCell id="lydrGFN5QWvYqXAOOCpk-60" style="edgeStyle=none;curved=1;rounded=0;orthogonalLoop=1;jettySize=auto;html=1;exitX=0;exitY=0.5;exitDx=0;exitDy=0;exitPerimeter=0;entryX=0.5;entryY=1;entryDx=0;entryDy=0;entryPerimeter=0;fontSize=12;startSize=8;endSize=8;startArrow=classic;startFill=1;dashed=1;" edge="1" parent="lydrGFN5QWvYqXAOOCpk-1" source="lydrGFN5QWvYqXAOOCpk-10" target="lydrGFN5QWvYqXAOOCpk-58">
          <mxGeometry relative="1" as="geometry" />
        </mxCell>
        <mxCell id="lydrGFN5QWvYqXAOOCpk-61" style="edgeStyle=none;rounded=0;orthogonalLoop=1;jettySize=auto;html=1;exitX=0.5;exitY=0;exitDx=0;exitDy=0;exitPerimeter=0;entryX=0.5;entryY=0;entryDx=0;entryDy=0;entryPerimeter=0;fontSize=12;startSize=8;endSize=8;dashed=1;startArrow=classic;startFill=1;" edge="1" parent="lydrGFN5QWvYqXAOOCpk-1" source="lydrGFN5QWvYqXAOOCpk-4" target="lydrGFN5QWvYqXAOOCpk-58">
          <mxGeometry relative="1" as="geometry">
            <Array as="points">
              <mxPoint x="-1499" y="357.83000000000004" />
            </Array>
          </mxGeometry>
        </mxCell>
        <mxCell id="lydrGFN5QWvYqXAOOCpk-62" value="" style="group;fontSize=16;" vertex="1" connectable="0" parent="lydrGFN5QWvYqXAOOCpk-1">
          <mxGeometry x="-1730.0012121212121" y="479.83000000000004" width="25.82121212121217" height="60.918787878787896" as="geometry" />
        </mxCell>
        <mxCell id="lydrGFN5QWvYqXAOOCpk-63" value="" style="rounded=0;whiteSpace=wrap;html=1;fontSize=16;fillColor=#000000;points=[[0,0.5,0,0,0],[0.5,0,0,0,0],[0.5,1,0,0,0],[1,0.5,0,0,0]];rotation=90;container=0;" vertex="1" parent="lydrGFN5QWvYqXAOOCpk-62">
          <mxGeometry x="-19.088787878787855" y="30.916666666666686" width="49.09090909090909" height="10.913333333333334" as="geometry" />
        </mxCell>
        <mxCell id="lydrGFN5QWvYqXAOOCpk-64" style="edgeStyle=none;curved=1;rounded=0;orthogonalLoop=1;jettySize=auto;html=1;exitX=0.5;exitY=0;exitDx=0;exitDy=0;exitPerimeter=0;entryX=0.5;entryY=1;entryDx=0;entryDy=0;entryPerimeter=0;fontSize=12;startSize=8;endSize=3;endArrow=circle;endFill=0;fillColor=#fff2cc;strokeColor=#d6b656;" edge="1" parent="lydrGFN5QWvYqXAOOCpk-1" source="lydrGFN5QWvYqXAOOCpk-13" target="lydrGFN5QWvYqXAOOCpk-63">
          <mxGeometry relative="1" as="geometry" />
        </mxCell>
        <mxCell id="lydrGFN5QWvYqXAOOCpk-65" value="&lt;b style=&quot;font-size: 9px;&quot;&gt;skip_W&lt;/b&gt;" style="text;html=1;strokeColor=none;fillColor=none;align=center;verticalAlign=middle;whiteSpace=wrap;rounded=0;fontSize=16;points=[];container=0;" vertex="1" parent="lydrGFN5QWvYqXAOOCpk-1">
          <mxGeometry x="-1704.179090909091" y="509.83000000000004" width="10.90909090909091" height="5.456666666666667" as="geometry" />
        </mxCell>
        <mxCell id="lydrGFN5QWvYqXAOOCpk-66" value="" style="group;fontSize=16;" vertex="1" connectable="0" parent="lydrGFN5QWvYqXAOOCpk-1">
          <mxGeometry x="-1611.0012121212121" y="479.83000000000004" width="25.82121212121217" height="60.918787878787896" as="geometry" />
        </mxCell>
        <mxCell id="lydrGFN5QWvYqXAOOCpk-67" value="" style="rounded=0;whiteSpace=wrap;html=1;fontSize=16;fillColor=#000000;points=[[0,0.5,0,0,0],[0.5,0,0,0,0],[0.5,1,0,0,0],[1,0.5,0,0,0]];rotation=90;container=0;" vertex="1" parent="lydrGFN5QWvYqXAOOCpk-66">
          <mxGeometry x="-19.088787878787855" y="30.916666666666686" width="49.09090909090909" height="10.913333333333334" as="geometry" />
        </mxCell>
        <mxCell id="lydrGFN5QWvYqXAOOCpk-68" value="&lt;b style=&quot;font-size: 9px;&quot;&gt;skip_E&lt;/b&gt;" style="text;html=1;strokeColor=none;fillColor=none;align=center;verticalAlign=middle;whiteSpace=wrap;rounded=0;fontSize=16;points=[];container=0;" vertex="1" parent="lydrGFN5QWvYqXAOOCpk-1">
          <mxGeometry x="-1633.999090909091" y="508.83000000000004" width="10.90909090909091" height="5.456666666666667" as="geometry" />
        </mxCell>
        <mxCell id="lydrGFN5QWvYqXAOOCpk-69" style="edgeStyle=none;curved=1;rounded=0;orthogonalLoop=1;jettySize=auto;html=1;exitX=0.5;exitY=1;exitDx=0;exitDy=0;exitPerimeter=0;entryX=0.5;entryY=0;entryDx=0;entryDy=0;entryPerimeter=0;fontSize=12;startSize=8;endSize=3;fillColor=#fff2cc;strokeColor=#d6b656;endArrow=circle;endFill=0;" edge="1" parent="lydrGFN5QWvYqXAOOCpk-1" source="lydrGFN5QWvYqXAOOCpk-10" target="lydrGFN5QWvYqXAOOCpk-67">
          <mxGeometry relative="1" as="geometry" />
        </mxCell>
        <mxCell id="lydrGFN5QWvYqXAOOCpk-70" value="" style="group;fontSize=16;" vertex="1" connectable="0" parent="lydrGFN5QWvYqXAOOCpk-1">
          <mxGeometry x="-2064" y="324.83000000000004" width="68.75" height="60" as="geometry" />
        </mxCell>
        <mxCell id="lydrGFN5QWvYqXAOOCpk-71" value="" style="group;fontSize=16;" vertex="1" connectable="0" parent="lydrGFN5QWvYqXAOOCpk-70">
          <mxGeometry y="13" width="52.5" height="50" as="geometry" />
        </mxCell>
        <mxCell id="lydrGFN5QWvYqXAOOCpk-72" value="" style="group;fontSize=16;" vertex="1" connectable="0" parent="lydrGFN5QWvYqXAOOCpk-71">
          <mxGeometry x="-3.75" width="56.25" height="48.75" as="geometry" />
        </mxCell>
        <object label="" markers="●" placeholders="1" id="lydrGFN5QWvYqXAOOCpk-73">
          <mxCell style="ellipse;whiteSpace=wrap;html=1;aspect=fixed;fontSize=16;direction=south;perimeterSpacing=0;strokeWidth=1;dashed=1;dashPattern=8 8;points=[[0,0.5,0,0,0],[0.5,0,0,0,0],[0.5,1,0,0,0],[1,0.5,0,0,0]];" vertex="1" parent="lydrGFN5QWvYqXAOOCpk-72">
            <mxGeometry y="6.25" width="42.5" height="42.5" as="geometry" />
          </mxCell>
        </object>
        <object label="" markers="●" placeholders="1" id="lydrGFN5QWvYqXAOOCpk-74">
          <mxCell style="ellipse;whiteSpace=wrap;html=1;aspect=fixed;fontSize=16;direction=south;perimeterSpacing=0;strokeWidth=1;points=[];" vertex="1" parent="lydrGFN5QWvYqXAOOCpk-72">
            <mxGeometry x="3.75" y="10" width="35" height="35" as="geometry" />
          </mxCell>
        </object>
        <mxCell id="lydrGFN5QWvYqXAOOCpk-76" value="" style="group;fontSize=16;" vertex="1" connectable="0" parent="lydrGFN5QWvYqXAOOCpk-1">
          <mxGeometry x="-2071" y="420.83000000000004" width="70.91" height="21.830000000000013" as="geometry" />
        </mxCell>
        <mxCell id="lydrGFN5QWvYqXAOOCpk-77" value="" style="group;points=[[0,0.5,0,0,0],[0.5,0,0,0,0],[0.5,1,0,0,0],[1,0.5,0,0,0]];fontSize=16;" vertex="1" connectable="0" parent="lydrGFN5QWvYqXAOOCpk-76">
          <mxGeometry y="5.460000000000008" width="60" height="16.37" as="geometry" />
        </mxCell>
        <mxCell id="lydrGFN5QWvYqXAOOCpk-78" value="" style="rounded=0;whiteSpace=wrap;html=1;fontSize=16;fillColor=#000000;points=[[0,0.5,0,0,0],[0.5,0,0,0,0],[0.5,1,0,0,0],[1,0.5,0,0,0]];" vertex="1" parent="lydrGFN5QWvYqXAOOCpk-77">
          <mxGeometry y="5.456666666666667" width="49.09090909090909" height="10.913333333333334" as="geometry" />
        </mxCell>
        <mxCell id="lydrGFN5QWvYqXAOOCpk-79" value="" style="group;fontSize=16;" vertex="1" connectable="0" parent="lydrGFN5QWvYqXAOOCpk-1">
          <mxGeometry x="-1926.94" y="420.7400000000001" width="70.91" height="21.830000000000013" as="geometry" />
        </mxCell>
        <mxCell id="lydrGFN5QWvYqXAOOCpk-80" value="&lt;b style=&quot;font-size: 9px;&quot;&gt;skip_W&lt;/b&gt;" style="text;html=1;strokeColor=none;fillColor=none;align=center;verticalAlign=middle;whiteSpace=wrap;rounded=0;fontSize=16;" vertex="1" parent="lydrGFN5QWvYqXAOOCpk-79">
          <mxGeometry x="60.00090909090909" width="10.90909090909091" height="5.456666666666667" as="geometry" />
        </mxCell>
        <mxCell id="lydrGFN5QWvYqXAOOCpk-81" value="" style="rounded=0;whiteSpace=wrap;html=1;fontSize=16;fillColor=#000000;points=[[0,0.5,0,0,0],[0.5,0,0,0,0],[0.5,1,0,0,0],[1,0.5,0,0,0]];" vertex="1" parent="lydrGFN5QWvYqXAOOCpk-79">
          <mxGeometry y="10.916666666666675" width="49.09090909090909" height="10.913333333333334" as="geometry" />
        </mxCell>
        <mxCell id="lydrGFN5QWvYqXAOOCpk-82" style="rounded=0;orthogonalLoop=1;jettySize=auto;html=1;entryX=0.256;entryY=-0.02;entryDx=0;entryDy=0;entryPerimeter=0;fontSize=12;startSize=8;endSize=3;fillColor=#fff2cc;strokeColor=#d6b656;endArrow=circle;endFill=0;" edge="1" parent="lydrGFN5QWvYqXAOOCpk-1" source="lydrGFN5QWvYqXAOOCpk-73" target="lydrGFN5QWvYqXAOOCpk-81">
          <mxGeometry relative="1" as="geometry">
            <Array as="points">
              <mxPoint x="-2006.94" y="393.83000000000004" />
              <mxPoint x="-1913.94" y="393.83000000000004" />
            </Array>
          </mxGeometry>
        </mxCell>
        <mxCell id="lydrGFN5QWvYqXAOOCpk-83" style="edgeStyle=none;curved=1;rounded=0;orthogonalLoop=1;jettySize=auto;html=1;exitX=1;exitY=0.5;exitDx=0;exitDy=0;exitPerimeter=0;entryX=0.5;entryY=0;entryDx=0;entryDy=0;entryPerimeter=0;fontSize=12;startSize=8;endSize=8;" edge="1" parent="lydrGFN5QWvYqXAOOCpk-1" source="lydrGFN5QWvYqXAOOCpk-73" target="lydrGFN5QWvYqXAOOCpk-78">
          <mxGeometry relative="1" as="geometry" />
        </mxCell>
        <mxCell id="lydrGFN5QWvYqXAOOCpk-84" value="&lt;b style=&quot;font-size: 9px;&quot;&gt;enter_W&lt;/b&gt;" style="text;html=1;strokeColor=none;fillColor=none;align=center;verticalAlign=middle;whiteSpace=wrap;rounded=0;fontSize=16;" vertex="1" parent="lydrGFN5QWvYqXAOOCpk-1">
          <mxGeometry x="-2089.999090909091" y="418.83000000000004" width="10.90909090909091" height="5.456666666666667" as="geometry" />
        </mxCell>
        <mxCell id="lydrGFN5QWvYqXAOOCpk-85" style="edgeStyle=orthogonalEdgeStyle;rounded=0;orthogonalLoop=1;jettySize=auto;html=1;entryX=0.808;entryY=0.929;entryDx=0;entryDy=0;entryPerimeter=0;fontSize=12;startSize=8;endSize=8;" edge="1" parent="lydrGFN5QWvYqXAOOCpk-1" source="lydrGFN5QWvYqXAOOCpk-78" target="lydrGFN5QWvYqXAOOCpk-13">
          <mxGeometry relative="1" as="geometry">
            <Array as="points">
              <mxPoint x="-2046" y="528.83" />
            </Array>
          </mxGeometry>
        </mxCell>
        <mxCell id="lydrGFN5QWvYqXAOOCpk-86" style="edgeStyle=orthogonalEdgeStyle;rounded=0;orthogonalLoop=1;jettySize=auto;html=1;entryX=0;entryY=0.5;entryDx=0;entryDy=0;entryPerimeter=0;fontSize=12;startSize=3;endSize=3;exitX=0.91;exitY=0.78;exitDx=0;exitDy=0;exitPerimeter=0;endArrow=circle;endFill=0;fillColor=#fff2cc;strokeColor=#d6b656;" edge="1" parent="lydrGFN5QWvYqXAOOCpk-1" source="lydrGFN5QWvYqXAOOCpk-13" target="lydrGFN5QWvYqXAOOCpk-78">
          <mxGeometry relative="1" as="geometry">
            <Array as="points">
              <mxPoint x="-1831" y="540.83" />
              <mxPoint x="-2090" y="540.83" />
              <mxPoint x="-2090" y="436.83000000000004" />
            </Array>
          </mxGeometry>
        </mxCell>
        <mxCell id="lydrGFN5QWvYqXAOOCpk-87" value="" style="group;fontSize=16;" vertex="1" connectable="0" parent="lydrGFN5QWvYqXAOOCpk-1">
          <mxGeometry x="-2000.94" y="420.83000000000004" width="70.91" height="21.830000000000013" as="geometry" />
        </mxCell>
        <mxCell id="lydrGFN5QWvYqXAOOCpk-88" value="" style="group;points=[[0,0.5,0,0,0],[0.5,0,0,0,0],[0.5,1,0,0,0],[1,0.5,0,0,0]];fontSize=16;" vertex="1" connectable="0" parent="lydrGFN5QWvYqXAOOCpk-87">
          <mxGeometry y="5.460000000000008" width="60" height="16.37" as="geometry" />
        </mxCell>
        <mxCell id="lydrGFN5QWvYqXAOOCpk-89" value="" style="rounded=0;whiteSpace=wrap;html=1;fontSize=16;fillColor=#000000;points=[[0,0.5,0,0,0],[0.5,0,0,0,0],[0.5,1,0,0,0],[1,0.5,0,0,0]];" vertex="1" parent="lydrGFN5QWvYqXAOOCpk-88">
          <mxGeometry y="5.456666666666667" width="49.09090909090909" height="10.913333333333334" as="geometry" />
        </mxCell>
        <mxCell id="lydrGFN5QWvYqXAOOCpk-90" value="&lt;b style=&quot;font-size: 9px;&quot;&gt;stall_W&lt;/b&gt;" style="text;html=1;strokeColor=none;fillColor=none;align=center;verticalAlign=middle;whiteSpace=wrap;rounded=0;fontSize=16;" vertex="1" parent="lydrGFN5QWvYqXAOOCpk-87">
          <mxGeometry x="42.00090909090909" y="-2.0000000000000036" width="10.90909090909091" height="5.456666666666667" as="geometry" />
        </mxCell>
        <mxCell id="lydrGFN5QWvYqXAOOCpk-91" style="edgeStyle=orthogonalEdgeStyle;rounded=0;orthogonalLoop=1;jettySize=auto;html=1;fontSize=12;startSize=8;endSize=8;jumpStyle=line;startArrow=classic;startFill=1;dashed=1;entryX=0.5;entryY=1;entryDx=0;entryDy=0;entryPerimeter=0;exitX=0.361;exitY=0.976;exitDx=0;exitDy=0;exitPerimeter=0;" edge="1" parent="lydrGFN5QWvYqXAOOCpk-1" source="lydrGFN5QWvYqXAOOCpk-13" target="lydrGFN5QWvYqXAOOCpk-89">
          <mxGeometry relative="1" as="geometry">
            <mxPoint x="-2060.0299999999997" y="442.83000000000004" as="targetPoint" />
          </mxGeometry>
        </mxCell>
        <mxCell id="lydrGFN5QWvYqXAOOCpk-92" style="edgeStyle=orthogonalEdgeStyle;rounded=0;orthogonalLoop=1;jettySize=auto;html=1;entryX=0.5;entryY=0;entryDx=0;entryDy=0;entryPerimeter=0;fontSize=12;startSize=8;endSize=8;startArrow=classic;startFill=1;exitX=0.5;exitY=0;exitDx=0;exitDy=0;exitPerimeter=0;jumpStyle=line;dashed=1;" edge="1" parent="lydrGFN5QWvYqXAOOCpk-1" source="lydrGFN5QWvYqXAOOCpk-73" target="lydrGFN5QWvYqXAOOCpk-89">
          <mxGeometry relative="1" as="geometry" />
        </mxCell>
        <mxCell id="Y_IQbfWo_Aao2C9z1jqL-0" style="edgeStyle=none;rounded=0;orthogonalLoop=1;jettySize=auto;html=1;fontSize=12;startSize=8;endSize=3;fillColor=#fff2cc;strokeColor=#d6b656;endArrow=circle;endFill=0;entryX=0.819;entryY=0.935;entryDx=0;entryDy=0;entryPerimeter=0;" edge="1" parent="lydrGFN5QWvYqXAOOCpk-1" source="Y_IQbfWo_Aao2C9z1jqL-4" target="Y_IQbfWo_Aao2C9z1jqL-23">
          <mxGeometry relative="1" as="geometry">
            <mxPoint x="-1400" y="598.19" as="targetPoint" />
            <Array as="points">
              <mxPoint x="-1311" y="637.83" />
              <mxPoint x="-1401" y="637.83" />
            </Array>
          </mxGeometry>
        </mxCell>
        <mxCell id="Y_IQbfWo_Aao2C9z1jqL-1" value="" style="group;fontSize=16;" vertex="1" connectable="0" parent="lydrGFN5QWvYqXAOOCpk-1">
          <mxGeometry x="-1283" y="633.83" width="68.75" height="60" as="geometry" />
        </mxCell>
        <mxCell id="Y_IQbfWo_Aao2C9z1jqL-2" value="" style="group;fontSize=16;" vertex="1" connectable="0" parent="Y_IQbfWo_Aao2C9z1jqL-1">
          <mxGeometry y="-2" width="52.5" height="50" as="geometry" />
        </mxCell>
        <mxCell id="Y_IQbfWo_Aao2C9z1jqL-3" value="" style="group;fontSize=16;" vertex="1" connectable="0" parent="Y_IQbfWo_Aao2C9z1jqL-2">
          <mxGeometry x="-3.75" width="56.25" height="48.75" as="geometry" />
        </mxCell>
        <object label="" markers="●" placeholders="1" id="Y_IQbfWo_Aao2C9z1jqL-4">
          <mxCell style="ellipse;whiteSpace=wrap;html=1;aspect=fixed;fontSize=16;direction=south;perimeterSpacing=0;strokeWidth=1;dashed=1;dashPattern=8 8;points=[[0,0.5,0,0,0],[0.5,0,0,0,0],[0.5,1,0,0,0],[1,0.5,0,0,0]];" vertex="1" parent="Y_IQbfWo_Aao2C9z1jqL-3">
            <mxGeometry y="6.25" width="42.5" height="42.5" as="geometry" />
          </mxCell>
        </object>
        <object label="" markers="●" placeholders="1" id="Y_IQbfWo_Aao2C9z1jqL-5">
          <mxCell style="ellipse;whiteSpace=wrap;html=1;aspect=fixed;fontSize=16;direction=south;perimeterSpacing=0;strokeWidth=1;points=[];" vertex="1" parent="Y_IQbfWo_Aao2C9z1jqL-3">
            <mxGeometry x="3.75" y="10" width="35" height="35" as="geometry" />
          </mxCell>
        </object>
        <mxCell id="Y_IQbfWo_Aao2C9z1jqL-6" value="&lt;font size=&quot;1&quot;&gt;&lt;b style=&quot;font-size: 9px;&quot;&gt;input_E&lt;/b&gt;&lt;/font&gt;" style="text;html=1;strokeColor=none;fillColor=none;align=center;verticalAlign=middle;whiteSpace=wrap;rounded=0;fontSize=16;" vertex="1" parent="Y_IQbfWo_Aao2C9z1jqL-1">
          <mxGeometry x="48.75" y="18" width="20" height="10" as="geometry" />
        </mxCell>
        <mxCell id="Y_IQbfWo_Aao2C9z1jqL-7" value="" style="group;fontSize=16;" vertex="1" connectable="0" parent="lydrGFN5QWvYqXAOOCpk-1">
          <mxGeometry x="-1290" y="587.1000000000001" width="70.91" height="21.830000000000013" as="geometry" />
        </mxCell>
        <mxCell id="Y_IQbfWo_Aao2C9z1jqL-8" value="" style="group;points=[[0,0.5,0,0,0],[0.5,0,0,0,0],[0.5,1,0,0,0],[1,0.5,0,0,0]];fontSize=16;" vertex="1" connectable="0" parent="Y_IQbfWo_Aao2C9z1jqL-7">
          <mxGeometry y="5.460000000000008" width="60" height="16.37" as="geometry" />
        </mxCell>
        <mxCell id="Y_IQbfWo_Aao2C9z1jqL-9" value="" style="rounded=0;whiteSpace=wrap;html=1;fontSize=16;fillColor=#000000;points=[[0,0.5,0,0,0],[0.5,0,0,0,0],[0.5,1,0,0,0],[1,0.5,0,0,0]];" vertex="1" parent="Y_IQbfWo_Aao2C9z1jqL-8">
          <mxGeometry y="5.456666666666667" width="49.09090909090909" height="10.913333333333334" as="geometry" />
        </mxCell>
        <mxCell id="Y_IQbfWo_Aao2C9z1jqL-10" value="&lt;b style=&quot;font-size: 9px;&quot;&gt;enter_E&lt;/b&gt;" style="text;html=1;strokeColor=none;fillColor=none;align=center;verticalAlign=middle;whiteSpace=wrap;rounded=0;fontSize=16;" vertex="1" parent="Y_IQbfWo_Aao2C9z1jqL-7">
          <mxGeometry x="57.00090909090909" y="-1" width="10.90909090909091" height="5.456666666666667" as="geometry" />
        </mxCell>
        <mxCell id="Y_IQbfWo_Aao2C9z1jqL-11" style="edgeStyle=none;curved=1;rounded=0;orthogonalLoop=1;jettySize=auto;html=1;entryX=0.5;entryY=1;entryDx=0;entryDy=0;entryPerimeter=0;fontSize=12;startSize=8;endSize=8;exitX=0;exitY=0.5;exitDx=0;exitDy=0;exitPerimeter=0;" edge="1" parent="lydrGFN5QWvYqXAOOCpk-1" source="Y_IQbfWo_Aao2C9z1jqL-4" target="Y_IQbfWo_Aao2C9z1jqL-9">
          <mxGeometry relative="1" as="geometry">
            <mxPoint x="-1241" y="637.83" as="sourcePoint" />
          </mxGeometry>
        </mxCell>
        <mxCell id="Y_IQbfWo_Aao2C9z1jqL-19" style="edgeStyle=orthogonalEdgeStyle;rounded=0;orthogonalLoop=1;jettySize=auto;html=1;fontSize=12;startSize=8;endSize=8;exitX=0.223;exitY=0.048;exitDx=0;exitDy=0;exitPerimeter=0;entryX=0.5;entryY=0;entryDx=0;entryDy=0;entryPerimeter=0;" edge="1" parent="lydrGFN5QWvYqXAOOCpk-1" source="Y_IQbfWo_Aao2C9z1jqL-9" target="lydrGFN5QWvYqXAOOCpk-10">
          <mxGeometry relative="1" as="geometry">
            <mxPoint x="-1460" y="524.83" as="targetPoint" />
            <Array as="points">
              <mxPoint x="-1279" y="516" />
            </Array>
          </mxGeometry>
        </mxCell>
        <mxCell id="Y_IQbfWo_Aao2C9z1jqL-20" style="edgeStyle=orthogonalEdgeStyle;rounded=0;orthogonalLoop=1;jettySize=auto;html=1;exitX=0.115;exitY=0.178;exitDx=0;exitDy=0;exitPerimeter=0;entryX=0.5;entryY=0;entryDx=0;entryDy=0;entryPerimeter=0;fontSize=12;startSize=3;endSize=3;endArrow=circle;endFill=0;fillColor=#fff2cc;strokeColor=#d6b656;" edge="1" parent="lydrGFN5QWvYqXAOOCpk-1" source="lydrGFN5QWvYqXAOOCpk-10" target="Y_IQbfWo_Aao2C9z1jqL-9">
          <mxGeometry relative="1" as="geometry">
            <Array as="points">
              <mxPoint x="-1265" y="500" />
              <mxPoint x="-1265" y="500" />
              <mxPoint x="-1265" y="500" />
            </Array>
          </mxGeometry>
        </mxCell>
        <mxCell id="Y_IQbfWo_Aao2C9z1jqL-21" value="" style="group" vertex="1" connectable="0" parent="lydrGFN5QWvYqXAOOCpk-1">
          <mxGeometry x="-1460.999090909091" y="588.1000000000001" width="69.08999999999997" height="20.830000000000013" as="geometry" />
        </mxCell>
        <mxCell id="Y_IQbfWo_Aao2C9z1jqL-22" value="&lt;b style=&quot;font-size: 9px;&quot;&gt;skip_E&lt;/b&gt;" style="text;html=1;strokeColor=none;fillColor=none;align=center;verticalAlign=middle;whiteSpace=wrap;rounded=0;fontSize=16;" vertex="1" parent="Y_IQbfWo_Aao2C9z1jqL-21">
          <mxGeometry y="-1" width="10.90909090909091" height="5.456666666666667" as="geometry" />
        </mxCell>
        <mxCell id="Y_IQbfWo_Aao2C9z1jqL-23" value="" style="rounded=0;whiteSpace=wrap;html=1;fontSize=16;fillColor=#000000;points=[[0,0.5,0,0,0],[0.5,0,0,0,0],[0.5,1,0,0,0],[1,0.5,0,0,0]];" vertex="1" parent="Y_IQbfWo_Aao2C9z1jqL-21">
          <mxGeometry x="19.99909090909091" y="9.916666666666686" width="49.09090909090909" height="10.913333333333334" as="geometry" />
        </mxCell>
        <mxCell id="Y_IQbfWo_Aao2C9z1jqL-24" value="" style="group" vertex="1" connectable="0" parent="lydrGFN5QWvYqXAOOCpk-1">
          <mxGeometry x="-1386.999090909091" y="588.19" width="69.08999999999997" height="20.830000000000013" as="geometry" />
        </mxCell>
        <mxCell id="Y_IQbfWo_Aao2C9z1jqL-25" value="&lt;b style=&quot;font-size: 9px;&quot;&gt;stall_E&lt;/b&gt;" style="text;html=1;strokeColor=none;fillColor=none;align=center;verticalAlign=middle;whiteSpace=wrap;rounded=0;fontSize=16;" vertex="1" parent="Y_IQbfWo_Aao2C9z1jqL-24">
          <mxGeometry x="16" y="-2" width="10.90909090909091" height="5.456666666666667" as="geometry" />
        </mxCell>
        <mxCell id="Y_IQbfWo_Aao2C9z1jqL-26" value="" style="rounded=0;whiteSpace=wrap;html=1;fontSize=16;fillColor=#000000;points=[[0,0.5,0,0,0],[0.5,0,0,0,0],[0.5,1,0,0,0],[1,0.5,0,0,0]];" vertex="1" parent="Y_IQbfWo_Aao2C9z1jqL-24">
          <mxGeometry x="19.99909090909091" y="9.916666666666686" width="49.09090909090909" height="10.913333333333334" as="geometry" />
        </mxCell>
        <mxCell id="Y_IQbfWo_Aao2C9z1jqL-27" style="edgeStyle=orthogonalEdgeStyle;rounded=0;orthogonalLoop=1;jettySize=auto;html=1;exitX=0.727;exitY=0.055;exitDx=0;exitDy=0;exitPerimeter=0;fontSize=12;startSize=8;endSize=8;startArrow=classic;startFill=1;dashed=1;jumpStyle=line;entryX=0.5;entryY=0;entryDx=0;entryDy=0;entryPerimeter=0;" edge="1" parent="lydrGFN5QWvYqXAOOCpk-1" source="lydrGFN5QWvYqXAOOCpk-10" target="Y_IQbfWo_Aao2C9z1jqL-26">
          <mxGeometry relative="1" as="geometry">
            <mxPoint x="-1260" y="546.19" as="targetPoint" />
          </mxGeometry>
        </mxCell>
        <mxCell id="Y_IQbfWo_Aao2C9z1jqL-28" style="rounded=0;orthogonalLoop=1;jettySize=auto;html=1;exitX=0.5;exitY=1;exitDx=0;exitDy=0;exitPerimeter=0;entryX=0.5;entryY=1;entryDx=0;entryDy=0;entryPerimeter=0;fontSize=12;startSize=8;endSize=8;edgeStyle=orthogonalEdgeStyle;jumpStyle=line;dashed=1;startArrow=classic;startFill=1;" edge="1" parent="lydrGFN5QWvYqXAOOCpk-1" source="Y_IQbfWo_Aao2C9z1jqL-4" target="Y_IQbfWo_Aao2C9z1jqL-26">
          <mxGeometry relative="1" as="geometry" />
        </mxCell>
        <mxCell id="EYy5c5HcCPdVs4RT5IUM-0" value="" style="group;fontSize=16;" vertex="1" connectable="0" parent="lydrGFN5QWvYqXAOOCpk-1">
          <mxGeometry x="-2071" y="297.0000000000001" width="70.91" height="21.830000000000013" as="geometry" />
        </mxCell>
        <mxCell id="EYy5c5HcCPdVs4RT5IUM-1" value="" style="group;points=[[0,0.5,0,0,0],[0.5,0,0,0,0],[0.5,1,0,0,0],[1,0.5,0,0,0]];fontSize=16;" vertex="1" connectable="0" parent="EYy5c5HcCPdVs4RT5IUM-0">
          <mxGeometry y="5.460000000000008" width="60" height="16.37" as="geometry" />
        </mxCell>
        <mxCell id="EYy5c5HcCPdVs4RT5IUM-2" value="" style="rounded=0;whiteSpace=wrap;html=1;fontSize=16;fillColor=#000000;points=[[0,0.5,0,0,0],[0.5,0,0,0,0],[0.5,1,0,0,0],[1,0.5,0,0,0]];" vertex="1" parent="EYy5c5HcCPdVs4RT5IUM-1">
          <mxGeometry y="5.456666666666667" width="49.09090909090909" height="10.913333333333334" as="geometry" />
        </mxCell>
        <mxCell id="EYy5c5HcCPdVs4RT5IUM-3" value="" style="group;fontSize=16;" vertex="1" connectable="0" parent="lydrGFN5QWvYqXAOOCpk-1">
          <mxGeometry x="-1991" y="298.0000000000001" width="70.91" height="21.830000000000013" as="geometry" />
        </mxCell>
        <mxCell id="EYy5c5HcCPdVs4RT5IUM-4" value="" style="group;points=[[0,0.5,0,0,0],[0.5,0,0,0,0],[0.5,1,0,0,0],[1,0.5,0,0,0]];fontSize=16;" vertex="1" connectable="0" parent="EYy5c5HcCPdVs4RT5IUM-3">
          <mxGeometry y="5.460000000000008" width="60" height="16.37" as="geometry" />
        </mxCell>
        <mxCell id="EYy5c5HcCPdVs4RT5IUM-5" value="" style="rounded=0;whiteSpace=wrap;html=1;fontSize=16;fillColor=#000000;points=[[0,0.5,0,0,0],[0.5,0,0,0,0],[0.5,1,0,0,0],[1,0.5,0,0,0]];" vertex="1" parent="EYy5c5HcCPdVs4RT5IUM-4">
          <mxGeometry y="5.456666666666667" width="49.09090909090909" height="10.913333333333334" as="geometry" />
        </mxCell>
        <mxCell id="EYy5c5HcCPdVs4RT5IUM-6" value="&lt;b style=&quot;font-size: 9px;&quot;&gt;skip_W&lt;/b&gt;" style="text;html=1;strokeColor=none;fillColor=none;align=center;verticalAlign=middle;whiteSpace=wrap;rounded=0;fontSize=16;" vertex="1" parent="EYy5c5HcCPdVs4RT5IUM-3">
          <mxGeometry x="60.00090909090909" width="10.90909090909091" height="5.456666666666667" as="geometry" />
        </mxCell>
        <mxCell id="EYy5c5HcCPdVs4RT5IUM-7" value="&lt;b style=&quot;font-size: 9px;&quot;&gt;generate_W&lt;/b&gt;" style="text;html=1;strokeColor=none;fillColor=none;align=center;verticalAlign=middle;whiteSpace=wrap;rounded=0;fontSize=16;" vertex="1" parent="lydrGFN5QWvYqXAOOCpk-1">
          <mxGeometry x="-2089.999090909091" y="295.0000000000001" width="10.90909090909091" height="5.456666666666667" as="geometry" />
        </mxCell>
        <mxCell id="lydrGFN5QWvYqXAOOCpk-75" value="&lt;b style=&quot;font-size: 9px;&quot;&gt;input_W&lt;/b&gt;" style="text;html=1;strokeColor=none;fillColor=none;align=center;verticalAlign=middle;whiteSpace=wrap;rounded=0;fontSize=16;" vertex="1" parent="lydrGFN5QWvYqXAOOCpk-1">
          <mxGeometry x="-2100" y="357.21000000000004" width="20" height="10" as="geometry" />
        </mxCell>
        <mxCell id="EYy5c5HcCPdVs4RT5IUM-8" style="edgeStyle=none;curved=1;rounded=0;orthogonalLoop=1;jettySize=auto;html=1;exitX=0.5;exitY=1;exitDx=0;exitDy=0;exitPerimeter=0;entryX=0;entryY=0.5;entryDx=0;entryDy=0;entryPerimeter=0;fontSize=12;startSize=8;endSize=8;" edge="1" parent="lydrGFN5QWvYqXAOOCpk-1" source="EYy5c5HcCPdVs4RT5IUM-2" target="lydrGFN5QWvYqXAOOCpk-73">
          <mxGeometry relative="1" as="geometry" />
        </mxCell>
        <mxCell id="EYy5c5HcCPdVs4RT5IUM-9" value="" style="group;fontSize=16;" vertex="1" connectable="0" parent="lydrGFN5QWvYqXAOOCpk-1">
          <mxGeometry x="-1290" y="710.2900000000001" width="70.91" height="21.830000000000013" as="geometry" />
        </mxCell>
        <mxCell id="EYy5c5HcCPdVs4RT5IUM-10" value="" style="group;points=[[0,0.5,0,0,0],[0.5,0,0,0,0],[0.5,1,0,0,0],[1,0.5,0,0,0]];fontSize=16;" vertex="1" connectable="0" parent="EYy5c5HcCPdVs4RT5IUM-9">
          <mxGeometry y="5.460000000000008" width="60" height="16.37" as="geometry" />
        </mxCell>
        <mxCell id="EYy5c5HcCPdVs4RT5IUM-11" value="" style="rounded=0;whiteSpace=wrap;html=1;fontSize=16;fillColor=#000000;points=[[0,0.5,0,0,0],[0.5,0,0,0,0],[0.5,1,0,0,0],[1,0.5,0,0,0]];" vertex="1" parent="EYy5c5HcCPdVs4RT5IUM-10">
          <mxGeometry y="5.456666666666667" width="49.09090909090909" height="10.913333333333334" as="geometry" />
        </mxCell>
        <mxCell id="EYy5c5HcCPdVs4RT5IUM-16" value="&lt;b style=&quot;font-size: 9px;&quot;&gt;generate_E&lt;/b&gt;" style="text;html=1;strokeColor=none;fillColor=none;align=center;verticalAlign=middle;whiteSpace=wrap;rounded=0;fontSize=16;" vertex="1" parent="EYy5c5HcCPdVs4RT5IUM-9">
          <mxGeometry x="48.59090909090878" y="-2" width="10.90909090909091" height="5.456666666666667" as="geometry" />
        </mxCell>
        <mxCell id="EYy5c5HcCPdVs4RT5IUM-19" style="edgeStyle=none;curved=1;rounded=0;orthogonalLoop=1;jettySize=auto;html=1;exitX=0.5;exitY=0;exitDx=0;exitDy=0;exitPerimeter=0;entryX=1;entryY=0.5;entryDx=0;entryDy=0;entryPerimeter=0;fontSize=12;startSize=8;endSize=8;" edge="1" parent="lydrGFN5QWvYqXAOOCpk-1" source="EYy5c5HcCPdVs4RT5IUM-11" target="Y_IQbfWo_Aao2C9z1jqL-4">
          <mxGeometry relative="1" as="geometry" />
        </mxCell>
        <mxCell id="EYy5c5HcCPdVs4RT5IUM-20" value="" style="group" vertex="1" connectable="0" parent="lydrGFN5QWvYqXAOOCpk-1">
          <mxGeometry x="-1377.909090909091" y="708.2900000000001" width="60" height="23.829999999999927" as="geometry" />
        </mxCell>
        <mxCell id="EYy5c5HcCPdVs4RT5IUM-15" value="&lt;b style=&quot;font-size: 9px;&quot;&gt;skip_E&lt;/b&gt;" style="text;html=1;strokeColor=none;fillColor=none;align=center;verticalAlign=middle;whiteSpace=wrap;rounded=0;fontSize=16;" vertex="1" parent="EYy5c5HcCPdVs4RT5IUM-20">
          <mxGeometry width="10.90909090909091" height="5.456666666666667" as="geometry" />
        </mxCell>
        <mxCell id="EYy5c5HcCPdVs4RT5IUM-14" value="" style="rounded=0;whiteSpace=wrap;html=1;fontSize=16;fillColor=#000000;points=[[0,0.5,0,0,0],[0.5,0,0,0,0],[0.5,1,0,0,0],[1,0.5,0,0,0]];" vertex="1" parent="EYy5c5HcCPdVs4RT5IUM-20">
          <mxGeometry x="10.909090909090992" y="12.916666666666629" width="49.09090909090909" height="10.913333333333334" as="geometry" />
        </mxCell>
        <mxCell id="2NWGi8oVyEbAH9-0l3cw-6" value="" style="group;fontSize=16;" vertex="1" connectable="0" parent="lydrGFN5QWvYqXAOOCpk-1">
          <mxGeometry x="-1683.51" y="257.17" width="70.91" height="21.830000000000013" as="geometry" />
        </mxCell>
        <mxCell id="2NWGi8oVyEbAH9-0l3cw-7" value="" style="group;points=[[0,0.5,0,0,0],[0.5,0,0,0,0],[0.5,1,0,0,0],[1,0.5,0,0,0]];fontSize=16;" vertex="1" connectable="0" parent="2NWGi8oVyEbAH9-0l3cw-6">
          <mxGeometry y="5.460000000000008" width="60" height="16.37" as="geometry" />
        </mxCell>
        <mxCell id="2NWGi8oVyEbAH9-0l3cw-8" value="" style="rounded=0;whiteSpace=wrap;html=1;fontSize=16;fillColor=#000000;points=[[0,0.5,0,0,0],[0.5,0,0,0,0],[0.5,1,0,0,0],[1,0.5,0,0,0]];" vertex="1" parent="2NWGi8oVyEbAH9-0l3cw-7">
          <mxGeometry y="5.456666666666667" width="49.09090909090909" height="10.913333333333334" as="geometry" />
        </mxCell>
        <mxCell id="2NWGi8oVyEbAH9-0l3cw-9" value="" style="group;fontSize=16;" vertex="1" connectable="0" parent="lydrGFN5QWvYqXAOOCpk-1">
          <mxGeometry x="-1603.51" y="258.17" width="70.91" height="21.830000000000013" as="geometry" />
        </mxCell>
        <mxCell id="2NWGi8oVyEbAH9-0l3cw-10" value="" style="group;points=[[0,0.5,0,0,0],[0.5,0,0,0,0],[0.5,1,0,0,0],[1,0.5,0,0,0]];fontSize=16;" vertex="1" connectable="0" parent="2NWGi8oVyEbAH9-0l3cw-9">
          <mxGeometry y="5.460000000000008" width="60" height="16.37" as="geometry" />
        </mxCell>
        <mxCell id="2NWGi8oVyEbAH9-0l3cw-11" value="" style="rounded=0;whiteSpace=wrap;html=1;fontSize=16;fillColor=#000000;points=[[0,0.5,0,0,0],[0.5,0,0,0,0],[0.5,1,0,0,0],[1,0.5,0,0,0]];" vertex="1" parent="2NWGi8oVyEbAH9-0l3cw-10">
          <mxGeometry y="5.456666666666667" width="49.09090909090909" height="10.913333333333334" as="geometry" />
        </mxCell>
        <mxCell id="2NWGi8oVyEbAH9-0l3cw-12" value="&lt;b style=&quot;font-size: 9px;&quot;&gt;skip_N&lt;/b&gt;" style="text;html=1;strokeColor=none;fillColor=none;align=center;verticalAlign=middle;whiteSpace=wrap;rounded=0;fontSize=16;" vertex="1" parent="2NWGi8oVyEbAH9-0l3cw-9">
          <mxGeometry x="60.00090909090909" width="10.90909090909091" height="5.456666666666667" as="geometry" />
        </mxCell>
        <mxCell id="2NWGi8oVyEbAH9-0l3cw-13" style="edgeStyle=none;curved=1;rounded=0;orthogonalLoop=1;jettySize=auto;html=1;exitX=0;exitY=0.5;exitDx=0;exitDy=0;exitPerimeter=0;entryX=0.5;entryY=1;entryDx=0;entryDy=0;entryPerimeter=0;fontSize=12;startSize=8;endSize=8;" edge="1" parent="lydrGFN5QWvYqXAOOCpk-1" source="lydrGFN5QWvYqXAOOCpk-4" target="2NWGi8oVyEbAH9-0l3cw-8">
          <mxGeometry relative="1" as="geometry">
            <mxPoint x="-1648.52" y="171.75" as="sourcePoint" />
          </mxGeometry>
        </mxCell>
        <mxCell id="2NWGi8oVyEbAH9-0l3cw-14" value="&lt;b style=&quot;font-size: 9px;&quot;&gt;exit_N&lt;/b&gt;" style="text;html=1;strokeColor=none;fillColor=none;align=center;verticalAlign=middle;whiteSpace=wrap;rounded=0;fontSize=16;" vertex="1" parent="lydrGFN5QWvYqXAOOCpk-1">
          <mxGeometry x="-1702.5090909090911" y="255.17000000000002" width="10.90909090909091" height="5.456666666666667" as="geometry" />
        </mxCell>
        <mxCell id="2NWGi8oVyEbAH9-0l3cw-15" value="" style="group" vertex="1" connectable="0" parent="lydrGFN5QWvYqXAOOCpk-1">
          <mxGeometry x="-1676.24" y="150.17000000000002" width="68.75" height="70" as="geometry" />
        </mxCell>
        <mxCell id="2NWGi8oVyEbAH9-0l3cw-16" value="" style="group;fontSize=16;" vertex="1" connectable="0" parent="2NWGi8oVyEbAH9-0l3cw-15">
          <mxGeometry width="68.75" height="60" as="geometry" />
        </mxCell>
        <mxCell id="2NWGi8oVyEbAH9-0l3cw-17" value="" style="group;fontSize=16;" vertex="1" connectable="0" parent="2NWGi8oVyEbAH9-0l3cw-16">
          <mxGeometry y="13" width="52.5" height="50" as="geometry" />
        </mxCell>
        <mxCell id="2NWGi8oVyEbAH9-0l3cw-18" value="" style="group;fontSize=16;" vertex="1" connectable="0" parent="2NWGi8oVyEbAH9-0l3cw-17">
          <mxGeometry x="-3.75" width="56.25" height="48.75" as="geometry" />
        </mxCell>
        <object label="" markers="●" placeholders="1" id="2NWGi8oVyEbAH9-0l3cw-19">
          <mxCell style="ellipse;whiteSpace=wrap;html=1;aspect=fixed;fontSize=16;direction=south;perimeterSpacing=0;strokeWidth=1;dashed=1;dashPattern=8 8;points=[[0,0.5,0,0,0],[0.5,0,0,0,0],[0.5,1,0,0,0],[1,0.5,0,0,0]];" vertex="1" parent="2NWGi8oVyEbAH9-0l3cw-18">
            <mxGeometry y="6.25" width="42.5" height="42.5" as="geometry" />
          </mxCell>
        </object>
        <object label="" markers="●" placeholders="1" id="2NWGi8oVyEbAH9-0l3cw-20">
          <mxCell style="ellipse;whiteSpace=wrap;html=1;aspect=fixed;fontSize=16;direction=south;perimeterSpacing=0;strokeWidth=1;points=[];" vertex="1" parent="2NWGi8oVyEbAH9-0l3cw-18">
            <mxGeometry x="3.75" y="10" width="35" height="35" as="geometry" />
          </mxCell>
        </object>
        <mxCell id="2NWGi8oVyEbAH9-0l3cw-21" value="&lt;b style=&quot;font-size: 9px;&quot;&gt;output_N&lt;/b&gt;" style="text;html=1;strokeColor=none;fillColor=none;align=center;verticalAlign=middle;whiteSpace=wrap;rounded=0;fontSize=16;" vertex="1" parent="2NWGi8oVyEbAH9-0l3cw-16">
          <mxGeometry x="52.24" y="27.83" width="20" height="10" as="geometry" />
        </mxCell>
        <mxCell id="2NWGi8oVyEbAH9-0l3cw-22" style="edgeStyle=none;curved=1;rounded=0;orthogonalLoop=1;jettySize=auto;html=1;entryX=1;entryY=0.5;entryDx=0;entryDy=0;entryPerimeter=0;fontSize=12;startSize=8;endSize=8;" edge="1" parent="lydrGFN5QWvYqXAOOCpk-1" source="2NWGi8oVyEbAH9-0l3cw-8" target="2NWGi8oVyEbAH9-0l3cw-19">
          <mxGeometry relative="1" as="geometry" />
        </mxCell>
        <mxCell id="2NWGi8oVyEbAH9-0l3cw-23" style="edgeStyle=orthogonalEdgeStyle;rounded=0;orthogonalLoop=1;jettySize=auto;html=1;entryX=0;entryY=0.5;entryDx=0;entryDy=0;entryPerimeter=0;fontSize=12;startSize=3;endSize=3;exitX=0.5;exitY=1;exitDx=0;exitDy=0;exitPerimeter=0;endArrow=circle;endFill=0;fillColor=#fff2cc;strokeColor=#d6b656;" edge="1" parent="lydrGFN5QWvYqXAOOCpk-1" source="2NWGi8oVyEbAH9-0l3cw-19" target="2NWGi8oVyEbAH9-0l3cw-8">
          <mxGeometry relative="1" as="geometry">
            <Array as="points">
              <mxPoint x="-1720" y="191" />
              <mxPoint x="-1720" y="274" />
            </Array>
          </mxGeometry>
        </mxCell>
        <mxCell id="AkQbeY3QSUtfv-T8o329-0" value="" style="group;fontSize=16;" vertex="1" connectable="0" parent="lydrGFN5QWvYqXAOOCpk-1">
          <mxGeometry x="-1683.1799999999998" y="97.34000000000006" width="70.91" height="21.830000000000013" as="geometry" />
        </mxCell>
        <mxCell id="AkQbeY3QSUtfv-T8o329-1" value="" style="group;points=[[0,0.5,0,0,0],[0.5,0,0,0,0],[0.5,1,0,0,0],[1,0.5,0,0,0]];fontSize=16;" vertex="1" connectable="0" parent="AkQbeY3QSUtfv-T8o329-0">
          <mxGeometry y="5.460000000000008" width="60" height="16.37" as="geometry" />
        </mxCell>
        <mxCell id="AkQbeY3QSUtfv-T8o329-2" value="" style="rounded=0;whiteSpace=wrap;html=1;fontSize=16;fillColor=#000000;points=[[0,0.5,0,0,0],[0.5,0,0,0,0],[0.5,1,0,0,0],[1,0.5,0,0,0]];" vertex="1" parent="AkQbeY3QSUtfv-T8o329-1">
          <mxGeometry y="5.456666666666667" width="49.09090909090909" height="10.913333333333334" as="geometry" />
        </mxCell>
        <mxCell id="AkQbeY3QSUtfv-T8o329-3" value="" style="group;fontSize=16;" vertex="1" connectable="0" parent="lydrGFN5QWvYqXAOOCpk-1">
          <mxGeometry x="-1603.1799999999998" y="98.34000000000006" width="70.91" height="21.830000000000013" as="geometry" />
        </mxCell>
        <mxCell id="AkQbeY3QSUtfv-T8o329-4" value="" style="group;points=[[0,0.5,0,0,0],[0.5,0,0,0,0],[0.5,1,0,0,0],[1,0.5,0,0,0]];fontSize=16;" vertex="1" connectable="0" parent="AkQbeY3QSUtfv-T8o329-3">
          <mxGeometry y="5.460000000000008" width="60" height="16.37" as="geometry" />
        </mxCell>
        <mxCell id="AkQbeY3QSUtfv-T8o329-5" value="" style="rounded=0;whiteSpace=wrap;html=1;fontSize=16;fillColor=#000000;points=[[0,0.5,0,0,0],[0.5,0,0,0,0],[0.5,1,0,0,0],[1,0.5,0,0,0]];" vertex="1" parent="AkQbeY3QSUtfv-T8o329-4">
          <mxGeometry y="5.456666666666667" width="49.09090909090909" height="10.913333333333334" as="geometry" />
        </mxCell>
        <mxCell id="AkQbeY3QSUtfv-T8o329-6" value="&lt;b style=&quot;font-size: 9px;&quot;&gt;skip_N&lt;/b&gt;" style="text;html=1;strokeColor=none;fillColor=none;align=center;verticalAlign=middle;whiteSpace=wrap;rounded=0;fontSize=16;" vertex="1" parent="AkQbeY3QSUtfv-T8o329-3">
          <mxGeometry x="60.00090909090909" width="10.90909090909091" height="5.456666666666667" as="geometry" />
        </mxCell>
        <mxCell id="AkQbeY3QSUtfv-T8o329-7" value="&lt;b style=&quot;font-size: 9px;&quot;&gt;consume_N&lt;/b&gt;" style="text;html=1;strokeColor=none;fillColor=none;align=center;verticalAlign=middle;whiteSpace=wrap;rounded=0;fontSize=16;" vertex="1" parent="lydrGFN5QWvYqXAOOCpk-1">
          <mxGeometry x="-1702.179090909091" y="95.34000000000006" width="10.90909090909091" height="5.456666666666667" as="geometry" />
        </mxCell>
        <mxCell id="AkQbeY3QSUtfv-T8o329-8" style="edgeStyle=none;curved=1;rounded=0;orthogonalLoop=1;jettySize=auto;html=1;exitX=0;exitY=0.5;exitDx=0;exitDy=0;exitPerimeter=0;entryX=0.5;entryY=1;entryDx=0;entryDy=0;entryPerimeter=0;fontSize=12;startSize=8;endSize=8;" edge="1" parent="lydrGFN5QWvYqXAOOCpk-1" source="2NWGi8oVyEbAH9-0l3cw-19" target="AkQbeY3QSUtfv-T8o329-2">
          <mxGeometry relative="1" as="geometry" />
        </mxCell>
        <mxCell id="SaXlWQdHchq1p5Edldlx-0" value="" style="group;fontSize=16;" vertex="1" connectable="0" parent="lydrGFN5QWvYqXAOOCpk-1">
          <mxGeometry x="-1763" y="737" width="70.91" height="21.830000000000013" as="geometry" />
        </mxCell>
        <mxCell id="SaXlWQdHchq1p5Edldlx-1" value="" style="group;points=[[0,0.5,0,0,0],[0.5,0,0,0,0],[0.5,1,0,0,0],[1,0.5,0,0,0]];fontSize=16;" vertex="1" connectable="0" parent="SaXlWQdHchq1p5Edldlx-0">
          <mxGeometry y="5.460000000000008" width="60" height="16.37" as="geometry" />
        </mxCell>
        <mxCell id="SaXlWQdHchq1p5Edldlx-2" value="" style="rounded=0;whiteSpace=wrap;html=1;fontSize=16;fillColor=#000000;points=[[0,0.5,0,0,0],[0.5,0,0,0,0],[0.5,1,0,0,0],[1,0.5,0,0,0]];" vertex="1" parent="SaXlWQdHchq1p5Edldlx-1">
          <mxGeometry y="5.456666666666667" width="49.09090909090909" height="10.913333333333334" as="geometry" />
        </mxCell>
        <mxCell id="SaXlWQdHchq1p5Edldlx-3" value="" style="group;fontSize=16;" vertex="1" connectable="0" parent="lydrGFN5QWvYqXAOOCpk-1">
          <mxGeometry x="-1683" y="737" width="70.91" height="21.830000000000013" as="geometry" />
        </mxCell>
        <mxCell id="SaXlWQdHchq1p5Edldlx-4" value="" style="group;points=[[0,0.5,0,0,0],[0.5,0,0,0,0],[0.5,1,0,0,0],[1,0.5,0,0,0]];fontSize=16;" vertex="1" connectable="0" parent="SaXlWQdHchq1p5Edldlx-3">
          <mxGeometry y="5.460000000000008" width="60" height="16.37" as="geometry" />
        </mxCell>
        <mxCell id="SaXlWQdHchq1p5Edldlx-5" value="" style="rounded=0;whiteSpace=wrap;html=1;fontSize=16;fillColor=#000000;points=[[0,0.5,0,0,0],[0.5,0,0,0,0],[0.5,1,0,0,0],[1,0.5,0,0,0]];" vertex="1" parent="SaXlWQdHchq1p5Edldlx-4">
          <mxGeometry y="5.456666666666667" width="49.09090909090909" height="10.913333333333334" as="geometry" />
        </mxCell>
        <mxCell id="SaXlWQdHchq1p5Edldlx-6" value="&lt;b style=&quot;font-size: 9px;&quot;&gt;exit_S&lt;/b&gt;" style="text;html=1;strokeColor=none;fillColor=none;align=center;verticalAlign=middle;whiteSpace=wrap;rounded=0;fontSize=16;" vertex="1" parent="SaXlWQdHchq1p5Edldlx-3">
          <mxGeometry x="57.00090909090909" y="-1" width="10.90909090909091" height="5.456666666666667" as="geometry" />
        </mxCell>
        <mxCell id="SaXlWQdHchq1p5Edldlx-7" value="&lt;b style=&quot;font-size: 9px;&quot;&gt;skip_S&lt;/b&gt;" style="text;html=1;strokeColor=none;fillColor=none;align=center;verticalAlign=middle;whiteSpace=wrap;rounded=0;fontSize=16;" vertex="1" parent="lydrGFN5QWvYqXAOOCpk-1">
          <mxGeometry x="-1782.9990909090911" y="738" width="10.90909090909091" height="5.456666666666667" as="geometry" />
        </mxCell>
        <mxCell id="SaXlWQdHchq1p5Edldlx-8" value="" style="group" vertex="1" connectable="0" parent="lydrGFN5QWvYqXAOOCpk-1">
          <mxGeometry x="-1679" y="777" width="68.75" height="70" as="geometry" />
        </mxCell>
        <mxCell id="SaXlWQdHchq1p5Edldlx-9" value="" style="group;fontSize=16;" vertex="1" connectable="0" parent="SaXlWQdHchq1p5Edldlx-8">
          <mxGeometry width="68.75" height="60" as="geometry" />
        </mxCell>
        <mxCell id="SaXlWQdHchq1p5Edldlx-10" value="" style="group;fontSize=16;" vertex="1" connectable="0" parent="SaXlWQdHchq1p5Edldlx-9">
          <mxGeometry y="13" width="52.5" height="50" as="geometry" />
        </mxCell>
        <mxCell id="SaXlWQdHchq1p5Edldlx-11" value="" style="group;fontSize=16;" vertex="1" connectable="0" parent="SaXlWQdHchq1p5Edldlx-10">
          <mxGeometry x="-3.75" width="56.25" height="48.75" as="geometry" />
        </mxCell>
        <object label="" markers="●" placeholders="1" id="SaXlWQdHchq1p5Edldlx-12">
          <mxCell style="ellipse;whiteSpace=wrap;html=1;aspect=fixed;fontSize=16;direction=south;perimeterSpacing=0;strokeWidth=1;dashed=1;dashPattern=8 8;points=[[0,0.5,0,0,0],[0.5,0,0,0,0],[0.5,1,0,0,0],[1,0.5,0,0,0]];" vertex="1" parent="SaXlWQdHchq1p5Edldlx-11">
            <mxGeometry y="6.25" width="42.5" height="42.5" as="geometry" />
          </mxCell>
        </object>
        <object label="" markers="●" placeholders="1" id="SaXlWQdHchq1p5Edldlx-13">
          <mxCell style="ellipse;whiteSpace=wrap;html=1;aspect=fixed;fontSize=16;direction=south;perimeterSpacing=0;strokeWidth=1;points=[];" vertex="1" parent="SaXlWQdHchq1p5Edldlx-11">
            <mxGeometry x="3.75" y="10" width="35" height="35" as="geometry" />
          </mxCell>
        </object>
        <mxCell id="SaXlWQdHchq1p5Edldlx-15" style="edgeStyle=none;curved=1;rounded=0;orthogonalLoop=1;jettySize=auto;html=1;entryX=-0.011;entryY=0.425;entryDx=0;entryDy=0;entryPerimeter=0;fontSize=12;startSize=8;endSize=8;" edge="1" parent="lydrGFN5QWvYqXAOOCpk-1" source="SaXlWQdHchq1p5Edldlx-5" target="SaXlWQdHchq1p5Edldlx-12">
          <mxGeometry relative="1" as="geometry" />
        </mxCell>
        <mxCell id="SaXlWQdHchq1p5Edldlx-16" style="edgeStyle=orthogonalEdgeStyle;rounded=0;orthogonalLoop=1;jettySize=auto;html=1;exitX=0.5;exitY=0;exitDx=0;exitDy=0;exitPerimeter=0;entryX=1;entryY=0.5;entryDx=0;entryDy=0;entryPerimeter=0;fontSize=12;startSize=3;endSize=3;endArrow=circle;endFill=0;fillColor=#fff2cc;strokeColor=#d6b656;" edge="1" parent="lydrGFN5QWvYqXAOOCpk-1" source="SaXlWQdHchq1p5Edldlx-12" target="SaXlWQdHchq1p5Edldlx-5">
          <mxGeometry relative="1" as="geometry">
            <Array as="points">
              <mxPoint x="-1610" y="818" />
              <mxPoint x="-1610" y="753" />
            </Array>
          </mxGeometry>
        </mxCell>
        <mxCell id="SaXlWQdHchq1p5Edldlx-18" style="edgeStyle=none;curved=1;rounded=0;orthogonalLoop=1;jettySize=auto;html=1;exitX=1;exitY=0.5;exitDx=0;exitDy=0;exitPerimeter=0;entryX=0.5;entryY=0;entryDx=0;entryDy=0;entryPerimeter=0;fontSize=12;startSize=8;endSize=8;" edge="1" parent="lydrGFN5QWvYqXAOOCpk-1" source="lydrGFN5QWvYqXAOOCpk-7" target="SaXlWQdHchq1p5Edldlx-5">
          <mxGeometry relative="1" as="geometry" />
        </mxCell>
        <mxCell id="SaXlWQdHchq1p5Edldlx-19" value="" style="group;fontSize=16;" vertex="1" connectable="0" parent="lydrGFN5QWvYqXAOOCpk-1">
          <mxGeometry x="-1685.9999999999998" y="870" width="70.91" height="21.830000000000013" as="geometry" />
        </mxCell>
        <mxCell id="SaXlWQdHchq1p5Edldlx-20" value="" style="group;points=[[0,0.5,0,0,0],[0.5,0,0,0,0],[0.5,1,0,0,0],[1,0.5,0,0,0]];fontSize=16;" vertex="1" connectable="0" parent="SaXlWQdHchq1p5Edldlx-19">
          <mxGeometry y="5.460000000000008" width="60" height="16.37" as="geometry" />
        </mxCell>
        <mxCell id="SaXlWQdHchq1p5Edldlx-21" value="" style="rounded=0;whiteSpace=wrap;html=1;fontSize=16;fillColor=#000000;points=[[0,0.5,0,0,0],[0.5,0,0,0,0],[0.5,1,0,0,0],[1,0.5,0,0,0]];" vertex="1" parent="SaXlWQdHchq1p5Edldlx-20">
          <mxGeometry y="5.456666666666667" width="49.09090909090909" height="10.913333333333334" as="geometry" />
        </mxCell>
        <mxCell id="SaXlWQdHchq1p5Edldlx-22" value="" style="group;fontSize=16;" vertex="1" connectable="0" parent="lydrGFN5QWvYqXAOOCpk-1">
          <mxGeometry x="-1769.1799999999998" y="870" width="70.91" height="21.830000000000013" as="geometry" />
        </mxCell>
        <mxCell id="SaXlWQdHchq1p5Edldlx-23" value="" style="group;points=[[0,0.5,0,0,0],[0.5,0,0,0,0],[0.5,1,0,0,0],[1,0.5,0,0,0]];fontSize=16;" vertex="1" connectable="0" parent="SaXlWQdHchq1p5Edldlx-22">
          <mxGeometry y="5.460000000000008" width="60" height="16.37" as="geometry" />
        </mxCell>
        <mxCell id="SaXlWQdHchq1p5Edldlx-24" value="" style="rounded=0;whiteSpace=wrap;html=1;fontSize=16;fillColor=#000000;points=[[0,0.5,0,0,0],[0.5,0,0,0,0],[0.5,1,0,0,0],[1,0.5,0,0,0]];" vertex="1" parent="SaXlWQdHchq1p5Edldlx-23">
          <mxGeometry y="5.456666666666667" width="49.09090909090909" height="10.913333333333334" as="geometry" />
        </mxCell>
        <mxCell id="SaXlWQdHchq1p5Edldlx-26" value="&lt;b style=&quot;font-size: 9px;&quot;&gt;consume_S&lt;/b&gt;" style="text;html=1;strokeColor=none;fillColor=none;align=center;verticalAlign=middle;whiteSpace=wrap;rounded=0;fontSize=16;" vertex="1" parent="lydrGFN5QWvYqXAOOCpk-1">
          <mxGeometry x="-1626.999090909091" y="869" width="10.90909090909091" height="5.456666666666667" as="geometry" />
        </mxCell>
        <mxCell id="SaXlWQdHchq1p5Edldlx-14" value="&lt;b style=&quot;font-size: 9px;&quot;&gt;output_S&lt;/b&gt;" style="text;html=1;strokeColor=none;fillColor=none;align=center;verticalAlign=middle;whiteSpace=wrap;rounded=0;fontSize=16;" vertex="1" parent="lydrGFN5QWvYqXAOOCpk-1">
          <mxGeometry x="-1716" y="827" width="20" height="10" as="geometry" />
        </mxCell>
        <mxCell id="SaXlWQdHchq1p5Edldlx-25" value="&lt;b style=&quot;font-size: 9px;&quot;&gt;skip_S&lt;/b&gt;" style="text;html=1;strokeColor=none;fillColor=none;align=center;verticalAlign=middle;whiteSpace=wrap;rounded=0;fontSize=16;" vertex="1" parent="lydrGFN5QWvYqXAOOCpk-1">
          <mxGeometry x="-1780.9990909090907" y="867" width="10.90909090909091" height="5.456666666666667" as="geometry" />
        </mxCell>
        <mxCell id="SaXlWQdHchq1p5Edldlx-27" style="edgeStyle=none;curved=1;rounded=0;orthogonalLoop=1;jettySize=auto;html=1;exitX=1;exitY=0.5;exitDx=0;exitDy=0;exitPerimeter=0;entryX=0.5;entryY=0;entryDx=0;entryDy=0;entryPerimeter=0;fontSize=12;startSize=8;endSize=8;" edge="1" parent="lydrGFN5QWvYqXAOOCpk-1" source="SaXlWQdHchq1p5Edldlx-12" target="SaXlWQdHchq1p5Edldlx-21">
          <mxGeometry relative="1" as="geometry" />
        </mxCell>
      </root>
    </mxGraphModel>
  </diagram>
</mxfile>
